STARTFONT 2.1
FONT -FontForge-PixelMplus12-Bold-R-Normal--12-120-75-75-P-117-ISO10646-1
SIZE 12 75 75
FONTBOUNDINGBOX 12 13 0 -2
COMMENT "Generated by fontforge, http://fontforge.sourceforge.net"
COMMENT "Copyright (C) 2013 M+ Font Project"
STARTPROPERTIES 40
FOUNDRY "FontForge"
FAMILY_NAME "PixelMplus12"
WEIGHT_NAME "Bold"
SLANT "R"
SETWIDTH_NAME "Normal"
ADD_STYLE_NAME ""
PIXEL_SIZE 12
POINT_SIZE 120
RESOLUTION_X 75
RESOLUTION_Y 75
SPACING "P"
AVERAGE_WIDTH 117
CHARSET_REGISTRY "ISO10646"
CHARSET_ENCODING "1"
FONTNAME_REGISTRY ""
CHARSET_COLLECTIONS "ISO8859-5 JISX0208.1997 BIG5 ISO10646-1"
FONT_NAME "PixelMplus12-Bold"
FACE_NAME "PixelMplus12 Bold"
COPYRIGHT "Copyright (C) 2013 M+ Font Project"
FONT_VERSION "2013.0602"
FONT_ASCENT 10
FONT_DESCENT 2
UNDERLINE_POSITION -2
UNDERLINE_THICKNESS 1
X_HEIGHT 5
CAP_HEIGHT 8
RAW_ASCENT 800
RAW_DESCENT 200
NORM_SPACE 6
RELATIVE_WEIGHT 70
RELATIVE_SETWIDTH 50
SUPERSCRIPT_X 0
SUPERSCRIPT_Y 5
SUPERSCRIPT_SIZE 8
SUBSCRIPT_X 0
SUBSCRIPT_Y 1
SUBSCRIPT_SIZE 8
FIGURE_WIDTH 6
AVG_LOWERCASE_WIDTH 94
AVG_UPPERCASE_WIDTH 97
ENDPROPERTIES
CHARS 7253
STARTCHAR uni0001
ENCODING 1
SWIDTH 500 0
DWIDTH 6 0
BBX 5 5 0 2
BITMAP
20
70
F8
70
20
ENDCHAR
STARTCHAR uni0002
ENCODING 2
SWIDTH 500 0
DWIDTH 6 0
BBX 6 12 0 -2
BITMAP
54
A8
54
A8
54
A8
54
A8
54
A8
54
A8
ENDCHAR
STARTCHAR uni0003
ENCODING 3
SWIDTH 500 0
DWIDTH 6 0
BBX 6 11 0 -1
BITMAP
D8
D8
F8
D8
D8
00
FC
30
30
30
30
ENDCHAR
STARTCHAR uni0004
ENCODING 4
SWIDTH 500 0
DWIDTH 6 0
BBX 5 11 0 -1
BITMAP
F8
C0
F8
C0
C0
00
F8
C0
F8
C0
C0
ENDCHAR
STARTCHAR uni0005
ENCODING 5
SWIDTH 500 0
DWIDTH 6 0
BBX 5 11 0 -1
BITMAP
F8
D8
C0
C0
F8
00
F8
D8
F0
D8
D8
ENDCHAR
STARTCHAR uni0006
ENCODING 6
SWIDTH 500 0
DWIDTH 6 0
BBX 5 11 0 -1
BITMAP
C0
C0
C0
C0
F8
00
F8
C0
F8
C0
C0
ENDCHAR
STARTCHAR uni0007
ENCODING 7
SWIDTH 500 0
DWIDTH 6 0
BBX 5 4 0 6
BITMAP
70
D8
D8
70
ENDCHAR
STARTCHAR uni0008
ENCODING 8
SWIDTH 500 0
DWIDTH 6 0
BBX 5 8 0 0
BITMAP
60
60
F8
60
60
00
00
F8
ENDCHAR
STARTCHAR uni0009
ENCODING 9
SWIDTH 500 0
DWIDTH 6 0
BBX 5 11 0 -1
BITMAP
D8
D8
F8
D8
D8
00
C0
C0
C0
C0
F8
ENDCHAR
STARTCHAR uni000A
ENCODING 10
SWIDTH 500 0
DWIDTH 6 0
BBX 6 11 0 -1
BITMAP
D8
D8
D8
F0
E0
00
FC
30
30
30
30
ENDCHAR
STARTCHAR uni000B
ENCODING 11
SWIDTH 500 0
DWIDTH 6 0
BBX 4 8 0 3
BITMAP
30
30
30
30
30
30
F0
F0
ENDCHAR
STARTCHAR uni000C
ENCODING 12
SWIDTH 500 0
DWIDTH 6 0
BBX 4 7 0 -2
BITMAP
F0
F0
30
30
30
30
30
ENDCHAR
STARTCHAR uni000D
ENCODING 13
SWIDTH 500 0
DWIDTH 6 0
BBX 4 7 2 -2
BITMAP
F0
F0
C0
C0
C0
C0
C0
ENDCHAR
STARTCHAR uni000E
ENCODING 14
SWIDTH 500 0
DWIDTH 6 0
BBX 4 8 2 3
BITMAP
C0
C0
C0
C0
C0
C0
F0
F0
ENDCHAR
STARTCHAR uni000F
ENCODING 15
SWIDTH 500 0
DWIDTH 6 0
BBX 6 13 0 -2
BITMAP
30
30
30
30
30
30
FC
FC
30
30
30
30
30
ENDCHAR
STARTCHAR uni0010
ENCODING 16
SWIDTH 500 0
DWIDTH 6 0
BBX 6 2 0 7
BITMAP
FC
FC
ENDCHAR
STARTCHAR uni0011
ENCODING 17
SWIDTH 500 0
DWIDTH 6 0
BBX 6 2 0 5
BITMAP
FC
FC
ENDCHAR
STARTCHAR uni0012
ENCODING 18
SWIDTH 500 0
DWIDTH 6 0
BBX 6 2 0 3
BITMAP
FC
FC
ENDCHAR
STARTCHAR uni0013
ENCODING 19
SWIDTH 500 0
DWIDTH 6 0
BBX 6 2 0 1
BITMAP
FC
FC
ENDCHAR
STARTCHAR uni0014
ENCODING 20
SWIDTH 500 0
DWIDTH 6 0
BBX 6 2 0 -1
BITMAP
FC
FC
ENDCHAR
STARTCHAR uni0015
ENCODING 21
SWIDTH 500 0
DWIDTH 6 0
BBX 4 13 2 -2
BITMAP
C0
C0
C0
C0
C0
C0
F0
F0
C0
C0
C0
C0
C0
ENDCHAR
STARTCHAR uni0016
ENCODING 22
SWIDTH 500 0
DWIDTH 6 0
BBX 4 13 0 -2
BITMAP
30
30
30
30
30
30
F0
F0
30
30
30
30
30
ENDCHAR
STARTCHAR uni0017
ENCODING 23
SWIDTH 500 0
DWIDTH 6 0
BBX 6 8 0 3
BITMAP
30
30
30
30
30
30
FC
FC
ENDCHAR
STARTCHAR uni0018
ENCODING 24
SWIDTH 500 0
DWIDTH 6 0
BBX 6 7 0 -2
BITMAP
FC
FC
30
30
30
30
30
ENDCHAR
STARTCHAR uni0019
ENCODING 25
SWIDTH 500 0
DWIDTH 6 0
BBX 2 13 2 -2
BITMAP
C0
C0
C0
C0
C0
C0
C0
C0
C0
C0
C0
C0
C0
ENDCHAR
STARTCHAR uni001A
ENCODING 26
SWIDTH 500 0
DWIDTH 6 0
BBX 5 9 0 0
BITMAP
18
30
60
C0
60
30
18
00
F8
ENDCHAR
STARTCHAR uni001B
ENCODING 27
SWIDTH 500 0
DWIDTH 6 0
BBX 5 9 0 0
BITMAP
C0
60
30
18
30
60
C0
00
F8
ENDCHAR
STARTCHAR uni001C
ENCODING 28
SWIDTH 500 0
DWIDTH 6 0
BBX 5 6 0 0
BITMAP
F8
58
58
58
98
98
ENDCHAR
STARTCHAR uni001D
ENCODING 29
SWIDTH 500 0
DWIDTH 6 0
BBX 5 7 0 1
BITMAP
30
30
F8
70
F8
60
60
ENDCHAR
STARTCHAR uni001E
ENCODING 30
SWIDTH 500 0
DWIDTH 6 0
BBX 5 9 0 0
BITMAP
30
68
60
60
F8
60
60
60
B8
ENDCHAR
STARTCHAR uni001F
ENCODING 31
SWIDTH 500 0
DWIDTH 6 0
BBX 2 2 1 3
BITMAP
C0
C0
ENDCHAR
STARTCHAR space
ENCODING 32
SWIDTH 500 0
DWIDTH 6 0
BBX 1 1 0 0
BITMAP
00
ENDCHAR
STARTCHAR exclam
ENCODING 33
SWIDTH 500 0
DWIDTH 6 0
BBX 2 9 2 0
BITMAP
C0
C0
C0
C0
C0
C0
00
C0
C0
ENDCHAR
STARTCHAR quotedbl
ENCODING 34
SWIDTH 500 0
DWIDTH 6 0
BBX 5 4 0 6
BITMAP
D8
D8
D8
D8
ENDCHAR
STARTCHAR numbersign
ENCODING 35
SWIDTH 500 0
DWIDTH 6 0
BBX 5 9 0 0
BITMAP
58
58
F8
58
58
58
F8
58
58
ENDCHAR
STARTCHAR dollar
ENCODING 36
SWIDTH 500 0
DWIDTH 6 0
BBX 5 9 0 0
BITMAP
10
78
D0
F0
70
78
58
F0
40
ENDCHAR
STARTCHAR percent
ENCODING 37
SWIDTH 500 0
DWIDTH 6 0
BBX 5 9 0 0
BITMAP
C0
C8
D8
30
20
60
D8
98
18
ENDCHAR
STARTCHAR ampersand
ENCODING 38
SWIDTH 500 0
DWIDTH 6 0
BBX 5 9 0 0
BITMAP
70
D8
D8
70
60
D8
D8
D8
68
ENDCHAR
STARTCHAR quotesingle
ENCODING 39
SWIDTH 500 0
DWIDTH 6 0
BBX 2 4 1 6
BITMAP
C0
C0
C0
C0
ENDCHAR
STARTCHAR parenleft
ENCODING 40
SWIDTH 500 0
DWIDTH 6 0
BBX 4 11 1 -1
BITMAP
30
60
60
C0
C0
C0
C0
C0
60
60
30
ENDCHAR
STARTCHAR parenright
ENCODING 41
SWIDTH 500 0
DWIDTH 6 0
BBX 4 11 0 -1
BITMAP
C0
60
60
30
30
30
30
30
60
60
C0
ENDCHAR
STARTCHAR asterisk
ENCODING 42
SWIDTH 500 0
DWIDTH 6 0
BBX 5 7 0 1
BITMAP
20
A8
F8
70
F8
A8
20
ENDCHAR
STARTCHAR plus
ENCODING 43
SWIDTH 500 0
DWIDTH 6 0
BBX 5 5 0 2
BITMAP
60
60
F8
60
60
ENDCHAR
STARTCHAR comma
ENCODING 44
SWIDTH 500 0
DWIDTH 6 0
BBX 3 3 0 -1
BITMAP
60
60
C0
ENDCHAR
STARTCHAR hyphen
ENCODING 45
SWIDTH 500 0
DWIDTH 6 0
BBX 5 1 0 4
BITMAP
F8
ENDCHAR
STARTCHAR period
ENCODING 46
SWIDTH 500 0
DWIDTH 6 0
BBX 2 2 1 0
BITMAP
C0
C0
ENDCHAR
STARTCHAR slash
ENCODING 47
SWIDTH 500 0
DWIDTH 6 0
BBX 5 10 0 -1
BITMAP
18
18
30
30
30
60
60
60
C0
C0
ENDCHAR
STARTCHAR zero
ENCODING 48
SWIDTH 500 0
DWIDTH 6 0
BBX 5 9 0 0
BITMAP
70
D8
D8
D8
F8
D8
D8
D8
70
ENDCHAR
STARTCHAR one
ENCODING 49
SWIDTH 500 0
DWIDTH 6 0
BBX 4 9 0 0
BITMAP
30
70
B0
30
30
30
30
30
30
ENDCHAR
STARTCHAR two
ENCODING 50
SWIDTH 500 0
DWIDTH 6 0
BBX 5 9 0 0
BITMAP
70
D8
D8
18
30
60
C0
C0
F8
ENDCHAR
STARTCHAR three
ENCODING 51
SWIDTH 500 0
DWIDTH 6 0
BBX 5 9 0 0
BITMAP
F8
18
30
70
18
18
D8
D8
70
ENDCHAR
STARTCHAR four
ENCODING 52
SWIDTH 500 0
DWIDTH 6 0
BBX 6 9 0 0
BITMAP
38
38
58
58
D8
D8
FC
18
18
ENDCHAR
STARTCHAR five
ENCODING 53
SWIDTH 500 0
DWIDTH 6 0
BBX 5 9 0 0
BITMAP
F8
C0
C0
F0
18
18
D8
D8
70
ENDCHAR
STARTCHAR six
ENCODING 54
SWIDTH 500 0
DWIDTH 6 0
BBX 5 9 0 0
BITMAP
30
60
C0
F0
D8
D8
D8
D8
70
ENDCHAR
STARTCHAR seven
ENCODING 55
SWIDTH 500 0
DWIDTH 6 0
BBX 5 9 0 0
BITMAP
F8
18
18
30
30
60
60
60
60
ENDCHAR
STARTCHAR eight
ENCODING 56
SWIDTH 500 0
DWIDTH 6 0
BBX 5 9 0 0
BITMAP
70
D8
D8
D8
70
D8
D8
D8
70
ENDCHAR
STARTCHAR nine
ENCODING 57
SWIDTH 500 0
DWIDTH 6 0
BBX 5 9 0 0
BITMAP
70
D8
D8
D8
D8
78
18
30
60
ENDCHAR
STARTCHAR colon
ENCODING 58
SWIDTH 500 0
DWIDTH 6 0
BBX 2 6 1 1
BITMAP
C0
C0
00
00
C0
C0
ENDCHAR
STARTCHAR semicolon
ENCODING 59
SWIDTH 500 0
DWIDTH 6 0
BBX 3 7 0 0
BITMAP
60
60
00
00
60
60
C0
ENDCHAR
STARTCHAR less
ENCODING 60
SWIDTH 500 0
DWIDTH 6 0
BBX 5 9 0 0
BITMAP
08
18
30
60
C0
60
30
18
08
ENDCHAR
STARTCHAR equal
ENCODING 61
SWIDTH 500 0
DWIDTH 6 0
BBX 5 3 0 3
BITMAP
F8
00
F8
ENDCHAR
STARTCHAR greater
ENCODING 62
SWIDTH 500 0
DWIDTH 6 0
BBX 5 9 0 0
BITMAP
80
C0
60
30
18
30
60
C0
80
ENDCHAR
STARTCHAR question
ENCODING 63
SWIDTH 500 0
DWIDTH 6 0
BBX 5 9 0 0
BITMAP
70
D8
D8
18
30
60
60
00
60
ENDCHAR
STARTCHAR at
ENCODING 64
SWIDTH 500 0
DWIDTH 6 0
BBX 5 9 0 0
BITMAP
70
C8
D8
D8
D8
D8
D8
C0
70
ENDCHAR
STARTCHAR A
ENCODING 65
SWIDTH 500 0
DWIDTH 6 0
BBX 5 9 0 0
BITMAP
70
D8
D8
D8
F8
D8
D8
D8
D8
ENDCHAR
STARTCHAR B
ENCODING 66
SWIDTH 500 0
DWIDTH 6 0
BBX 5 9 0 0
BITMAP
F0
D8
D8
D8
F0
D8
D8
D8
F0
ENDCHAR
STARTCHAR C
ENCODING 67
SWIDTH 500 0
DWIDTH 6 0
BBX 5 9 0 0
BITMAP
70
D8
C0
C0
C0
C0
C0
D8
70
ENDCHAR
STARTCHAR D
ENCODING 68
SWIDTH 500 0
DWIDTH 6 0
BBX 5 9 0 0
BITMAP
F0
D8
D8
D8
D8
D8
D8
D8
F0
ENDCHAR
STARTCHAR E
ENCODING 69
SWIDTH 500 0
DWIDTH 6 0
BBX 5 9 0 0
BITMAP
F8
C0
C0
C0
F0
C0
C0
C0
F8
ENDCHAR
STARTCHAR F
ENCODING 70
SWIDTH 500 0
DWIDTH 6 0
BBX 5 9 0 0
BITMAP
F8
C0
C0
C0
F0
C0
C0
C0
C0
ENDCHAR
STARTCHAR G
ENCODING 71
SWIDTH 500 0
DWIDTH 6 0
BBX 5 9 0 0
BITMAP
70
D8
C0
C0
F8
D8
D8
D8
78
ENDCHAR
STARTCHAR H
ENCODING 72
SWIDTH 500 0
DWIDTH 6 0
BBX 5 9 0 0
BITMAP
D8
D8
D8
D8
F8
D8
D8
D8
D8
ENDCHAR
STARTCHAR I
ENCODING 73
SWIDTH 500 0
DWIDTH 6 0
BBX 4 9 1 0
BITMAP
F0
60
60
60
60
60
60
60
F0
ENDCHAR
STARTCHAR J
ENCODING 74
SWIDTH 500 0
DWIDTH 6 0
BBX 5 9 0 0
BITMAP
18
18
18
18
18
D8
D8
D8
70
ENDCHAR
STARTCHAR K
ENCODING 75
SWIDTH 500 0
DWIDTH 6 0
BBX 6 9 0 0
BITMAP
CC
D8
F0
E0
F0
D8
D8
CC
CC
ENDCHAR
STARTCHAR L
ENCODING 76
SWIDTH 500 0
DWIDTH 6 0
BBX 5 9 0 0
BITMAP
C0
C0
C0
C0
C0
C0
C0
C0
F8
ENDCHAR
STARTCHAR M
ENCODING 77
SWIDTH 500 0
DWIDTH 6 0
BBX 5 9 0 0
BITMAP
C8
D8
F8
F8
F8
F8
D8
D8
D8
ENDCHAR
STARTCHAR N
ENCODING 78
SWIDTH 500 0
DWIDTH 6 0
BBX 5 9 0 0
BITMAP
98
D8
F8
F8
F8
F8
F8
D8
C8
ENDCHAR
STARTCHAR O
ENCODING 79
SWIDTH 500 0
DWIDTH 6 0
BBX 5 9 0 0
BITMAP
70
D8
D8
D8
D8
D8
D8
D8
70
ENDCHAR
STARTCHAR P
ENCODING 80
SWIDTH 500 0
DWIDTH 6 0
BBX 5 9 0 0
BITMAP
F0
D8
D8
D8
F0
C0
C0
C0
C0
ENDCHAR
STARTCHAR Q
ENCODING 81
SWIDTH 500 0
DWIDTH 6 0
BBX 6 11 0 -2
BITMAP
70
D8
D8
D8
D8
D8
D8
D8
70
10
0C
ENDCHAR
STARTCHAR R
ENCODING 82
SWIDTH 500 0
DWIDTH 6 0
BBX 5 9 0 0
BITMAP
F0
D8
D8
D8
F0
D8
D8
D8
D8
ENDCHAR
STARTCHAR S
ENCODING 83
SWIDTH 500 0
DWIDTH 6 0
BBX 5 9 0 0
BITMAP
70
D8
C0
E0
70
38
18
D8
70
ENDCHAR
STARTCHAR T
ENCODING 84
SWIDTH 500 0
DWIDTH 6 0
BBX 6 9 0 0
BITMAP
FC
30
30
30
30
30
30
30
30
ENDCHAR
STARTCHAR U
ENCODING 85
SWIDTH 500 0
DWIDTH 6 0
BBX 5 9 0 0
BITMAP
D8
D8
D8
D8
D8
D8
D8
D8
70
ENDCHAR
STARTCHAR V
ENCODING 86
SWIDTH 500 0
DWIDTH 6 0
BBX 5 9 0 0
BITMAP
D8
D8
D8
D8
D8
D8
D8
F0
60
ENDCHAR
STARTCHAR W
ENCODING 87
SWIDTH 500 0
DWIDTH 6 0
BBX 5 9 0 0
BITMAP
D8
D8
D8
F8
F8
F8
F8
D8
C8
ENDCHAR
STARTCHAR X
ENCODING 88
SWIDTH 500 0
DWIDTH 6 0
BBX 5 9 0 0
BITMAP
D8
D8
D8
F8
70
F8
D8
D8
D8
ENDCHAR
STARTCHAR Y
ENCODING 89
SWIDTH 500 0
DWIDTH 6 0
BBX 5 9 0 0
BITMAP
D8
D8
D8
D8
D8
F0
60
60
60
ENDCHAR
STARTCHAR Z
ENCODING 90
SWIDTH 500 0
DWIDTH 6 0
BBX 5 9 0 0
BITMAP
F8
18
18
30
60
60
C0
C0
F8
ENDCHAR
STARTCHAR bracketleft
ENCODING 91
SWIDTH 500 0
DWIDTH 6 0
BBX 4 11 1 -1
BITMAP
F0
C0
C0
C0
C0
C0
C0
C0
C0
C0
F0
ENDCHAR
STARTCHAR backslash
ENCODING 92
SWIDTH 500 0
DWIDTH 6 0
BBX 5 10 0 -1
BITMAP
C0
C0
60
60
60
30
30
30
18
18
ENDCHAR
STARTCHAR bracketright
ENCODING 93
SWIDTH 500 0
DWIDTH 6 0
BBX 4 11 0 -1
BITMAP
F0
30
30
30
30
30
30
30
30
30
F0
ENDCHAR
STARTCHAR asciicircum
ENCODING 94
SWIDTH 500 0
DWIDTH 6 0
BBX 5 3 0 7
BITMAP
20
70
D8
ENDCHAR
STARTCHAR underscore
ENCODING 95
SWIDTH 500 0
DWIDTH 6 0
BBX 5 1 0 -1
BITMAP
F8
ENDCHAR
STARTCHAR grave
ENCODING 96
SWIDTH 500 0
DWIDTH 6 0
BBX 3 4 1 6
BITMAP
C0
C0
60
60
ENDCHAR
STARTCHAR a
ENCODING 97
SWIDTH 500 0
DWIDTH 6 0
BBX 5 6 0 0
BITMAP
70
18
78
D8
D8
78
ENDCHAR
STARTCHAR b
ENCODING 98
SWIDTH 500 0
DWIDTH 6 0
BBX 5 9 0 0
BITMAP
C0
C0
C0
F0
D8
D8
D8
D8
F0
ENDCHAR
STARTCHAR c
ENCODING 99
SWIDTH 500 0
DWIDTH 6 0
BBX 5 6 0 0
BITMAP
70
D8
C0
C0
D8
70
ENDCHAR
STARTCHAR d
ENCODING 100
SWIDTH 500 0
DWIDTH 6 0
BBX 5 9 0 0
BITMAP
18
18
18
78
D8
D8
D8
D8
78
ENDCHAR
STARTCHAR e
ENCODING 101
SWIDTH 500 0
DWIDTH 6 0
BBX 5 6 0 0
BITMAP
70
D8
F8
C0
D8
70
ENDCHAR
STARTCHAR f
ENCODING 102
SWIDTH 500 0
DWIDTH 6 0
BBX 5 9 0 0
BITMAP
38
60
60
60
F8
60
60
60
60
ENDCHAR
STARTCHAR g
ENCODING 103
SWIDTH 500 0
DWIDTH 6 0
BBX 5 8 0 -2
BITMAP
78
D8
D8
D8
78
18
D8
70
ENDCHAR
STARTCHAR h
ENCODING 104
SWIDTH 500 0
DWIDTH 6 0
BBX 5 9 0 0
BITMAP
C0
C0
C0
F0
D8
D8
D8
D8
D8
ENDCHAR
STARTCHAR i
ENCODING 105
SWIDTH 500 0
DWIDTH 6 0
BBX 4 10 1 0
BITMAP
60
60
00
00
E0
60
60
60
60
F0
ENDCHAR
STARTCHAR j
ENCODING 106
SWIDTH 500 0
DWIDTH 6 0
BBX 4 12 0 -2
BITMAP
30
30
00
00
70
30
30
30
30
30
30
E0
ENDCHAR
STARTCHAR k
ENCODING 107
SWIDTH 500 0
DWIDTH 6 0
BBX 6 9 0 0
BITMAP
C0
C0
C0
D8
F0
E0
F0
D8
CC
ENDCHAR
STARTCHAR l
ENCODING 108
SWIDTH 500 0
DWIDTH 6 0
BBX 4 9 1 0
BITMAP
E0
60
60
60
60
60
60
60
70
ENDCHAR
STARTCHAR m
ENCODING 109
SWIDTH 500 0
DWIDTH 6 0
BBX 5 6 0 0
BITMAP
F0
F8
F8
F8
F8
F8
ENDCHAR
STARTCHAR n
ENCODING 110
SWIDTH 500 0
DWIDTH 6 0
BBX 5 6 0 0
BITMAP
F0
D8
D8
D8
D8
D8
ENDCHAR
STARTCHAR o
ENCODING 111
SWIDTH 500 0
DWIDTH 6 0
BBX 5 6 0 0
BITMAP
70
D8
D8
D8
D8
70
ENDCHAR
STARTCHAR p
ENCODING 112
SWIDTH 500 0
DWIDTH 6 0
BBX 5 8 0 -2
BITMAP
F0
D8
D8
D8
F0
C0
C0
C0
ENDCHAR
STARTCHAR q
ENCODING 113
SWIDTH 500 0
DWIDTH 6 0
BBX 5 8 0 -2
BITMAP
78
D8
D8
D8
78
18
18
18
ENDCHAR
STARTCHAR r
ENCODING 114
SWIDTH 500 0
DWIDTH 6 0
BBX 5 6 0 0
BITMAP
D8
E0
C0
C0
C0
C0
ENDCHAR
STARTCHAR s
ENCODING 115
SWIDTH 500 0
DWIDTH 6 0
BBX 5 6 0 0
BITMAP
78
C0
F0
78
18
F0
ENDCHAR
STARTCHAR t
ENCODING 116
SWIDTH 500 0
DWIDTH 6 0
BBX 5 9 0 0
BITMAP
60
60
60
F8
60
60
60
60
38
ENDCHAR
STARTCHAR u
ENCODING 117
SWIDTH 500 0
DWIDTH 6 0
BBX 5 6 0 0
BITMAP
D8
D8
D8
D8
D8
78
ENDCHAR
STARTCHAR v
ENCODING 118
SWIDTH 500 0
DWIDTH 6 0
BBX 5 6 0 0
BITMAP
D8
D8
D8
D8
F0
60
ENDCHAR
STARTCHAR w
ENCODING 119
SWIDTH 500 0
DWIDTH 6 0
BBX 5 6 0 0
BITMAP
F8
F8
F8
F8
F8
D8
ENDCHAR
STARTCHAR x
ENCODING 120
SWIDTH 500 0
DWIDTH 6 0
BBX 5 6 0 0
BITMAP
D8
D8
70
70
D8
D8
ENDCHAR
STARTCHAR y
ENCODING 121
SWIDTH 500 0
DWIDTH 6 0
BBX 5 8 0 -2
BITMAP
D8
D8
D8
D8
78
18
D8
70
ENDCHAR
STARTCHAR z
ENCODING 122
SWIDTH 500 0
DWIDTH 6 0
BBX 5 6 0 0
BITMAP
F8
38
70
E0
C0
F8
ENDCHAR
STARTCHAR braceleft
ENCODING 123
SWIDTH 500 0
DWIDTH 6 0
BBX 6 11 0 -1
BITMAP
1C
30
30
30
30
E0
30
30
30
30
1C
ENDCHAR
STARTCHAR bar
ENCODING 124
SWIDTH 500 0
DWIDTH 6 0
BBX 2 11 2 -1
BITMAP
C0
C0
C0
C0
C0
C0
C0
C0
C0
C0
C0
ENDCHAR
STARTCHAR braceright
ENCODING 125
SWIDTH 500 0
DWIDTH 6 0
BBX 6 11 0 -1
BITMAP
E0
30
30
30
30
1C
30
30
30
30
E0
ENDCHAR
STARTCHAR asciitilde
ENCODING 126
SWIDTH 500 0
DWIDTH 6 0
BBX 5 3 0 6
BITMAP
68
F8
B0
ENDCHAR
STARTCHAR uni007F
ENCODING 127
SWIDTH 500 0
DWIDTH 6 0
BBX 1 1 0 0
BITMAP
00
ENDCHAR
STARTCHAR uni00A0
ENCODING 160
SWIDTH 500 0
DWIDTH 6 0
BBX 1 1 0 0
BITMAP
00
ENDCHAR
STARTCHAR exclamdown
ENCODING 161
SWIDTH 500 0
DWIDTH 6 0
BBX 2 10 2 0
BITMAP
C0
C0
00
C0
C0
C0
C0
C0
C0
C0
ENDCHAR
STARTCHAR cent
ENCODING 162
SWIDTH 500 0
DWIDTH 6 0
BBX 5 9 0 0
BITMAP
10
10
78
D8
D0
D0
D0
78
10
ENDCHAR
STARTCHAR sterling
ENCODING 163
SWIDTH 500 0
DWIDTH 6 0
BBX 5 9 0 0
BITMAP
30
68
60
60
F8
60
60
60
B8
ENDCHAR
STARTCHAR currency
ENCODING 164
SWIDTH 500 0
DWIDTH 6 0
BBX 5 6 0 1
BITMAP
D8
F8
50
50
F8
D8
ENDCHAR
STARTCHAR yen
ENCODING 165
SWIDTH 500 0
DWIDTH 6 0
BBX 5 9 0 0
BITMAP
D8
D8
F0
60
F8
60
F8
60
60
ENDCHAR
STARTCHAR brokenbar
ENCODING 166
SWIDTH 500 0
DWIDTH 6 0
BBX 2 11 2 -1
BITMAP
C0
C0
C0
C0
C0
00
C0
C0
C0
C0
C0
ENDCHAR
STARTCHAR section
ENCODING 167
SWIDTH 500 0
DWIDTH 6 0
BBX 5 11 0 -1
BITMAP
70
D8
C0
70
D8
D8
D8
70
18
D8
70
ENDCHAR
STARTCHAR dieresis
ENCODING 168
SWIDTH 500 0
DWIDTH 6 0
BBX 5 2 0 7
BITMAP
D8
D8
ENDCHAR
STARTCHAR copyright
ENCODING 169
SWIDTH 500 0
DWIDTH 6 0
BBX 5 9 0 0
BITMAP
F8
88
70
60
60
60
70
88
F8
ENDCHAR
STARTCHAR ordfeminine
ENCODING 170
SWIDTH 500 0
DWIDTH 6 0
BBX 5 7 0 2
BITMAP
70
18
78
D8
78
00
F8
ENDCHAR
STARTCHAR guillemotleft
ENCODING 171
SWIDTH 500 0
DWIDTH 6 0
BBX 5 9 0 0
BITMAP
18
30
68
D8
B0
D8
68
30
18
ENDCHAR
STARTCHAR logicalnot
ENCODING 172
SWIDTH 500 0
DWIDTH 6 0
BBX 5 4 0 2
BITMAP
F8
F8
18
18
ENDCHAR
STARTCHAR uni00AD
ENCODING 173
SWIDTH 500 0
DWIDTH 6 0
BBX 4 2 0 4
BITMAP
F0
F0
ENDCHAR
STARTCHAR registered
ENCODING 174
SWIDTH 500 0
DWIDTH 6 0
BBX 5 9 0 0
BITMAP
F8
88
60
70
60
60
60
88
F8
ENDCHAR
STARTCHAR macron
ENCODING 175
SWIDTH 500 0
DWIDTH 6 0
BBX 4 2 0 7
BITMAP
F0
F0
ENDCHAR
STARTCHAR degree
ENCODING 176
SWIDTH 500 0
DWIDTH 6 0
BBX 5 4 0 6
BITMAP
70
D8
D8
70
ENDCHAR
STARTCHAR plusminus
ENCODING 177
SWIDTH 500 0
DWIDTH 6 0
BBX 5 8 0 0
BITMAP
60
60
F8
60
60
00
00
F8
ENDCHAR
STARTCHAR uni00B2
ENCODING 178
SWIDTH 500 0
DWIDTH 6 0
BBX 4 6 0 4
BITMAP
E0
30
30
60
C0
F0
ENDCHAR
STARTCHAR uni00B3
ENCODING 179
SWIDTH 500 0
DWIDTH 6 0
BBX 4 6 0 4
BITMAP
F0
30
60
30
30
E0
ENDCHAR
STARTCHAR acute
ENCODING 180
SWIDTH 500 0
DWIDTH 6 0
BBX 3 2 1 8
BITMAP
60
C0
ENDCHAR
STARTCHAR mu
ENCODING 181
SWIDTH 500 0
DWIDTH 6 0
BBX 5 8 0 -2
BITMAP
D8
D8
D8
D8
D8
F8
C0
C0
ENDCHAR
STARTCHAR paragraph
ENCODING 182
SWIDTH 500 0
DWIDTH 6 0
BBX 5 9 0 0
BITMAP
78
E8
E8
E8
E8
68
28
28
28
ENDCHAR
STARTCHAR periodcentered
ENCODING 183
SWIDTH 500 0
DWIDTH 6 0
BBX 2 2 1 4
BITMAP
C0
C0
ENDCHAR
STARTCHAR cedilla
ENCODING 184
SWIDTH 500 0
DWIDTH 6 0
BBX 3 2 1 -2
BITMAP
60
C0
ENDCHAR
STARTCHAR uni00B9
ENCODING 185
SWIDTH 500 0
DWIDTH 6 0
BBX 3 6 0 4
BITMAP
60
E0
60
60
60
60
ENDCHAR
STARTCHAR ordmasculine
ENCODING 186
SWIDTH 500 0
DWIDTH 6 0
BBX 5 7 0 3
BITMAP
70
D8
D8
D8
70
00
F8
ENDCHAR
STARTCHAR guillemotright
ENCODING 187
SWIDTH 500 0
DWIDTH 6 0
BBX 5 9 0 0
BITMAP
C0
60
B0
D8
68
D8
B0
60
C0
ENDCHAR
STARTCHAR onequarter
ENCODING 188
SWIDTH 500 0
DWIDTH 6 0
BBX 6 9 0 0
BITMAP
60
E0
60
60
78
38
58
7C
18
ENDCHAR
STARTCHAR onehalf
ENCODING 189
SWIDTH 500 0
DWIDTH 6 0
BBX 6 9 0 0
BITMAP
60
E0
60
60
78
2C
0C
18
3C
ENDCHAR
STARTCHAR threequarters
ENCODING 190
SWIDTH 500 0
DWIDTH 6 0
BBX 6 9 0 0
BITMAP
F0
30
60
30
F8
38
58
7C
18
ENDCHAR
STARTCHAR questiondown
ENCODING 191
SWIDTH 500 0
DWIDTH 6 0
BBX 5 9 0 0
BITMAP
30
00
30
30
60
C0
D8
D8
70
ENDCHAR
STARTCHAR Agrave
ENCODING 192
SWIDTH 500 0
DWIDTH 6 0
BBX 5 10 0 0
BITMAP
60
30
00
70
D8
D8
F8
D8
D8
D8
ENDCHAR
STARTCHAR Aacute
ENCODING 193
SWIDTH 500 0
DWIDTH 6 0
BBX 5 10 0 0
BITMAP
30
60
00
70
D8
D8
F8
D8
D8
D8
ENDCHAR
STARTCHAR Acircumflex
ENCODING 194
SWIDTH 500 0
DWIDTH 6 0
BBX 5 10 0 0
BITMAP
70
D8
00
70
D8
D8
F8
D8
D8
D8
ENDCHAR
STARTCHAR Atilde
ENCODING 195
SWIDTH 500 0
DWIDTH 6 0
BBX 5 10 0 0
BITMAP
68
B0
00
70
D8
D8
F8
D8
D8
D8
ENDCHAR
STARTCHAR Adieresis
ENCODING 196
SWIDTH 500 0
DWIDTH 6 0
BBX 5 10 0 0
BITMAP
D8
D8
00
70
D8
D8
F8
D8
D8
D8
ENDCHAR
STARTCHAR Aring
ENCODING 197
SWIDTH 500 0
DWIDTH 6 0
BBX 5 10 0 0
BITMAP
70
D8
D8
70
D8
D8
F8
D8
D8
D8
ENDCHAR
STARTCHAR AE
ENCODING 198
SWIDTH 500 0
DWIDTH 6 0
BBX 5 9 0 0
BITMAP
F8
B0
B0
B0
F8
B0
B0
B0
B8
ENDCHAR
STARTCHAR Ccedilla
ENCODING 199
SWIDTH 500 0
DWIDTH 6 0
BBX 5 11 0 -2
BITMAP
70
D8
C0
C0
C0
C0
C0
D8
70
20
40
ENDCHAR
STARTCHAR Egrave
ENCODING 200
SWIDTH 500 0
DWIDTH 6 0
BBX 5 10 0 0
BITMAP
60
30
00
F8
C0
C0
F8
C0
C0
F8
ENDCHAR
STARTCHAR Eacute
ENCODING 201
SWIDTH 500 0
DWIDTH 6 0
BBX 5 10 0 0
BITMAP
30
60
00
F8
C0
C0
F8
C0
C0
F8
ENDCHAR
STARTCHAR Ecircumflex
ENCODING 202
SWIDTH 500 0
DWIDTH 6 0
BBX 5 10 0 0
BITMAP
70
D8
00
F8
C0
C0
F8
C0
C0
F8
ENDCHAR
STARTCHAR Edieresis
ENCODING 203
SWIDTH 500 0
DWIDTH 6 0
BBX 5 10 0 0
BITMAP
D8
D8
00
F8
C0
C0
F8
C0
C0
F8
ENDCHAR
STARTCHAR Igrave
ENCODING 204
SWIDTH 500 0
DWIDTH 6 0
BBX 4 10 1 0
BITMAP
60
30
00
F0
60
60
60
60
60
F0
ENDCHAR
STARTCHAR Iacute
ENCODING 205
SWIDTH 500 0
DWIDTH 6 0
BBX 4 10 1 0
BITMAP
30
60
00
F0
60
60
60
60
60
F0
ENDCHAR
STARTCHAR Icircumflex
ENCODING 206
SWIDTH 500 0
DWIDTH 6 0
BBX 5 10 1 0
BITMAP
70
D8
00
F0
60
60
60
60
60
F0
ENDCHAR
STARTCHAR Idieresis
ENCODING 207
SWIDTH 500 0
DWIDTH 6 0
BBX 5 10 1 0
BITMAP
D8
D8
00
F0
60
60
60
60
60
F0
ENDCHAR
STARTCHAR Eth
ENCODING 208
SWIDTH 500 0
DWIDTH 6 0
BBX 5 9 0 0
BITMAP
F0
58
58
58
F8
58
58
58
F0
ENDCHAR
STARTCHAR Ntilde
ENCODING 209
SWIDTH 500 0
DWIDTH 6 0
BBX 5 10 0 0
BITMAP
68
B0
00
98
D8
F8
F8
F8
D8
C8
ENDCHAR
STARTCHAR Ograve
ENCODING 210
SWIDTH 500 0
DWIDTH 6 0
BBX 5 10 0 0
BITMAP
60
30
00
70
D8
D8
D8
D8
D8
70
ENDCHAR
STARTCHAR Oacute
ENCODING 211
SWIDTH 500 0
DWIDTH 6 0
BBX 5 10 0 0
BITMAP
30
60
00
70
D8
D8
D8
D8
D8
70
ENDCHAR
STARTCHAR Ocircumflex
ENCODING 212
SWIDTH 500 0
DWIDTH 6 0
BBX 5 10 0 0
BITMAP
70
D8
00
70
D8
D8
D8
D8
D8
70
ENDCHAR
STARTCHAR Otilde
ENCODING 213
SWIDTH 500 0
DWIDTH 6 0
BBX 5 10 0 0
BITMAP
68
B0
00
70
D8
D8
D8
D8
D8
70
ENDCHAR
STARTCHAR Odieresis
ENCODING 214
SWIDTH 500 0
DWIDTH 6 0
BBX 5 10 0 0
BITMAP
D8
D8
00
70
D8
D8
D8
D8
D8
70
ENDCHAR
STARTCHAR multiply
ENCODING 215
SWIDTH 500 0
DWIDTH 6 0
BBX 5 5 0 1
BITMAP
D8
D8
70
D8
D8
ENDCHAR
STARTCHAR Oslash
ENCODING 216
SWIDTH 500 0
DWIDTH 6 0
BBX 5 11 0 -1
BITMAP
08
70
D8
D8
D8
F8
D8
D8
D8
70
80
ENDCHAR
STARTCHAR Ugrave
ENCODING 217
SWIDTH 500 0
DWIDTH 6 0
BBX 5 10 0 0
BITMAP
60
30
00
D8
D8
D8
D8
D8
D8
70
ENDCHAR
STARTCHAR Uacute
ENCODING 218
SWIDTH 500 0
DWIDTH 6 0
BBX 5 10 0 0
BITMAP
30
60
00
D8
D8
D8
D8
D8
D8
70
ENDCHAR
STARTCHAR Ucircumflex
ENCODING 219
SWIDTH 500 0
DWIDTH 6 0
BBX 5 10 0 0
BITMAP
70
D8
00
D8
D8
D8
D8
D8
D8
70
ENDCHAR
STARTCHAR Udieresis
ENCODING 220
SWIDTH 500 0
DWIDTH 6 0
BBX 5 10 0 0
BITMAP
D8
D8
00
D8
D8
D8
D8
D8
D8
70
ENDCHAR
STARTCHAR Yacute
ENCODING 221
SWIDTH 500 0
DWIDTH 6 0
BBX 5 10 0 0
BITMAP
30
60
00
D8
D8
D8
F0
60
60
60
ENDCHAR
STARTCHAR Thorn
ENCODING 222
SWIDTH 500 0
DWIDTH 6 0
BBX 5 10 0 0
BITMAP
C0
C0
F0
D8
D8
D8
F0
C0
C0
C0
ENDCHAR
STARTCHAR germandbls
ENCODING 223
SWIDTH 500 0
DWIDTH 6 0
BBX 5 10 0 -2
BITMAP
70
D8
D8
F0
D8
D8
D8
F0
C0
C0
ENDCHAR
STARTCHAR agrave
ENCODING 224
SWIDTH 500 0
DWIDTH 6 0
BBX 5 10 0 0
BITMAP
60
30
00
00
70
18
78
D8
D8
78
ENDCHAR
STARTCHAR aacute
ENCODING 225
SWIDTH 500 0
DWIDTH 6 0
BBX 5 10 0 0
BITMAP
30
60
00
00
70
18
78
D8
D8
78
ENDCHAR
STARTCHAR acircumflex
ENCODING 226
SWIDTH 500 0
DWIDTH 6 0
BBX 5 10 0 0
BITMAP
70
D8
00
00
70
18
78
D8
D8
78
ENDCHAR
STARTCHAR atilde
ENCODING 227
SWIDTH 500 0
DWIDTH 6 0
BBX 5 10 0 0
BITMAP
68
B0
00
00
70
18
78
D8
D8
78
ENDCHAR
STARTCHAR adieresis
ENCODING 228
SWIDTH 500 0
DWIDTH 6 0
BBX 5 10 0 0
BITMAP
D8
D8
00
00
70
18
78
D8
D8
78
ENDCHAR
STARTCHAR aring
ENCODING 229
SWIDTH 500 0
DWIDTH 6 0
BBX 5 10 0 0
BITMAP
70
D8
70
00
70
18
78
D8
D8
78
ENDCHAR
STARTCHAR ae
ENCODING 230
SWIDTH 500 0
DWIDTH 6 0
BBX 5 6 0 0
BITMAP
F8
30
F8
B0
B0
F8
ENDCHAR
STARTCHAR ccedilla
ENCODING 231
SWIDTH 500 0
DWIDTH 6 0
BBX 5 8 0 -2
BITMAP
70
D8
C0
C0
D8
70
20
40
ENDCHAR
STARTCHAR egrave
ENCODING 232
SWIDTH 500 0
DWIDTH 6 0
BBX 5 10 0 0
BITMAP
60
30
00
00
70
D8
F8
C0
D8
70
ENDCHAR
STARTCHAR eacute
ENCODING 233
SWIDTH 500 0
DWIDTH 6 0
BBX 5 10 0 0
BITMAP
30
60
00
00
70
D8
F8
C0
D8
70
ENDCHAR
STARTCHAR ecircumflex
ENCODING 234
SWIDTH 500 0
DWIDTH 6 0
BBX 5 10 0 0
BITMAP
70
D8
00
00
70
D8
F8
C0
D8
70
ENDCHAR
STARTCHAR edieresis
ENCODING 235
SWIDTH 500 0
DWIDTH 6 0
BBX 5 10 0 0
BITMAP
D8
D8
00
00
70
D8
F8
C0
D8
70
ENDCHAR
STARTCHAR igrave
ENCODING 236
SWIDTH 500 0
DWIDTH 6 0
BBX 4 10 1 0
BITMAP
60
30
00
00
E0
60
60
60
60
F0
ENDCHAR
STARTCHAR iacute
ENCODING 237
SWIDTH 500 0
DWIDTH 6 0
BBX 4 10 1 0
BITMAP
30
60
00
00
E0
60
60
60
60
F0
ENDCHAR
STARTCHAR icircumflex
ENCODING 238
SWIDTH 500 0
DWIDTH 6 0
BBX 5 10 1 0
BITMAP
70
D8
00
00
E0
60
60
60
60
F0
ENDCHAR
STARTCHAR idieresis
ENCODING 239
SWIDTH 500 0
DWIDTH 6 0
BBX 5 10 1 0
BITMAP
D8
D8
00
00
E0
60
60
60
60
F0
ENDCHAR
STARTCHAR eth
ENCODING 240
SWIDTH 500 0
DWIDTH 6 0
BBX 5 10 0 0
BITMAP
C0
78
E0
30
70
D8
D8
D8
D8
70
ENDCHAR
STARTCHAR ntilde
ENCODING 241
SWIDTH 500 0
DWIDTH 6 0
BBX 5 10 0 0
BITMAP
68
B0
00
00
F0
D8
D8
D8
D8
D8
ENDCHAR
STARTCHAR ograve
ENCODING 242
SWIDTH 500 0
DWIDTH 6 0
BBX 5 10 0 0
BITMAP
60
30
00
00
70
D8
D8
D8
D8
70
ENDCHAR
STARTCHAR oacute
ENCODING 243
SWIDTH 500 0
DWIDTH 6 0
BBX 5 10 0 0
BITMAP
30
60
00
00
70
D8
D8
D8
D8
70
ENDCHAR
STARTCHAR ocircumflex
ENCODING 244
SWIDTH 500 0
DWIDTH 6 0
BBX 5 10 0 0
BITMAP
70
D8
00
00
70
D8
D8
D8
D8
70
ENDCHAR
STARTCHAR otilde
ENCODING 245
SWIDTH 500 0
DWIDTH 6 0
BBX 5 10 0 0
BITMAP
68
B0
00
00
70
D8
D8
D8
D8
70
ENDCHAR
STARTCHAR odieresis
ENCODING 246
SWIDTH 500 0
DWIDTH 6 0
BBX 5 10 0 0
BITMAP
D8
D8
00
00
70
D8
D8
D8
D8
70
ENDCHAR
STARTCHAR divide
ENCODING 247
SWIDTH 500 0
DWIDTH 6 0
BBX 5 7 0 1
BITMAP
60
60
00
F8
00
60
60
ENDCHAR
STARTCHAR oslash
ENCODING 248
SWIDTH 500 0
DWIDTH 6 0
BBX 5 8 0 -1
BITMAP
08
70
D8
F8
D8
D8
70
80
ENDCHAR
STARTCHAR ugrave
ENCODING 249
SWIDTH 500 0
DWIDTH 6 0
BBX 5 10 0 0
BITMAP
60
30
00
00
D8
D8
D8
D8
D8
78
ENDCHAR
STARTCHAR uacute
ENCODING 250
SWIDTH 500 0
DWIDTH 6 0
BBX 5 10 0 0
BITMAP
30
60
00
00
D8
D8
D8
D8
D8
78
ENDCHAR
STARTCHAR ucircumflex
ENCODING 251
SWIDTH 500 0
DWIDTH 6 0
BBX 5 10 0 0
BITMAP
70
D8
00
00
D8
D8
D8
D8
D8
78
ENDCHAR
STARTCHAR udieresis
ENCODING 252
SWIDTH 500 0
DWIDTH 6 0
BBX 5 10 0 0
BITMAP
D8
D8
00
00
D8
D8
D8
D8
D8
78
ENDCHAR
STARTCHAR yacute
ENCODING 253
SWIDTH 500 0
DWIDTH 6 0
BBX 5 12 0 -2
BITMAP
30
60
00
00
D8
D8
D8
D8
78
18
D8
70
ENDCHAR
STARTCHAR thorn
ENCODING 254
SWIDTH 500 0
DWIDTH 6 0
BBX 5 10 0 -2
BITMAP
C0
C0
F0
D8
D8
D8
F0
C0
C0
C0
ENDCHAR
STARTCHAR ydieresis
ENCODING 255
SWIDTH 500 0
DWIDTH 6 0
BBX 5 12 0 -2
BITMAP
D8
D8
00
00
D8
D8
D8
D8
78
18
D8
70
ENDCHAR
STARTCHAR Alpha
ENCODING 913
SWIDTH 1000 0
DWIDTH 12 0
BBX 12 10 0 0
BITMAP
1E00
0600
0D00
0D00
1980
1980
1F80
30C0
30C0
F9F0
ENDCHAR
STARTCHAR Beta
ENCODING 914
SWIDTH 1000 0
DWIDTH 12 0
BBX 10 10 1 0
BITMAP
FF00
3180
3180
3180
3F00
3180
30C0
30C0
3180
FF00
ENDCHAR
STARTCHAR Gamma
ENCODING 915
SWIDTH 1000 0
DWIDTH 12 0
BBX 9 10 2 0
BITMAP
FF80
3180
3180
3000
3000
3000
3000
3000
3000
FC00
ENDCHAR
STARTCHAR uni0394
ENCODING 916
SWIDTH 1000 0
DWIDTH 12 0
BBX 10 10 1 0
BITMAP
0C00
0C00
1A00
1A00
3300
3300
6180
6180
C0C0
FFC0
ENDCHAR
STARTCHAR Epsilon
ENCODING 917
SWIDTH 1000 0
DWIDTH 12 0
BBX 9 10 2 0
BITMAP
FF80
3180
3000
3600
3E00
3600
3000
3180
3180
FF80
ENDCHAR
STARTCHAR Zeta
ENCODING 918
SWIDTH 1000 0
DWIDTH 12 0
BBX 8 10 2 0
BITMAP
FF
C3
C6
0C
18
30
60
C3
C3
FF
ENDCHAR
STARTCHAR Eta
ENCODING 919
SWIDTH 1000 0
DWIDTH 12 0
BBX 11 10 1 0
BITMAP
FBE0
3180
3180
3180
3F80
3180
3180
3180
3180
FBE0
ENDCHAR
STARTCHAR Theta
ENCODING 920
SWIDTH 1000 0
DWIDTH 12 0
BBX 11 10 1 0
BITMAP
3F80
60C0
C060
D1A0
DFA0
D1A0
C060
C060
60C0
3F80
ENDCHAR
STARTCHAR Iota
ENCODING 921
SWIDTH 1000 0
DWIDTH 12 0
BBX 6 10 3 0
BITMAP
FC
30
30
30
30
30
30
30
30
FC
ENDCHAR
STARTCHAR Kappa
ENCODING 922
SWIDTH 1000 0
DWIDTH 12 0
BBX 11 10 1 0
BITMAP
FBE0
3180
3300
3600
3400
3C00
3600
3300
3180
FBE0
ENDCHAR
STARTCHAR Lambda
ENCODING 923
SWIDTH 1000 0
DWIDTH 12 0
BBX 12 10 0 0
BITMAP
1E00
0600
0D00
0D00
1980
1980
1980
30C0
30C0
F9F0
ENDCHAR
STARTCHAR Mu
ENCODING 924
SWIDTH 1000 0
DWIDTH 12 0
BBX 12 10 0 0
BITMAP
F9F0
39C0
39C0
3540
3540
3540
36C0
36C0
36C0
F9F0
ENDCHAR
STARTCHAR Nu
ENCODING 925
SWIDTH 1000 0
DWIDTH 12 0
BBX 11 10 1 0
BITMAP
FBE0
3980
3580
3580
3680
3680
3380
3380
3180
F980
ENDCHAR
STARTCHAR Xi
ENCODING 926
SWIDTH 1000 0
DWIDTH 12 0
BBX 12 10 0 0
BITMAP
1FF0
3060
0000
18C0
1F80
3180
0000
60C0
C180
FF80
ENDCHAR
STARTCHAR Omicron
ENCODING 927
SWIDTH 1000 0
DWIDTH 12 0
BBX 10 10 1 0
BITMAP
3F00
6180
C0C0
C0C0
C0C0
C0C0
C0C0
C0C0
6180
3F00
ENDCHAR
STARTCHAR Pi
ENCODING 928
SWIDTH 1000 0
DWIDTH 12 0
BBX 11 10 1 0
BITMAP
7FC0
3180
3180
3180
3180
3180
3180
3180
3180
FBE0
ENDCHAR
STARTCHAR Rho
ENCODING 929
SWIDTH 1000 0
DWIDTH 12 0
BBX 10 10 1 0
BITMAP
FF00
3180
30C0
30C0
3180
3F00
3000
3000
3000
F800
ENDCHAR
STARTCHAR Sigma
ENCODING 931
SWIDTH 1000 0
DWIDTH 12 0
BBX 8 12 2 -1
BITMAP
03
FF
63
33
18
0C
18
30
63
C3
FF
03
ENDCHAR
STARTCHAR Tau
ENCODING 932
SWIDTH 1000 0
DWIDTH 12 0
BBX 10 10 1 0
BITMAP
FFC0
CCC0
CCC0
0C00
0C00
0C00
0C00
0C00
0C00
3F00
ENDCHAR
STARTCHAR Upsilon
ENCODING 933
SWIDTH 1000 0
DWIDTH 12 0
BBX 12 10 0 0
BITMAP
39C0
6D60
C630
0600
0600
0600
0600
0600
0600
1F80
ENDCHAR
STARTCHAR Phi
ENCODING 934
SWIDTH 1000 0
DWIDTH 12 0
BBX 10 10 1 0
BITMAP
3F00
0C00
3F00
6D80
CCC0
CCC0
6D80
3F00
0C00
3F00
ENDCHAR
STARTCHAR Chi
ENCODING 935
SWIDTH 1000 0
DWIDTH 12 0
BBX 10 10 1 0
BITMAP
FBC0
3300
3300
1A00
0C00
0C00
1A00
3300
3300
FBC0
ENDCHAR
STARTCHAR Psi
ENCODING 936
SWIDTH 1000 0
DWIDTH 12 0
BBX 12 10 0 0
BITMAP
1F80
0600
6660
D6D0
36C0
36C0
1F80
0600
0600
1F80
ENDCHAR
STARTCHAR uni03A9
ENCODING 937
SWIDTH 1000 0
DWIDTH 12 0
BBX 9 10 2 0
BITMAP
3E00
6300
C180
C180
C180
C180
6300
3600
D680
F780
ENDCHAR
STARTCHAR alpha
ENCODING 945
SWIDTH 1000 0
DWIDTH 12 0
BBX 10 7 1 0
BITMAP
1CC0
7680
6300
C300
C600
CE00
7B80
ENDCHAR
STARTCHAR beta
ENCODING 946
SWIDTH 1000 0
DWIDTH 12 0
BBX 8 11 2 -1
BITMAP
0E
1B
33
35
66
63
63
D3
DE
C0
C0
ENDCHAR
STARTCHAR gamma
ENCODING 947
SWIDTH 1000 0
DWIDTH 12 0
BBX 9 8 2 -1
BITMAP
E700
3580
1800
1800
3000
3000
6000
6000
ENDCHAR
STARTCHAR delta
ENCODING 948
SWIDTH 1000 0
DWIDTH 12 0
BBX 8 10 2 0
BITMAP
1C
37
30
18
34
66
C6
C6
CC
78
ENDCHAR
STARTCHAR epsilon
ENCODING 949
SWIDTH 1000 0
DWIDTH 12 0
BBX 8 8 3 0
BITMAP
3E
63
60
3C
70
C0
C6
7C
ENDCHAR
STARTCHAR zeta
ENCODING 950
SWIDTH 1000 0
DWIDTH 12 0
BBX 8 11 2 -1
BITMAP
30
67
6C
30
60
C0
C0
70
1C
06
3C
ENDCHAR
STARTCHAR eta
ENCODING 951
SWIDTH 1000 0
DWIDTH 12 0
BBX 8 8 2 0
BITMAP
EE
3B
33
63
66
C6
CC
0C
ENDCHAR
STARTCHAR theta
ENCODING 952
SWIDTH 1000 0
DWIDTH 12 0
BBX 7 11 3 -1
BITMAP
1C
36
66
66
C6
FE
C6
CC
CC
D8
70
ENDCHAR
STARTCHAR iota
ENCODING 953
SWIDTH 1000 0
DWIDTH 12 0
BBX 8 8 2 0
BITMAP
30
30
30
60
63
C3
C6
7C
ENDCHAR
STARTCHAR kappa
ENCODING 954
SWIDTH 1000 0
DWIDTH 12 0
BBX 9 8 2 0
BITMAP
6380
3600
3400
3800
6800
6C00
CD00
C600
ENDCHAR
STARTCHAR lambda
ENCODING 955
SWIDTH 1000 0
DWIDTH 12 0
BBX 10 10 1 0
BITMAP
3C00
0600
0600
0600
1E00
3600
6600
6300
C300
C1C0
ENDCHAR
STARTCHAR uni03BC
ENCODING 956
SWIDTH 1000 0
DWIDTH 12 0
BBX 9 9 2 -1
BITMAP
0180
3180
3300
3300
6600
6E00
7A00
C380
C000
ENDCHAR
STARTCHAR nu
ENCODING 957
SWIDTH 1000 0
DWIDTH 12 0
BBX 9 8 2 0
BITMAP
0180
E180
3300
3300
3600
6600
6C00
7800
ENDCHAR
STARTCHAR xi
ENCODING 958
SWIDTH 1000 0
DWIDTH 12 0
BBX 8 11 2 -1
BITMAP
1F
30
3F
60
7F
C0
C0
7C
06
06
3C
ENDCHAR
STARTCHAR omicron
ENCODING 959
SWIDTH 1000 0
DWIDTH 12 0
BBX 8 8 2 0
BITMAP
1E
73
63
C3
C3
C6
CE
78
ENDCHAR
STARTCHAR pi
ENCODING 960
SWIDTH 1000 0
DWIDTH 12 0
BBX 10 8 1 0
BITMAP
00C0
7F80
1B00
1B00
3600
36C0
6CC0
C780
ENDCHAR
STARTCHAR rho
ENCODING 961
SWIDTH 1000 0
DWIDTH 12 0
BBX 9 9 2 -1
BITMAP
0F00
3980
3180
6180
6300
E700
DC00
C000
C000
ENDCHAR
STARTCHAR sigma
ENCODING 963
SWIDTH 1000 0
DWIDTH 12 0
BBX 11 9 1 0
BITMAP
0060
1FC0
7300
6300
C300
C300
C600
CE00
7800
ENDCHAR
STARTCHAR tau
ENCODING 964
SWIDTH 1000 0
DWIDTH 12 0
BBX 9 8 2 0
BITMAP
0180
FF00
1800
1800
3000
3180
3300
1E00
ENDCHAR
STARTCHAR upsilon
ENCODING 965
SWIDTH 1000 0
DWIDTH 12 0
BBX 9 8 2 0
BITMAP
3300
3180
3180
6300
6300
C600
CC00
7800
ENDCHAR
STARTCHAR phi
ENCODING 966
SWIDTH 1000 0
DWIDTH 12 0
BBX 8 11 2 -1
BITMAP
0C
0C
3E
6B
DB
DB
DB
DA
7C
30
30
ENDCHAR
STARTCHAR chi
ENCODING 967
SWIDTH 1000 0
DWIDTH 12 0
BBX 10 9 2 -1
BITMAP
3980
6D00
0E00
0C00
0C00
1C00
34C0
6D80
C700
ENDCHAR
STARTCHAR psi
ENCODING 968
SWIDTH 1000 0
DWIDTH 12 0
BBX 11 11 1 -1
BITMAP
0300
0300
0600
E660
36C0
34C0
6D80
6D80
3F00
1800
1800
ENDCHAR
STARTCHAR omega
ENCODING 969
SWIDTH 1000 0
DWIDTH 12 0
BBX 9 6 2 0
BITMAP
6180
C180
D980
D980
DB00
7600
ENDCHAR
STARTCHAR uni0401
ENCODING 1025
SWIDTH 1000 0
DWIDTH 12 0
BBX 11 11 1 0
BITMAP
7380
0000
FF80
3180
30C0
3600
3E00
3600
3060
30C0
FFC0
ENDCHAR
STARTCHAR uni0410
ENCODING 1040
SWIDTH 1000 0
DWIDTH 12 0
BBX 12 10 0 0
BITMAP
1E00
0600
0D00
0D00
1980
1980
1F80
30C0
30C0
F9F0
ENDCHAR
STARTCHAR uni0411
ENCODING 1041
SWIDTH 1000 0
DWIDTH 12 0
BBX 10 10 1 0
BITMAP
FF00
3180
30C0
3000
3F00
3180
30C0
30C0
3180
FF00
ENDCHAR
STARTCHAR uni0412
ENCODING 1042
SWIDTH 1000 0
DWIDTH 12 0
BBX 10 10 1 0
BITMAP
FF00
3180
3180
3180
3F00
3180
30C0
30C0
3180
FF00
ENDCHAR
STARTCHAR uni0413
ENCODING 1043
SWIDTH 1000 0
DWIDTH 12 0
BBX 9 10 2 0
BITMAP
FF80
3180
3180
3000
3000
3000
3000
3000
3000
F800
ENDCHAR
STARTCHAR uni0414
ENCODING 1044
SWIDTH 1000 0
DWIDTH 12 0
BBX 11 11 1 -1
BITMAP
7FC0
1980
1980
1980
1980
1980
3180
3180
7F80
60C0
C060
ENDCHAR
STARTCHAR uni0415
ENCODING 1045
SWIDTH 1000 0
DWIDTH 12 0
BBX 10 10 1 0
BITMAP
FF00
3300
3180
3600
3E00
3600
3000
30C0
3180
FF80
ENDCHAR
STARTCHAR uni0416
ENCODING 1046
SWIDTH 1000 0
DWIDTH 12 0
BBX 12 10 0 0
BITMAP
1F80
6660
D6D0
36C0
1F80
1A80
36C0
36C0
6660
EFB0
ENDCHAR
STARTCHAR uni0417
ENCODING 1047
SWIDTH 1000 0
DWIDTH 12 0
BBX 9 10 2 0
BITMAP
DE00
E300
C180
0300
0E00
0300
0180
C180
E300
DE00
ENDCHAR
STARTCHAR uni0418
ENCODING 1048
SWIDTH 1000 0
DWIDTH 12 0
BBX 11 10 1 0
BITMAP
FBE0
3380
3680
3680
3580
3580
3980
3980
3180
F3E0
ENDCHAR
STARTCHAR uni0419
ENCODING 1049
SWIDTH 1000 0
DWIDTH 12 0
BBX 11 11 1 0
BITMAP
1B00
0E00
F1E0
3380
3380
3680
3680
3580
3580
3980
FBE0
ENDCHAR
STARTCHAR uni041A
ENCODING 1050
SWIDTH 1000 0
DWIDTH 12 0
BBX 11 10 1 0
BITMAP
F9C0
3360
3300
3600
3400
3C00
3600
3300
3180
FBE0
ENDCHAR
STARTCHAR uni041B
ENCODING 1051
SWIDTH 1000 0
DWIDTH 12 0
BBX 11 10 1 0
BITMAP
3FE0
0D80
0D80
0D80
0D80
0D80
CD80
CD80
D980
73E0
ENDCHAR
STARTCHAR uni041C
ENCODING 1052
SWIDTH 1000 0
DWIDTH 12 0
BBX 12 10 0 0
BITMAP
79E0
1980
1980
3540
3540
3540
36C0
36C0
36C0
F9F0
ENDCHAR
STARTCHAR uni041D
ENCODING 1053
SWIDTH 1000 0
DWIDTH 12 0
BBX 11 10 1 0
BITMAP
FBE0
3180
3180
3180
3F80
3180
3180
3180
3180
FBE0
ENDCHAR
STARTCHAR uni041E
ENCODING 1054
SWIDTH 1000 0
DWIDTH 12 0
BBX 10 10 1 0
BITMAP
3F00
6180
C0C0
C0C0
C0C0
C0C0
C0C0
C0C0
6180
3F00
ENDCHAR
STARTCHAR uni041F
ENCODING 1055
SWIDTH 1000 0
DWIDTH 12 0
BBX 11 10 1 0
BITMAP
7FC0
3180
3180
3180
3180
3180
3180
3180
3180
FBE0
ENDCHAR
STARTCHAR uni0420
ENCODING 1056
SWIDTH 1000 0
DWIDTH 12 0
BBX 10 10 1 0
BITMAP
FF00
3180
30C0
30C0
3180
3F00
3000
3000
3000
F800
ENDCHAR
STARTCHAR uni0421
ENCODING 1057
SWIDTH 1000 0
DWIDTH 12 0
BBX 9 10 2 0
BITMAP
3E80
6380
C180
C000
C000
C000
C000
C180
6380
3E00
ENDCHAR
STARTCHAR uni0422
ENCODING 1058
SWIDTH 1000 0
DWIDTH 12 0
BBX 12 10 0 0
BITMAP
7FE0
6660
6660
C630
0600
0600
0600
0600
0600
1F80
ENDCHAR
STARTCHAR uni0423
ENCODING 1059
SWIDTH 1000 0
DWIDTH 12 0
BBX 11 11 1 -1
BITMAP
FBE0
3180
3180
1B00
1B00
1A00
1A00
0C00
CC00
D800
7000
ENDCHAR
STARTCHAR uni0424
ENCODING 1060
SWIDTH 1000 0
DWIDTH 12 0
BBX 10 10 1 0
BITMAP
3F00
0C00
3F00
6D80
CCC0
CCC0
6D80
3F00
0C00
3F00
ENDCHAR
STARTCHAR uni0425
ENCODING 1061
SWIDTH 1000 0
DWIDTH 12 0
BBX 10 10 1 0
BITMAP
FBC0
3300
3300
1A00
0C00
0C00
1A00
3300
3300
FBC0
ENDCHAR
STARTCHAR uni0426
ENCODING 1062
SWIDTH 1000 0
DWIDTH 12 0
BBX 11 11 1 -1
BITMAP
FBC0
3300
3300
3300
3300
3300
3300
3300
3300
FFC0
0060
ENDCHAR
STARTCHAR uni0427
ENCODING 1063
SWIDTH 1000 0
DWIDTH 12 0
BBX 11 10 1 0
BITMAP
FBE0
3180
3180
3180
3180
3380
1E80
0180
0180
03E0
ENDCHAR
STARTCHAR uni0428
ENCODING 1064
SWIDTH 1000 0
DWIDTH 12 0
BBX 12 10 0 0
BITMAP
F770
36C0
36C0
36C0
36C0
36C0
36C0
36C0
36C0
FFF0
ENDCHAR
STARTCHAR uni0429
ENCODING 1065
SWIDTH 1000 0
DWIDTH 12 0
BBX 12 11 0 -1
BITMAP
F770
36C0
36C0
36C0
36C0
36C0
36C0
36C0
36C0
FFF0
0010
ENDCHAR
STARTCHAR uni042A
ENCODING 1066
SWIDTH 1000 0
DWIDTH 12 0
BBX 11 10 1 0
BITMAP
FE00
D800
D800
1800
1F80
18C0
1860
1860
18C0
7F80
ENDCHAR
STARTCHAR uni042B
ENCODING 1067
SWIDTH 1000 0
DWIDTH 12 0
BBX 12 10 0 0
BITMAP
FDF0
30C0
30C0
30C0
3EC0
3340
3340
3340
3340
FEF0
ENDCHAR
STARTCHAR uni042C
ENCODING 1068
SWIDTH 1000 0
DWIDTH 12 0
BBX 10 10 1 0
BITMAP
FC00
3000
3000
3000
3F00
3180
30C0
30C0
3180
FF00
ENDCHAR
STARTCHAR uni042D
ENCODING 1069
SWIDTH 1000 0
DWIDTH 12 0
BBX 9 10 2 0
BITMAP
DE00
E300
C180
0180
1D80
3780
0180
C180
E300
DE00
ENDCHAR
STARTCHAR uni042E
ENCODING 1070
SWIDTH 1000 0
DWIDTH 12 0
BBX 12 10 0 0
BITMAP
F9C0
3360
3630
3630
3E30
3630
3630
3630
3360
F9C0
ENDCHAR
STARTCHAR uni042F
ENCODING 1071
SWIDTH 1000 0
DWIDTH 12 0
BBX 11 10 1 0
BITMAP
1FE0
3180
6180
6180
3180
1F80
0D80
1980
3180
E3E0
ENDCHAR
STARTCHAR uni0430
ENCODING 1072
SWIDTH 1000 0
DWIDTH 12 0
BBX 8 8 3 0
BITMAP
7C
C6
06
3E
E6
C6
CE
7B
ENDCHAR
STARTCHAR uni0431
ENCODING 1073
SWIDTH 1000 0
DWIDTH 12 0
BBX 7 11 3 0
BITMAP
0C
38
60
C0
D8
EC
C6
C6
C6
6C
38
ENDCHAR
STARTCHAR uni0432
ENCODING 1074
SWIDTH 1000 0
DWIDTH 12 0
BBX 8 8 2 0
BITMAP
FC
66
66
7C
66
63
66
FC
ENDCHAR
STARTCHAR uni0433
ENCODING 1075
SWIDTH 1000 0
DWIDTH 12 0
BBX 8 8 3 0
BITMAP
FC
66
63
60
60
60
60
F8
ENDCHAR
STARTCHAR uni0434
ENCODING 1076
SWIDTH 1000 0
DWIDTH 12 0
BBX 10 9 1 -1
BITMAP
7F80
1B00
1B00
1B00
1B00
3300
3F80
60C0
C0C0
ENDCHAR
STARTCHAR uni0435
ENCODING 1077
SWIDTH 1000 0
DWIDTH 12 0
BBX 8 8 2 0
BITMAP
3C
66
C3
FF
C0
C0
63
3E
ENDCHAR
STARTCHAR uni0436
ENCODING 1078
SWIDTH 1000 0
DWIDTH 12 0
BBX 10 8 1 0
BITMAP
DEC0
CCC0
7580
3F00
6D80
6D80
6D80
EEC0
ENDCHAR
STARTCHAR uni0437
ENCODING 1079
SWIDTH 1000 0
DWIDTH 12 0
BBX 8 8 2 0
BITMAP
7E
C3
03
1E
03
C3
E3
3E
ENDCHAR
STARTCHAR uni0438
ENCODING 1080
SWIDTH 1000 0
DWIDTH 12 0
BBX 9 8 2 0
BITMAP
F780
6700
6D00
6D00
6B00
6B00
7300
F780
ENDCHAR
STARTCHAR uni0439
ENCODING 1081
SWIDTH 1000 0
DWIDTH 12 0
BBX 9 11 2 0
BITMAP
3600
1C00
0000
F780
6700
6D00
6D00
6B00
6B00
7300
F780
ENDCHAR
STARTCHAR uni043A
ENCODING 1082
SWIDTH 1000 0
DWIDTH 12 0
BBX 9 8 2 0
BITMAP
F700
6D80
6C00
6800
7400
6600
6300
F780
ENDCHAR
STARTCHAR uni043B
ENCODING 1083
SWIDTH 1000 0
DWIDTH 12 0
BBX 9 8 2 0
BITMAP
7F80
1B00
1B00
1B00
1B00
DB00
DB00
7780
ENDCHAR
STARTCHAR uni043C
ENCODING 1084
SWIDTH 1000 0
DWIDTH 12 0
BBX 10 8 1 0
BITMAP
F3C0
7380
6A80
6A80
6A80
6D80
6D80
F3C0
ENDCHAR
STARTCHAR uni043D
ENCODING 1085
SWIDTH 1000 0
DWIDTH 12 0
BBX 9 8 2 0
BITMAP
F780
6300
6300
7F00
6300
6300
6300
F780
ENDCHAR
STARTCHAR uni043E
ENCODING 1086
SWIDTH 1000 0
DWIDTH 12 0
BBX 9 8 2 0
BITMAP
3E00
6300
C180
C180
C180
C180
6300
3E00
ENDCHAR
STARTCHAR uni043F
ENCODING 1087
SWIDTH 1000 0
DWIDTH 12 0
BBX 9 8 2 0
BITMAP
FF80
6300
6300
6300
6300
6300
6300
F780
ENDCHAR
STARTCHAR uni0440
ENCODING 1088
SWIDTH 1000 0
DWIDTH 12 0
BBX 9 9 2 -1
BITMAP
EE00
7300
6180
6180
6180
7300
6E00
6000
F000
ENDCHAR
STARTCHAR uni0441
ENCODING 1089
SWIDTH 1000 0
DWIDTH 12 0
BBX 8 8 2 0
BITMAP
3E
63
C3
C0
C0
C0
63
3E
ENDCHAR
STARTCHAR uni0442
ENCODING 1090
SWIDTH 1000 0
DWIDTH 12 0
BBX 10 8 1 0
BITMAP
7F80
6D80
CCC0
0C00
0C00
0C00
0C00
1E00
ENDCHAR
STARTCHAR uni0443
ENCODING 1091
SWIDTH 1000 0
DWIDTH 12 0
BBX 8 9 3 -1
BITMAP
F7
66
66
34
34
18
D8
D8
70
ENDCHAR
STARTCHAR uni0444
ENCODING 1092
SWIDTH 1000 0
DWIDTH 12 0
BBX 10 10 1 0
BITMAP
1C00
0C00
7580
DEC0
CCC0
CCC0
DEC0
7580
0C00
1E00
ENDCHAR
STARTCHAR uni0445
ENCODING 1093
SWIDTH 1000 0
DWIDTH 12 0
BBX 8 8 2 0
BITMAP
F7
66
34
18
18
34
66
F7
ENDCHAR
STARTCHAR uni0446
ENCODING 1094
SWIDTH 1000 0
DWIDTH 12 0
BBX 9 9 2 -1
BITMAP
F700
6600
6600
6600
6600
6600
6600
FF00
0180
ENDCHAR
STARTCHAR uni0447
ENCODING 1095
SWIDTH 1000 0
DWIDTH 12 0
BBX 8 8 2 0
BITMAP
F7
66
66
66
6E
3A
06
0F
ENDCHAR
STARTCHAR uni0448
ENCODING 1096
SWIDTH 1000 0
DWIDTH 12 0
BBX 10 8 1 0
BITMAP
EEC0
6D80
6D80
6D80
6D80
6D80
6D80
FFC0
ENDCHAR
STARTCHAR uni0449
ENCODING 1097
SWIDTH 1000 0
DWIDTH 12 0
BBX 11 9 1 -1
BITMAP
EEC0
6D80
6D80
6D80
6D80
6D80
6D80
FFC0
0060
ENDCHAR
STARTCHAR uni044A
ENCODING 1098
SWIDTH 1000 0
DWIDTH 12 0
BBX 9 8 2 0
BITMAP
7C00
D800
D800
1F00
1980
1980
1980
7F00
ENDCHAR
STARTCHAR uni044B
ENCODING 1099
SWIDTH 1000 0
DWIDTH 12 0
BBX 10 8 1 0
BITMAP
F3C0
6180
6180
7D80
6680
6680
6680
FDC0
ENDCHAR
STARTCHAR uni044C
ENCODING 1100
SWIDTH 1000 0
DWIDTH 12 0
BBX 7 8 3 0
BITMAP
F0
60
60
7C
66
66
66
FC
ENDCHAR
STARTCHAR uni044D
ENCODING 1101
SWIDTH 1000 0
DWIDTH 12 0
BBX 8 8 2 0
BITMAP
7C
C6
03
3B
6F
03
C6
7C
ENDCHAR
STARTCHAR uni044E
ENCODING 1102
SWIDTH 1000 0
DWIDTH 12 0
BBX 9 8 2 0
BITMAP
F700
6980
6980
7980
6980
6980
6980
F700
ENDCHAR
STARTCHAR uni044F
ENCODING 1103
SWIDTH 1000 0
DWIDTH 12 0
BBX 8 8 2 0
BITMAP
7F
C6
C6
7E
1A
36
36
EF
ENDCHAR
STARTCHAR uni0451
ENCODING 1105
SWIDTH 1000 0
DWIDTH 12 0
BBX 8 11 2 0
BITMAP
E7
00
00
3C
66
C3
FF
C0
C0
63
3E
ENDCHAR
STARTCHAR uni2010
ENCODING 8208
SWIDTH 1000 0
DWIDTH 12 0
BBX 4 1 4 4
BITMAP
F0
ENDCHAR
STARTCHAR uni2015
ENCODING 8213
SWIDTH 1000 0
DWIDTH 12 0
BBX 12 1 0 4
BITMAP
FFF0
ENDCHAR
STARTCHAR quoteleft
ENCODING 8216
SWIDTH 1000 0
DWIDTH 12 0
BBX 4 3 7 8
BITMAP
70
E0
E0
ENDCHAR
STARTCHAR quoteright
ENCODING 8217
SWIDTH 1000 0
DWIDTH 12 0
BBX 4 3 1 8
BITMAP
70
70
E0
ENDCHAR
STARTCHAR quotedblleft
ENCODING 8220
SWIDTH 1000 0
DWIDTH 12 0
BBX 7 3 4 8
BITMAP
76
EC
EC
ENDCHAR
STARTCHAR quotedblright
ENCODING 8221
SWIDTH 1000 0
DWIDTH 12 0
BBX 7 3 1 8
BITMAP
76
76
EC
ENDCHAR
STARTCHAR dagger
ENCODING 8224
SWIDTH 1000 0
DWIDTH 12 0
BBX 6 12 3 -1
BITMAP
30
30
FC
30
30
78
78
78
30
30
30
30
ENDCHAR
STARTCHAR daggerdbl
ENCODING 8225
SWIDTH 1000 0
DWIDTH 12 0
BBX 6 12 3 -1
BITMAP
30
30
FC
30
78
30
30
78
30
FC
30
30
ENDCHAR
STARTCHAR twodotenleader
ENCODING 8229
SWIDTH 1000 0
DWIDTH 12 0
BBX 8 2 2 3
BITMAP
E7
E7
ENDCHAR
STARTCHAR ellipsis
ENCODING 8230
SWIDTH 1000 0
DWIDTH 12 0
BBX 11 2 1 3
BITMAP
EEE0
EEE0
ENDCHAR
STARTCHAR perthousand
ENCODING 8240
SWIDTH 1000 0
DWIDTH 12 0
BBX 12 10 0 0
BITMAP
7300
DB00
DA00
DA00
7400
0F60
1DB0
1DB0
35B0
3760
ENDCHAR
STARTCHAR minute
ENCODING 8242
SWIDTH 1000 0
DWIDTH 12 0
BBX 4 3 1 7
BITMAP
30
60
C0
ENDCHAR
STARTCHAR second
ENCODING 8243
SWIDTH 1000 0
DWIDTH 12 0
BBX 7 3 1 7
BITMAP
36
6C
D8
ENDCHAR
STARTCHAR uni203B
ENCODING 8251
SWIDTH 1000 0
DWIDTH 12 0
BBX 12 11 0 -1
BITMAP
0600
6F60
36C0
1980
6D60
F6F0
6D60
1980
36C0
6F60
0600
ENDCHAR
STARTCHAR uni203E
ENCODING 8254
SWIDTH 500 0
DWIDTH 6 0
BBX 5 1 0 8
BITMAP
F8
ENDCHAR
STARTCHAR uni2103
ENCODING 8451
SWIDTH 1000 0
DWIDTH 12 0
BBX 10 11 1 0
BITMAP
7000
D800
D800
7780
0CC0
1800
1800
1800
1800
0CC0
0780
ENDCHAR
STARTCHAR uni2116
ENCODING 8470
SWIDTH 1000 0
DWIDTH 12 0
BBX 12 9 0 0
BITMAP
CC00
EC00
EC00
D5C0
D560
DD60
DD60
CD60
CDD0
ENDCHAR
STARTCHAR uni2121
ENCODING 8481
SWIDTH 1000 0
DWIDTH 12 0
BBX 12 9 0 0
BITMAP
FCC0
30C0
3740
34C0
34C0
3740
34C0
34C0
3770
ENDCHAR
STARTCHAR uni212B
ENCODING 8491
SWIDTH 1000 0
DWIDTH 12 0
BBX 8 11 2 0
BITMAP
1C
36
36
1C
18
34
34
66
7E
C3
C3
ENDCHAR
STARTCHAR uni2160
ENCODING 8544
SWIDTH 1000 0
DWIDTH 12 0
BBX 6 10 3 0
BITMAP
FC
30
30
30
30
30
30
30
30
FC
ENDCHAR
STARTCHAR uni2161
ENCODING 8545
SWIDTH 1000 0
DWIDTH 12 0
BBX 7 10 3 0
BITMAP
FE
6C
6C
6C
6C
6C
6C
6C
6C
FE
ENDCHAR
STARTCHAR uni2162
ENCODING 8546
SWIDTH 1000 0
DWIDTH 12 0
BBX 10 10 1 0
BITMAP
FFC0
6D80
6D80
6D80
6D80
6D80
6D80
6D80
6D80
FFC0
ENDCHAR
STARTCHAR uni2163
ENCODING 8547
SWIDTH 1000 0
DWIDTH 12 0
BBX 10 10 1 0
BITMAP
FDC0
6980
6980
6980
6D00
6D00
6D00
6600
6600
F600
ENDCHAR
STARTCHAR uni2164
ENCODING 8548
SWIDTH 1000 0
DWIDTH 12 0
BBX 10 10 1 0
BITMAP
F3C0
6180
6180
3300
3300
3300
1A00
1A00
0C00
0C00
ENDCHAR
STARTCHAR uni2165
ENCODING 8549
SWIDTH 1000 0
DWIDTH 12 0
BBX 10 10 1 0
BITMAP
F7C0
6680
6680
6680
3580
3580
3580
1980
1980
1BC0
ENDCHAR
STARTCHAR uni2166
ENCODING 8550
SWIDTH 1000 0
DWIDTH 12 0
BBX 12 10 0 0
BITMAP
F7F0
66A0
66A0
66A0
35A0
35A0
35A0
19A0
19A0
1BF0
ENDCHAR
STARTCHAR uni2167
ENCODING 8551
SWIDTH 1000 0
DWIDTH 12 0
BBX 12 10 0 0
BITMAP
EFF0
6AA0
6AA0
6AA0
6AA0
6AA0
36A0
36A0
36A0
37F0
ENDCHAR
STARTCHAR uni2168
ENCODING 8552
SWIDTH 1000 0
DWIDTH 12 0
BBX 10 10 1 0
BITMAP
FDC0
6980
6D00
6D00
6600
6600
6D00
6D00
6980
FDC0
ENDCHAR
STARTCHAR uni2169
ENCODING 8553
SWIDTH 1000 0
DWIDTH 12 0
BBX 10 10 1 0
BITMAP
F3C0
6180
3300
1A00
0C00
0C00
1A00
3300
6180
F3C0
ENDCHAR
STARTCHAR arrowleft
ENCODING 8592
SWIDTH 1000 0
DWIDTH 12 0
BBX 12 9 0 0
BITMAP
0C00
1800
3000
6000
FFF0
6000
3000
1800
0C00
ENDCHAR
STARTCHAR arrowup
ENCODING 8593
SWIDTH 1000 0
DWIDTH 12 0
BBX 10 11 1 -1
BITMAP
0C00
1E00
3500
6D80
CCC0
0C00
0C00
0C00
0C00
0C00
0C00
ENDCHAR
STARTCHAR arrowright
ENCODING 8594
SWIDTH 1000 0
DWIDTH 12 0
BBX 12 9 0 0
BITMAP
0300
0180
00C0
0060
FFF0
0060
00C0
0180
0300
ENDCHAR
STARTCHAR arrowdown
ENCODING 8595
SWIDTH 1000 0
DWIDTH 12 0
BBX 10 11 1 -1
BITMAP
0C00
0C00
0C00
0C00
0C00
0C00
CCC0
6D80
3500
1E00
0C00
ENDCHAR
STARTCHAR arrowdblright
ENCODING 8658
SWIDTH 1000 0
DWIDTH 12 0
BBX 12 7 0 1
BITMAP
0180
00C0
FFE0
0030
FFE0
00C0
0180
ENDCHAR
STARTCHAR arrowdblboth
ENCODING 8660
SWIDTH 1000 0
DWIDTH 12 0
BBX 12 7 0 1
BITMAP
1980
30C0
7FE0
C030
7FE0
30C0
1980
ENDCHAR
STARTCHAR universal
ENCODING 8704
SWIDTH 1000 0
DWIDTH 12 0
BBX 10 10 1 0
BITMAP
C0C0
C0C0
6180
7F80
3300
3300
1A00
1A00
0C00
0C00
ENDCHAR
STARTCHAR partialdiff
ENCODING 8706
SWIDTH 1000 0
DWIDTH 12 0
BBX 8 9 2 0
BITMAP
1E
33
03
03
3D
66
C6
CC
78
ENDCHAR
STARTCHAR existential
ENCODING 8707
SWIDTH 1000 0
DWIDTH 12 0
BBX 8 10 2 0
BITMAP
FF
03
03
03
FF
03
03
03
03
FF
ENDCHAR
STARTCHAR gradient
ENCODING 8711
SWIDTH 1000 0
DWIDTH 12 0
BBX 10 9 1 0
BITMAP
FFC0
FFC0
7180
7180
3B00
3B00
1A00
1E00
0C00
ENDCHAR
STARTCHAR element
ENCODING 8712
SWIDTH 1000 0
DWIDTH 12 0
BBX 10 7 1 1
BITMAP
3FC0
6000
C000
FFC0
C000
6000
3FC0
ENDCHAR
STARTCHAR suchthat
ENCODING 8715
SWIDTH 1000 0
DWIDTH 12 0
BBX 10 7 1 1
BITMAP
FF00
0180
00C0
FFC0
00C0
0180
FF00
ENDCHAR
STARTCHAR summation
ENCODING 8721
SWIDTH 1000 0
DWIDTH 12 0
BBX 10 9 1 0
BITMAP
FFC0
6000
3000
1800
0C00
1800
3000
6000
FFC0
ENDCHAR
STARTCHAR radical
ENCODING 8730
SWIDTH 1000 0
DWIDTH 12 0
BBX 12 11 0 0
BITMAP
03F0
0300
0300
0600
0600
6600
6C00
D400
D400
1800
1800
ENDCHAR
STARTCHAR proportional
ENCODING 8733
SWIDTH 1000 0
DWIDTH 12 0
BBX 11 6 0 2
BITMAP
39C0
6D60
C600
C600
6D60
39C0
ENDCHAR
STARTCHAR infinity
ENCODING 8734
SWIDTH 1000 0
DWIDTH 12 0
BBX 12 6 0 1
BITMAP
39C0
6D60
C630
C630
6D60
39C0
ENDCHAR
STARTCHAR orthogonal
ENCODING 8735
SWIDTH 1000 0
DWIDTH 12 0
BBX 9 8 2 1
BITMAP
C000
C000
C000
C000
C000
C000
C000
FF80
ENDCHAR
STARTCHAR angle
ENCODING 8736
SWIDTH 1000 0
DWIDTH 12 0
BBX 10 8 1 1
BITMAP
0180
0300
0600
0C00
1800
3000
6000
FFC0
ENDCHAR
STARTCHAR uni2225
ENCODING 8741
SWIDTH 1000 0
DWIDTH 12 0
BBX 4 13 4 -2
BITMAP
D0
D0
D0
D0
D0
D0
D0
D0
D0
D0
D0
D0
D0
ENDCHAR
STARTCHAR logicaland
ENCODING 8743
SWIDTH 1000 0
DWIDTH 12 0
BBX 10 10 1 0
BITMAP
0C00
0C00
1A00
1A00
3300
3300
6180
6180
C0C0
C0C0
ENDCHAR
STARTCHAR logicalor
ENCODING 8744
SWIDTH 1000 0
DWIDTH 12 0
BBX 10 10 1 0
BITMAP
C0C0
C0C0
6180
6180
3300
3300
1A00
1A00
0C00
0C00
ENDCHAR
STARTCHAR intersection
ENCODING 8745
SWIDTH 1000 0
DWIDTH 12 0
BBX 8 9 2 0
BITMAP
3C
66
C3
C3
C3
C3
C3
C3
C3
ENDCHAR
STARTCHAR union
ENCODING 8746
SWIDTH 1000 0
DWIDTH 12 0
BBX 8 9 2 0
BITMAP
C3
C3
C3
C3
C3
C3
C3
66
3C
ENDCHAR
STARTCHAR integral
ENCODING 8747
SWIDTH 1000 0
DWIDTH 12 0
BBX 4 12 4 -1
BITMAP
70
D0
C0
C0
C0
60
60
30
30
30
D0
E0
ENDCHAR
STARTCHAR uni222C
ENCODING 8748
SWIDTH 1000 0
DWIDTH 12 0
BBX 8 12 2 -1
BITMAP
77
D5
CC
CC
CC
66
66
33
33
33
D5
EE
ENDCHAR
STARTCHAR uni222E
ENCODING 8750
SWIDTH 1000 0
DWIDTH 12 0
BBX 6 12 3 -1
BITMAP
30
68
60
78
D4
D4
D4
D4
78
18
68
30
ENDCHAR
STARTCHAR therefore
ENCODING 8756
SWIDTH 1000 0
DWIDTH 12 0
BBX 10 8 1 1
BITMAP
0C00
1E00
0C00
0000
0000
6180
F3C0
6180
ENDCHAR
STARTCHAR uni2235
ENCODING 8757
SWIDTH 1000 0
DWIDTH 12 0
BBX 10 8 1 1
BITMAP
6180
F3C0
6180
0000
0000
0C00
1E00
0C00
ENDCHAR
STARTCHAR uni223D
ENCODING 8765
SWIDTH 1000 0
DWIDTH 12 0
BBX 12 6 0 2
BITMAP
31C0
6360
C630
C630
6C60
38C0
ENDCHAR
STARTCHAR uni2252
ENCODING 8786
SWIDTH 1000 0
DWIDTH 12 0
BBX 10 9 1 0
BITMAP
7000
7000
0000
FFC0
0000
FFC0
0000
0380
0380
ENDCHAR
STARTCHAR notequal
ENCODING 8800
SWIDTH 1000 0
DWIDTH 12 0
BBX 10 8 1 0
BITMAP
0180
0300
FFC0
0C00
1800
FFC0
6000
C000
ENDCHAR
STARTCHAR equivalence
ENCODING 8801
SWIDTH 1000 0
DWIDTH 12 0
BBX 10 7 1 1
BITMAP
FFC0
0000
0000
FFC0
0000
0000
FFC0
ENDCHAR
STARTCHAR uni2266
ENCODING 8806
SWIDTH 1000 0
DWIDTH 12 0
BBX 10 9 1 0
BITMAP
03C0
1E00
F000
1E00
03C0
0000
FFC0
0000
FFC0
ENDCHAR
STARTCHAR uni2267
ENCODING 8807
SWIDTH 1000 0
DWIDTH 12 0
BBX 10 9 1 0
BITMAP
F000
1E00
03C0
1E00
F000
0000
FFC0
0000
FFC0
ENDCHAR
STARTCHAR uni226A
ENCODING 8810
SWIDTH 1000 0
DWIDTH 12 0
BBX 10 9 1 0
BITMAP
0CC0
1980
3300
6600
CC00
6600
3300
1980
0CC0
ENDCHAR
STARTCHAR uni226B
ENCODING 8811
SWIDTH 1000 0
DWIDTH 12 0
BBX 10 9 0 0
BITMAP
CC00
6600
3300
1980
0CC0
1980
3300
6600
CC00
ENDCHAR
STARTCHAR propersubset
ENCODING 8834
SWIDTH 1000 0
DWIDTH 12 0
BBX 10 7 1 1
BITMAP
3FC0
6000
C000
C000
C000
6000
3FC0
ENDCHAR
STARTCHAR propersuperset
ENCODING 8835
SWIDTH 1000 0
DWIDTH 12 0
BBX 10 7 1 1
BITMAP
FF00
0180
00C0
00C0
00C0
0180
FF00
ENDCHAR
STARTCHAR reflexsubset
ENCODING 8838
SWIDTH 1000 0
DWIDTH 12 0
BBX 10 9 1 0
BITMAP
3FC0
6000
C000
C000
6000
3FC0
0000
0000
FFC0
ENDCHAR
STARTCHAR reflexsuperset
ENCODING 8839
SWIDTH 1000 0
DWIDTH 12 0
BBX 10 9 1 0
BITMAP
FF00
0180
00C0
00C0
0180
FF00
0000
0000
FFC0
ENDCHAR
STARTCHAR perpendicular
ENCODING 8869
SWIDTH 1000 0
DWIDTH 12 0
BBX 10 8 1 1
BITMAP
0C00
0C00
0C00
0C00
0C00
0C00
0C00
FFC0
ENDCHAR
STARTCHAR uni22BF
ENCODING 8895
SWIDTH 1000 0
DWIDTH 12 0
BBX 9 8 1 1
BITMAP
0180
0380
0680
0D80
1980
3180
6180
FF80
ENDCHAR
STARTCHAR uni2312
ENCODING 8978
SWIDTH 1000 0
DWIDTH 12 0
BBX 12 3 0 8
BITMAP
1F80
70E0
C030
ENDCHAR
STARTCHAR uni2460
ENCODING 9312
SWIDTH 1000 0
DWIDTH 12 0
BBX 12 11 0 -1
BITMAP
0F00
39C0
6660
6E60
DA30
C630
C630
6660
6660
39C0
0F00
ENDCHAR
STARTCHAR uni2461
ENCODING 9313
SWIDTH 1000 0
DWIDTH 12 0
BBX 12 11 0 -1
BITMAP
0F00
39C0
6F60
69A0
C1B0
C730
CC30
6860
6FA0
39C0
0F00
ENDCHAR
STARTCHAR uni2462
ENCODING 9314
SWIDTH 1000 0
DWIDTH 12 0
BBX 12 11 0 -1
BITMAP
0F00
39C0
6F60
69A0
C1B0
C730
C1B0
69A0
6F60
39C0
0F00
ENDCHAR
STARTCHAR uni2463
ENCODING 9315
SWIDTH 1000 0
DWIDTH 12 0
BBX 12 11 0 -1
BITMAP
0F00
39C0
6760
6760
CD30
CD30
DB30
6FA0
6360
39C0
0F00
ENDCHAR
STARTCHAR uni2464
ENCODING 9316
SWIDTH 1000 0
DWIDTH 12 0
BBX 12 11 0 -1
BITMAP
0F00
39C0
6FA0
6860
DF30
C1B0
C1B0
69A0
6F60
39C0
0F00
ENDCHAR
STARTCHAR uni2465
ENCODING 9317
SWIDTH 1000 0
DWIDTH 12 0
BBX 12 11 0 -1
BITMAP
0F00
39C0
6F60
6860
DF30
D9B0
D9B0
69A0
6F60
39C0
0F00
ENDCHAR
STARTCHAR uni2466
ENCODING 9318
SWIDTH 1000 0
DWIDTH 12 0
BBX 12 11 0 -1
BITMAP
0F00
39C0
6FA0
61A0
C330
C630
C630
6C60
6C60
39C0
0F00
ENDCHAR
STARTCHAR uni2467
ENCODING 9319
SWIDTH 1000 0
DWIDTH 12 0
BBX 12 11 0 -1
BITMAP
0F00
39C0
6F60
69A0
D9B0
CF30
D9B0
69A0
6F60
39C0
0F00
ENDCHAR
STARTCHAR uni2468
ENCODING 9320
SWIDTH 1000 0
DWIDTH 12 0
BBX 12 11 0 -1
BITMAP
0F00
39C0
6F60
69A0
D9B0
D9B0
CFB0
61A0
6F60
39C0
0F00
ENDCHAR
STARTCHAR uni2469
ENCODING 9321
SWIDTH 1000 0
DWIDTH 12 0
BBX 12 11 0 -1
BITMAP
0F00
39C0
6BA0
7AE0
DAD0
DAD0
DAD0
6AE0
6BA0
39C0
0F00
ENDCHAR
STARTCHAR uni246A
ENCODING 9322
SWIDTH 1000 0
DWIDTH 12 0
BBX 12 11 0 -1
BITMAP
0F00
39C0
69A0
7BA0
D9B0
D9B0
D9B0
69A0
69A0
39C0
0F00
ENDCHAR
STARTCHAR uni246B
ENCODING 9323
SWIDTH 1000 0
DWIDTH 12 0
BBX 12 11 0 -1
BITMAP
0F00
39C0
6BA0
7AE0
D8D0
D9B0
DB30
6A60
6BE0
39C0
0F00
ENDCHAR
STARTCHAR uni246C
ENCODING 9324
SWIDTH 1000 0
DWIDTH 12 0
BBX 12 11 0 -1
BITMAP
0F00
39C0
6BA0
7AE0
D8D0
DBB0
D8D0
6AE0
6BA0
39C0
0F00
ENDCHAR
STARTCHAR uni246D
ENCODING 9325
SWIDTH 1000 0
DWIDTH 12 0
BBX 12 11 0 -1
BITMAP
0F00
39C0
6BA0
7BA0
DAB0
DAB0
DAB0
6BE0
69A0
39C0
0F00
ENDCHAR
STARTCHAR uni246E
ENCODING 9326
SWIDTH 1000 0
DWIDTH 12 0
BBX 12 11 0 -1
BITMAP
0F00
39C0
6BE0
7A60
DBB0
D8D0
D8D0
6AE0
6BA0
39C0
0F00
ENDCHAR
STARTCHAR uni246F
ENCODING 9327
SWIDTH 1000 0
DWIDTH 12 0
BBX 12 11 0 -1
BITMAP
0F00
39C0
6BA0
7A60
DBB0
DAD0
DAD0
6AE0
6BA0
39C0
0F00
ENDCHAR
STARTCHAR uni2470
ENCODING 9328
SWIDTH 1000 0
DWIDTH 12 0
BBX 12 11 0 -1
BITMAP
0F00
39C0
6BE0
78E0
D9B0
D9B0
DB30
6B60
6B60
39C0
0F00
ENDCHAR
STARTCHAR uni2471
ENCODING 9329
SWIDTH 1000 0
DWIDTH 12 0
BBX 12 11 0 -1
BITMAP
0F00
39C0
6BA0
7AE0
DAD0
DBB0
DAD0
6AE0
6BA0
39C0
0F00
ENDCHAR
STARTCHAR uni2472
ENCODING 9330
SWIDTH 1000 0
DWIDTH 12 0
BBX 12 11 0 -1
BITMAP
0F00
39C0
6BA0
7AE0
DAD0
DAD0
DBD0
68E0
6BA0
39C0
0F00
ENDCHAR
STARTCHAR uni2473
ENCODING 9331
SWIDTH 1000 0
DWIDTH 12 0
BBX 12 11 0 -1
BITMAP
0F00
39C0
6EA0
6B60
C750
CD50
DB50
6B60
6EA0
39C0
0F00
ENDCHAR
STARTCHAR SF100000
ENCODING 9472
SWIDTH 1000 0
DWIDTH 12 0
BBX 12 1 0 4
BITMAP
FFF0
ENDCHAR
STARTCHAR uni2501
ENCODING 9473
SWIDTH 1000 0
DWIDTH 12 0
BBX 12 2 0 4
BITMAP
FFF0
FFF0
ENDCHAR
STARTCHAR SF110000
ENCODING 9474
SWIDTH 1000 0
DWIDTH 12 0
BBX 2 13 5 -2
BITMAP
C0
C0
C0
C0
C0
C0
C0
C0
C0
C0
C0
C0
C0
ENDCHAR
STARTCHAR uni2503
ENCODING 9475
SWIDTH 1000 0
DWIDTH 12 0
BBX 3 13 5 -2
BITMAP
E0
E0
E0
E0
E0
E0
E0
E0
E0
E0
E0
E0
E0
ENDCHAR
STARTCHAR SF010000
ENCODING 9484
SWIDTH 1000 0
DWIDTH 12 0
BBX 7 7 5 -2
BITMAP
FE
C0
C0
C0
C0
C0
C0
ENDCHAR
STARTCHAR uni250F
ENCODING 9487
SWIDTH 1000 0
DWIDTH 12 0
BBX 7 8 5 -2
BITMAP
FE
FE
E0
E0
E0
E0
E0
E0
ENDCHAR
STARTCHAR SF030000
ENCODING 9488
SWIDTH 1000 0
DWIDTH 12 0
BBX 7 7 0 -2
BITMAP
FE
06
06
06
06
06
06
ENDCHAR
STARTCHAR uni2513
ENCODING 9491
SWIDTH 1000 0
DWIDTH 12 0
BBX 8 8 0 -2
BITMAP
FF
FF
07
07
07
07
07
07
ENDCHAR
STARTCHAR SF020000
ENCODING 9492
SWIDTH 1000 0
DWIDTH 12 0
BBX 7 7 5 4
BITMAP
C0
C0
C0
C0
C0
C0
FE
ENDCHAR
STARTCHAR uni2517
ENCODING 9495
SWIDTH 1000 0
DWIDTH 12 0
BBX 7 7 5 4
BITMAP
E0
E0
E0
E0
E0
FE
FE
ENDCHAR
STARTCHAR SF040000
ENCODING 9496
SWIDTH 1000 0
DWIDTH 12 0
BBX 7 7 0 4
BITMAP
06
06
06
06
06
06
FE
ENDCHAR
STARTCHAR uni251B
ENCODING 9499
SWIDTH 1000 0
DWIDTH 12 0
BBX 8 7 0 4
BITMAP
07
07
07
07
07
FF
FF
ENDCHAR
STARTCHAR SF080000
ENCODING 9500
SWIDTH 1000 0
DWIDTH 12 0
BBX 7 13 5 -2
BITMAP
C0
C0
C0
C0
C0
C0
FE
C0
C0
C0
C0
C0
C0
ENDCHAR
STARTCHAR uni251D
ENCODING 9501
SWIDTH 1000 0
DWIDTH 12 0
BBX 7 13 5 -2
BITMAP
C0
C0
C0
C0
C0
FE
FE
C0
C0
C0
C0
C0
C0
ENDCHAR
STARTCHAR uni2520
ENCODING 9504
SWIDTH 1000 0
DWIDTH 12 0
BBX 7 13 5 -2
BITMAP
E0
E0
E0
E0
E0
E0
FE
E0
E0
E0
E0
E0
E0
ENDCHAR
STARTCHAR uni2523
ENCODING 9507
SWIDTH 1000 0
DWIDTH 12 0
BBX 7 13 5 -2
BITMAP
E0
E0
E0
E0
E0
FE
FE
E0
E0
E0
E0
E0
E0
ENDCHAR
STARTCHAR SF090000
ENCODING 9508
SWIDTH 1000 0
DWIDTH 12 0
BBX 7 13 0 -2
BITMAP
06
06
06
06
06
06
FE
06
06
06
06
06
06
ENDCHAR
STARTCHAR uni2525
ENCODING 9509
SWIDTH 1000 0
DWIDTH 12 0
BBX 7 13 0 -2
BITMAP
06
06
06
06
06
FE
FE
06
06
06
06
06
06
ENDCHAR
STARTCHAR uni2528
ENCODING 9512
SWIDTH 1000 0
DWIDTH 12 0
BBX 8 13 0 -2
BITMAP
07
07
07
07
07
07
FF
07
07
07
07
07
07
ENDCHAR
STARTCHAR uni252B
ENCODING 9515
SWIDTH 1000 0
DWIDTH 12 0
BBX 8 13 0 -2
BITMAP
07
07
07
07
07
FF
FF
07
07
07
07
07
07
ENDCHAR
STARTCHAR SF060000
ENCODING 9516
SWIDTH 1000 0
DWIDTH 12 0
BBX 12 7 0 -2
BITMAP
FFF0
0600
0600
0600
0600
0600
0600
ENDCHAR
STARTCHAR uni252F
ENCODING 9519
SWIDTH 1000 0
DWIDTH 12 0
BBX 12 8 0 -2
BITMAP
FFF0
FFF0
0600
0600
0600
0600
0600
0600
ENDCHAR
STARTCHAR uni2530
ENCODING 9520
SWIDTH 1000 0
DWIDTH 12 0
BBX 12 7 0 -2
BITMAP
FFF0
0700
0700
0700
0700
0700
0700
ENDCHAR
STARTCHAR uni2533
ENCODING 9523
SWIDTH 1000 0
DWIDTH 12 0
BBX 12 8 0 -2
BITMAP
FFF0
FFF0
0700
0700
0700
0700
0700
0700
ENDCHAR
STARTCHAR SF070000
ENCODING 9524
SWIDTH 1000 0
DWIDTH 12 0
BBX 12 7 0 4
BITMAP
0600
0600
0600
0600
0600
0600
FFF0
ENDCHAR
STARTCHAR uni2537
ENCODING 9527
SWIDTH 1000 0
DWIDTH 12 0
BBX 12 7 0 4
BITMAP
0600
0600
0600
0600
0600
FFF0
FFF0
ENDCHAR
STARTCHAR uni2538
ENCODING 9528
SWIDTH 1000 0
DWIDTH 12 0
BBX 12 7 0 4
BITMAP
0700
0700
0700
0700
0700
0700
FFF0
ENDCHAR
STARTCHAR uni253B
ENCODING 9531
SWIDTH 1000 0
DWIDTH 12 0
BBX 12 7 0 4
BITMAP
0700
0700
0700
0700
0700
FFF0
FFF0
ENDCHAR
STARTCHAR SF050000
ENCODING 9532
SWIDTH 1000 0
DWIDTH 12 0
BBX 12 13 0 -2
BITMAP
0600
0600
0600
0600
0600
0600
FFF0
0600
0600
0600
0600
0600
0600
ENDCHAR
STARTCHAR uni253F
ENCODING 9535
SWIDTH 1000 0
DWIDTH 12 0
BBX 12 13 0 -2
BITMAP
0600
0600
0600
0600
0600
FFF0
FFF0
0600
0600
0600
0600
0600
0600
ENDCHAR
STARTCHAR uni2542
ENCODING 9538
SWIDTH 1000 0
DWIDTH 12 0
BBX 12 13 0 -2
BITMAP
0700
0700
0700
0700
0700
0700
FFF0
0700
0700
0700
0700
0700
0700
ENDCHAR
STARTCHAR uni254B
ENCODING 9547
SWIDTH 1000 0
DWIDTH 12 0
BBX 12 13 0 -2
BITMAP
0700
0700
0700
0700
0700
FFF0
FFF0
0700
0700
0700
0700
0700
0700
ENDCHAR
STARTCHAR filledbox
ENCODING 9632
SWIDTH 1000 0
DWIDTH 12 0
BBX 10 9 1 0
BITMAP
FFC0
FFC0
FFC0
FFC0
FFC0
FFC0
FFC0
FFC0
FFC0
ENDCHAR
STARTCHAR H22073
ENCODING 9633
SWIDTH 1000 0
DWIDTH 12 0
BBX 10 9 1 0
BITMAP
FFC0
C0C0
C0C0
C0C0
C0C0
C0C0
C0C0
C0C0
FFC0
ENDCHAR
STARTCHAR triagup
ENCODING 9650
SWIDTH 1000 0
DWIDTH 12 0
BBX 10 9 1 0
BITMAP
0C00
1E00
1E00
3F00
3F00
7F80
7F80
FFC0
FFC0
ENDCHAR
STARTCHAR uni25B3
ENCODING 9651
SWIDTH 1000 0
DWIDTH 12 0
BBX 10 9 1 0
BITMAP
0C00
1A00
1A00
3300
3300
6180
6180
C0C0
FFC0
ENDCHAR
STARTCHAR uni25B6
ENCODING 9654
SWIDTH 1000 0
DWIDTH 12 0
BBX 9 9 1 0
BITMAP
C000
F000
FC00
FF00
FF80
FF00
FC00
F000
C000
ENDCHAR
STARTCHAR uni25B7
ENCODING 9655
SWIDTH 1000 0
DWIDTH 12 0
BBX 9 9 1 0
BITMAP
C000
B000
8C00
8300
8080
8300
8C00
B000
C000
ENDCHAR
STARTCHAR triagdn
ENCODING 9660
SWIDTH 1000 0
DWIDTH 12 0
BBX 10 9 1 0
BITMAP
FFC0
FFC0
7F80
7F80
3F00
3F00
1E00
1E00
0C00
ENDCHAR
STARTCHAR uni25BD
ENCODING 9661
SWIDTH 1000 0
DWIDTH 12 0
BBX 10 9 1 0
BITMAP
FFC0
C0C0
6180
6180
3300
3300
1A00
1A00
0C00
ENDCHAR
STARTCHAR uni25C0
ENCODING 9664
SWIDTH 1000 0
DWIDTH 12 0
BBX 9 9 1 0
BITMAP
0180
0780
1F80
7F80
FF80
7F80
1F80
0780
0180
ENDCHAR
STARTCHAR uni25C1
ENCODING 9665
SWIDTH 1000 0
DWIDTH 12 0
BBX 9 9 1 0
BITMAP
0180
0680
1880
6080
8080
6080
1880
0680
0180
ENDCHAR
STARTCHAR uni25C6
ENCODING 9670
SWIDTH 1000 0
DWIDTH 12 0
BBX 12 11 0 -1
BITMAP
0600
0F00
1F80
3FC0
7FE0
FFF0
7FE0
3FC0
1F80
0F00
0600
ENDCHAR
STARTCHAR uni25C7
ENCODING 9671
SWIDTH 1000 0
DWIDTH 12 0
BBX 12 11 0 -1
BITMAP
0600
0D00
1980
30C0
6060
C030
6060
30C0
1980
0D00
0600
ENDCHAR
STARTCHAR circle
ENCODING 9675
SWIDTH 1000 0
DWIDTH 12 0
BBX 11 10 1 0
BITMAP
0E00
3B80
60C0
60C0
C060
C060
60C0
60C0
3B80
0E00
ENDCHAR
STARTCHAR uni25CE
ENCODING 9678
SWIDTH 1000 0
DWIDTH 12 0
BBX 11 10 1 0
BITMAP
0E00
3B80
60C0
6EC0
DB60
DB60
6EC0
60C0
3B80
0E00
ENDCHAR
STARTCHAR H18533
ENCODING 9679
SWIDTH 1000 0
DWIDTH 12 0
BBX 11 10 1 0
BITMAP
0E00
3F80
7FC0
7FC0
FFE0
FFE0
7FC0
7FC0
3F80
0E00
ENDCHAR
STARTCHAR uni25EF
ENCODING 9711
SWIDTH 1000 0
DWIDTH 12 0
BBX 12 11 0 -1
BITMAP
0F00
39C0
6060
6060
C030
C030
C030
6060
6060
39C0
0F00
ENDCHAR
STARTCHAR uni2600
ENCODING 9728
SWIDTH 1000 0
DWIDTH 12 0
BBX 7 9 2 0
BITMAP
10
82
38
7C
7C
7C
38
82
10
ENDCHAR
STARTCHAR uni2602
ENCODING 9730
SWIDTH 1000 0
DWIDTH 12 0
BBX 7 8 2 0
BITMAP
10
10
38
7C
FE
FE
FE
7C
ENDCHAR
STARTCHAR uni2605
ENCODING 9733
SWIDTH 1000 0
DWIDTH 12 0
BBX 12 11 0 0
BITMAP
0600
0600
0F00
0F00
FFF0
3FC0
1F80
1F80
3DC0
39C0
6060
ENDCHAR
STARTCHAR uni2606
ENCODING 9734
SWIDTH 1000 0
DWIDTH 12 0
BBX 12 11 0 0
BITMAP
0600
0600
0D00
0D00
FDF0
30C0
1980
1A80
3540
39C0
6060
ENDCHAR
STARTCHAR female
ENCODING 9792
SWIDTH 1000 0
DWIDTH 12 0
BBX 8 10 2 0
BITMAP
3C
66
66
66
3C
18
18
FF
18
18
ENDCHAR
STARTCHAR male
ENCODING 9794
SWIDTH 1000 0
DWIDTH 12 0
BBX 10 9 1 0
BITMAP
0FC0
01C0
0340
06C0
7CC0
CC00
CC00
CC00
7800
ENDCHAR
STARTCHAR spade
ENCODING 9824
SWIDTH 1000 0
DWIDTH 12 0
BBX 9 10 1 0
BITMAP
0800
1C00
3E00
7F00
FF80
FF80
FF80
6B00
0800
3E00
ENDCHAR
STARTCHAR uni2661
ENCODING 9825
SWIDTH 1000 0
DWIDTH 12 0
BBX 9 8 1 0
BITMAP
7700
8880
8080
8080
4100
2200
1400
0800
ENDCHAR
STARTCHAR uni2662
ENCODING 9826
SWIDTH 1000 0
DWIDTH 12 0
BBX 9 10 1 0
BITMAP
0800
1400
2200
4100
8080
8080
4100
2200
1400
0800
ENDCHAR
STARTCHAR club
ENCODING 9827
SWIDTH 1000 0
DWIDTH 12 0
BBX 9 10 1 0
BITMAP
1C00
3E00
3E00
1C00
7F00
FF80
FF80
6B00
0800
3E00
ENDCHAR
STARTCHAR uni2664
ENCODING 9828
SWIDTH 1000 0
DWIDTH 12 0
BBX 9 10 1 0
BITMAP
0800
1400
2200
4100
8080
8080
9480
7700
1400
3E00
ENDCHAR
STARTCHAR heart
ENCODING 9829
SWIDTH 1000 0
DWIDTH 12 0
BBX 9 8 1 0
BITMAP
7700
FF80
FF80
FF80
7F00
3E00
1C00
0800
ENDCHAR
STARTCHAR diamond
ENCODING 9830
SWIDTH 1000 0
DWIDTH 12 0
BBX 9 10 1 0
BITMAP
0800
1C00
3E00
7F00
FF80
FF80
7F00
3E00
1C00
0800
ENDCHAR
STARTCHAR uni2667
ENCODING 9831
SWIDTH 1000 0
DWIDTH 12 0
BBX 9 10 1 0
BITMAP
1C00
2200
2200
7700
8080
8080
9480
7700
1400
3E00
ENDCHAR
STARTCHAR uni2668
ENCODING 9832
SWIDTH 1000 0
DWIDTH 12 0
BBX 7 8 2 0
BITMAP
18
0C
0E
0E
1E
FE
7C
38
ENDCHAR
STARTCHAR musicalnote
ENCODING 9834
SWIDTH 1000 0
DWIDTH 12 0
BBX 8 10 2 0
BITMAP
18
1C
1A
1B
1B
1A
18
78
F8
F0
ENDCHAR
STARTCHAR uni266D
ENCODING 9837
SWIDTH 1000 0
DWIDTH 12 0
BBX 6 10 3 0
BITMAP
C0
C0
C0
D8
EC
CC
CC
D8
D0
E0
ENDCHAR
STARTCHAR uni266F
ENCODING 9839
SWIDTH 1000 0
DWIDTH 12 0
BBX 9 10 2 0
BITMAP
3600
3600
3780
3E00
F600
3780
3E00
F600
3600
3600
ENDCHAR
STARTCHAR uni3000
ENCODING 12288
SWIDTH 1000 0
DWIDTH 12 0
BBX 1 1 0 0
BITMAP
00
ENDCHAR
STARTCHAR uni3001
ENCODING 12289
SWIDTH 1000 0
DWIDTH 12 0
BBX 3 2 1 -1
BITMAP
C0
60
ENDCHAR
STARTCHAR uni3002
ENCODING 12290
SWIDTH 1000 0
DWIDTH 12 0
BBX 5 4 1 -1
BITMAP
70
D8
D8
70
ENDCHAR
STARTCHAR uni3003
ENCODING 12291
SWIDTH 1000 0
DWIDTH 12 0
BBX 6 6 3 2
BITMAP
6C
6C
6C
D8
D8
D8
ENDCHAR
STARTCHAR uni3005
ENCODING 12293
SWIDTH 1000 0
DWIDTH 12 0
BBX 8 9 2 0
BITMAP
60
60
7F
C3
C3
06
34
18
0C
ENDCHAR
STARTCHAR uni3006
ENCODING 12294
SWIDTH 1000 0
DWIDTH 12 0
BBX 10 9 1 0
BITMAP
00C0
0180
3D00
6600
CD00
D980
D0C0
E000
C000
ENDCHAR
STARTCHAR uni3007
ENCODING 12295
SWIDTH 1000 0
DWIDTH 12 0
BBX 12 9 0 0
BITMAP
0F00
39C0
6060
C030
C030
C030
6060
39C0
0F00
ENDCHAR
STARTCHAR uni3008
ENCODING 12296
SWIDTH 1000 0
DWIDTH 12 0
BBX 4 11 7 -1
BITMAP
30
30
60
60
C0
C0
C0
60
60
30
30
ENDCHAR
STARTCHAR uni3009
ENCODING 12297
SWIDTH 1000 0
DWIDTH 12 0
BBX 4 11 1 -1
BITMAP
C0
C0
60
60
30
30
30
60
60
C0
C0
ENDCHAR
STARTCHAR uni300A
ENCODING 12298
SWIDTH 1000 0
DWIDTH 12 0
BBX 7 11 5 -1
BITMAP
36
36
6C
6C
D8
D8
D8
6C
6C
36
36
ENDCHAR
STARTCHAR uni300B
ENCODING 12299
SWIDTH 1000 0
DWIDTH 12 0
BBX 7 11 0 -1
BITMAP
D8
D8
6C
6C
36
36
36
6C
6C
D8
D8
ENDCHAR
STARTCHAR uni300C
ENCODING 12300
SWIDTH 1000 0
DWIDTH 12 0
BBX 5 8 6 3
BITMAP
F8
C0
C0
C0
C0
C0
C0
C0
ENDCHAR
STARTCHAR uni300D
ENCODING 12301
SWIDTH 1000 0
DWIDTH 12 0
BBX 5 8 1 -2
BITMAP
18
18
18
18
18
18
18
F8
ENDCHAR
STARTCHAR uni300E
ENCODING 12302
SWIDTH 1000 0
DWIDTH 12 0
BBX 7 9 4 2
BITMAP
FE
C6
DE
D0
D0
D0
D0
D0
F0
ENDCHAR
STARTCHAR uni300F
ENCODING 12303
SWIDTH 1000 0
DWIDTH 12 0
BBX 7 9 1 -2
BITMAP
1E
1A
1A
1A
1A
1A
FA
C6
FE
ENDCHAR
STARTCHAR uni3010
ENCODING 12304
SWIDTH 1000 0
DWIDTH 12 0
BBX 5 13 6 -2
BITMAP
F8
F0
E0
E0
C0
C0
C0
C0
C0
E0
E0
F0
F8
ENDCHAR
STARTCHAR uni3011
ENCODING 12305
SWIDTH 1000 0
DWIDTH 12 0
BBX 5 13 1 -2
BITMAP
F8
78
38
38
18
18
18
18
18
38
38
78
F8
ENDCHAR
STARTCHAR uni3012
ENCODING 12306
SWIDTH 1000 0
DWIDTH 12 0
BBX 10 10 1 0
BITMAP
FFC0
0000
0000
0000
FFC0
0C00
0C00
0C00
0C00
0C00
ENDCHAR
STARTCHAR uni3013
ENCODING 12307
SWIDTH 1000 0
DWIDTH 12 0
BBX 10 7 1 1
BITMAP
FFC0
FFC0
FFC0
0000
FFC0
FFC0
FFC0
ENDCHAR
STARTCHAR uni3014
ENCODING 12308
SWIDTH 1000 0
DWIDTH 12 0
BBX 4 13 7 -2
BITMAP
30
60
C0
C0
C0
C0
C0
C0
C0
C0
C0
60
30
ENDCHAR
STARTCHAR uni3015
ENCODING 12309
SWIDTH 1000 0
DWIDTH 12 0
BBX 4 13 1 -2
BITMAP
C0
60
30
30
30
30
30
30
30
30
30
60
C0
ENDCHAR
STARTCHAR uni301D
ENCODING 12317
SWIDTH 1000 0
DWIDTH 12 0
BBX 5 4 6 7
BITMAP
68
68
D0
D0
ENDCHAR
STARTCHAR uni301F
ENCODING 12319
SWIDTH 1000 0
DWIDTH 12 0
BBX 5 4 1 0
BITMAP
68
68
D0
D0
ENDCHAR
STARTCHAR uni3020
ENCODING 12320
SWIDTH 1000 0
DWIDTH 12 0
BBX 7 9 2 0
BITMAP
7C
FE
FE
FE
92
92
EE
7C
54
ENDCHAR
STARTCHAR uni303C
ENCODING 12348
SWIDTH 1000 0
DWIDTH 12 0
BBX 5 4 7 -2
BITMAP
70
D8
D8
70
ENDCHAR
STARTCHAR uni3041
ENCODING 12353
SWIDTH 1000 0
DWIDTH 12 0
BBX 8 8 2 -1
BITMAP
18
FF
30
3E
75
D5
DB
76
ENDCHAR
STARTCHAR uni3042
ENCODING 12354
SWIDTH 1000 0
DWIDTH 12 0
BBX 11 11 1 -1
BITMAP
0C00
0DC0
FF00
1800
1F80
3B40
6B60
DA60
DC60
74C0
0380
ENDCHAR
STARTCHAR uni3043
ENCODING 12355
SWIDTH 1000 0
DWIDTH 12 0
BBX 8 6 2 0
BITMAP
C6
C6
C3
C3
DB
70
ENDCHAR
STARTCHAR uni3044
ENCODING 12356
SWIDTH 1000 0
DWIDTH 12 0
BBX 11 8 1 0
BITMAP
6000
6180
C0C0
C0C0
C060
C660
6C00
3800
ENDCHAR
STARTCHAR uni3045
ENCODING 12357
SWIDTH 1000 0
DWIDTH 12 0
BBX 7 8 3 -1
BITMAP
70
1C
00
3C
E6
06
0C
38
ENDCHAR
STARTCHAR uni3046
ENCODING 12358
SWIDTH 1000 0
DWIDTH 12 0
BBX 8 11 2 -1
BITMAP
78
0E
00
3C
E6
03
03
03
06
1C
70
ENDCHAR
STARTCHAR uni3047
ENCODING 12359
SWIDTH 1000 0
DWIDTH 12 0
BBX 7 8 3 -1
BITMAP
70
1C
00
FC
18
30
68
CE
ENDCHAR
STARTCHAR uni3048
ENCODING 12360
SWIDTH 1000 0
DWIDTH 12 0
BBX 10 11 1 -1
BITMAP
1C00
0700
0000
7F00
0300
0600
0C00
1C00
3600
6600
C3C0
ENDCHAR
STARTCHAR uni3049
ENCODING 12361
SWIDTH 1000 0
DWIDTH 12 0
BBX 9 8 2 -1
BITMAP
3000
3300
FD80
3000
7E00
D300
D300
EE00
ENDCHAR
STARTCHAR uni304A
ENCODING 12362
SWIDTH 1000 0
DWIDTH 12 0
BBX 11 11 1 -1
BITMAP
1800
19C0
FE60
1800
1800
1F80
38C0
6860
D860
D8C0
7380
ENDCHAR
STARTCHAR uni304B
ENCODING 12363
SWIDTH 1000 0
DWIDTH 12 0
BBX 11 11 1 -1
BITMAP
3000
3180
3180
FCC0
36C0
3660
6660
6600
C600
C600
3C00
ENDCHAR
STARTCHAR uni304C
ENCODING 12364
SWIDTH 1000 0
DWIDTH 12 0
BBX 11 11 1 -1
BITMAP
30C0
3360
3180
FC00
36C0
36C0
6660
6660
C600
C600
3C00
ENDCHAR
STARTCHAR uni304D
ENCODING 12365
SWIDTH 1000 0
DWIDTH 12 0
BBX 10 11 1 -1
BITMAP
0C00
0D80
FE00
07C0
FE00
0300
3E80
6380
6000
3000
1F00
ENDCHAR
STARTCHAR uni304E
ENCODING 12366
SWIDTH 1000 0
DWIDTH 12 0
BBX 11 12 1 -1
BITMAP
00C0
0D60
0D80
FE00
07C0
FE00
0300
3E80
6380
6000
3000
1F00
ENDCHAR
STARTCHAR uni304F
ENCODING 12367
SWIDTH 1000 0
DWIDTH 12 0
BBX 7 10 3 -1
BITMAP
0C
18
30
60
C0
C0
70
18
0C
06
ENDCHAR
STARTCHAR uni3050
ENCODING 12368
SWIDTH 1000 0
DWIDTH 12 0
BBX 10 10 2 -1
BITMAP
0C00
1980
36C0
6300
C000
C000
7000
1800
0C00
0600
ENDCHAR
STARTCHAR uni3051
ENCODING 12369
SWIDTH 1000 0
DWIDTH 12 0
BBX 11 11 1 -1
BITMAP
0180
6180
6180
DFE0
C180
C180
C180
C180
C180
6300
6E00
ENDCHAR
STARTCHAR uni3052
ENCODING 12370
SWIDTH 1000 0
DWIDTH 12 0
BBX 12 11 0 -1
BITMAP
01A0
61B0
61C0
DFA0
C180
C180
C180
C180
C180
6300
6E00
ENDCHAR
STARTCHAR uni3053
ENCODING 12371
SWIDTH 1000 0
DWIDTH 12 0
BBX 9 9 2 0
BITMAP
7F00
0000
0000
0000
0000
6000
C000
C180
7F00
ENDCHAR
STARTCHAR uni3054
ENCODING 12372
SWIDTH 1000 0
DWIDTH 12 0
BBX 11 9 1 0
BITMAP
7F40
0060
0180
00C0
0000
6000
C000
C180
7F00
ENDCHAR
STARTCHAR uni3055
ENCODING 12373
SWIDTH 1000 0
DWIDTH 12 0
BBX 10 11 1 -1
BITMAP
0600
0600
06C0
FF00
0300
0300
3E80
6380
6000
3000
1F00
ENDCHAR
STARTCHAR uni3056
ENCODING 12374
SWIDTH 1000 0
DWIDTH 12 0
BBX 12 11 0 -1
BITMAP
0C60
0DB0
0F40
FC00
0600
0300
3E80
6380
6000
3000
1F00
ENDCHAR
STARTCHAR uni3057
ENCODING 12375
SWIDTH 1000 0
DWIDTH 12 0
BBX 8 10 3 -1
BITMAP
60
60
60
C0
C0
C0
C3
C3
66
3C
ENDCHAR
STARTCHAR uni3058
ENCODING 12376
SWIDTH 1000 0
DWIDTH 12 0
BBX 9 10 2 -1
BITMAP
6300
6D80
6600
C000
C000
C000
C300
C300
6600
3C00
ENDCHAR
STARTCHAR uni3059
ENCODING 12377
SWIDTH 1000 0
DWIDTH 12 0
BBX 12 11 0 -1
BITMAP
0300
0300
FFF0
0300
0F00
1B00
1B00
0F00
0300
0600
1C00
ENDCHAR
STARTCHAR uni305A
ENCODING 12378
SWIDTH 1000 0
DWIDTH 12 0
BBX 12 11 0 -1
BITMAP
0300
0300
FFF0
0300
0F60
1B30
1B40
0F60
0300
0600
1C00
ENDCHAR
STARTCHAR uni305B
ENCODING 12379
SWIDTH 1000 0
DWIDTH 12 0
BBX 11 11 1 -1
BITMAP
0180
3180
3180
37E0
FD80
3180
3180
3780
3000
3000
1FC0
ENDCHAR
STARTCHAR uni305C
ENCODING 12380
SWIDTH 1000 0
DWIDTH 12 0
BBX 12 11 0 -1
BITMAP
0180
31A0
31B0
37C0
FDA0
3180
3180
3780
3000
3000
1FC0
ENDCHAR
STARTCHAR uni305D
ENCODING 12381
SWIDTH 1000 0
DWIDTH 12 0
BBX 11 10 1 -1
BITMAP
3F80
0300
0600
0C00
FFE0
0C00
1800
1800
1800
0F80
ENDCHAR
STARTCHAR uni305E
ENCODING 12382
SWIDTH 1000 0
DWIDTH 12 0
BBX 12 10 0 -1
BITMAP
3F60
03B0
06C0
0C00
FFE0
0C00
1800
1800
1800
0F80
ENDCHAR
STARTCHAR uni305F
ENCODING 12383
SWIDTH 1000 0
DWIDTH 12 0
BBX 11 11 1 -1
BITMAP
3000
3000
FF80
3000
37C0
3000
6600
6C00
6C00
C7E0
C000
ENDCHAR
STARTCHAR uni3060
ENCODING 12384
SWIDTH 1000 0
DWIDTH 12 0
BBX 11 12 1 -1
BITMAP
00C0
3360
3180
FF00
3000
37C0
3000
6600
6C00
6C00
C7E0
C000
ENDCHAR
STARTCHAR uni3061
ENCODING 12385
SWIDTH 1000 0
DWIDTH 12 0
BBX 11 11 1 -1
BITMAP
0C00
0C00
FFE0
1800
1800
3700
3980
00C0
00C0
0180
1F00
ENDCHAR
STARTCHAR uni3062
ENCODING 12386
SWIDTH 1000 0
DWIDTH 12 0
BBX 12 12 0 -1
BITMAP
0060
0DB0
0CC0
FF80
1800
1800
3700
3980
00C0
00C0
0180
1F00
ENDCHAR
STARTCHAR uni3063
ENCODING 12387
SWIDTH 1000 0
DWIDTH 12 0
BBX 8 6 2 -1
BITMAP
3C
E6
03
03
06
3C
ENDCHAR
STARTCHAR uni3064
ENCODING 12388
SWIDTH 1000 0
DWIDTH 12 0
BBX 10 8 1 0
BITMAP
1F00
F180
00C0
00C0
00C0
0180
0700
3C00
ENDCHAR
STARTCHAR uni3065
ENCODING 12389
SWIDTH 1000 0
DWIDTH 12 0
BBX 11 11 1 0
BITMAP
00C0
0360
0180
1F00
F180
00C0
00C0
00C0
0180
0700
3C00
ENDCHAR
STARTCHAR uni3066
ENCODING 12390
SWIDTH 1000 0
DWIDTH 12 0
BBX 11 9 0 -1
BITMAP
0FE0
FB00
0600
0C00
0C00
0C00
0C00
0600
03C0
ENDCHAR
STARTCHAR uni3067
ENCODING 12391
SWIDTH 1000 0
DWIDTH 12 0
BBX 12 9 0 -1
BITMAP
0FE0
FB00
0660
0DB0
0CC0
0C00
0C00
0600
03C0
ENDCHAR
STARTCHAR uni3068
ENCODING 12392
SWIDTH 1000 0
DWIDTH 12 0
BBX 8 11 2 -1
BITMAP
30
30
30
18
1F
38
60
C0
C0
60
3F
ENDCHAR
STARTCHAR uni3069
ENCODING 12393
SWIDTH 1000 0
DWIDTH 12 0
BBX 10 12 1 -1
BITMAP
0180
36C0
3300
3000
1800
1F00
3800
6000
C000
C000
6000
3F00
ENDCHAR
STARTCHAR uni306A
ENCODING 12394
SWIDTH 1000 0
DWIDTH 12 0
BBX 12 11 0 -1
BITMAP
0C00
0CE0
FF30
1800
18C0
30C0
30C0
67C0
6CE0
0CD0
0780
ENDCHAR
STARTCHAR uni306B
ENCODING 12395
SWIDTH 1000 0
DWIDTH 12 0
BBX 11 10 1 -1
BITMAP
6000
67C0
C000
C000
C000
C600
CC00
CC00
67E0
6000
ENDCHAR
STARTCHAR uni306C
ENCODING 12396
SWIDTH 1000 0
DWIDTH 12 0
BBX 11 11 1 -1
BITMAP
0600
0600
6600
6F80
76C0
6660
D460
D5A0
DAE0
76C0
03A0
ENDCHAR
STARTCHAR uni306D
ENCODING 12397
SWIDTH 1000 0
DWIDTH 12 0
BBX 11 11 1 -1
BITMAP
3000
3000
3000
F780
34C0
3860
3060
73A0
D6E0
36C0
33A0
ENDCHAR
STARTCHAR uni306E
ENCODING 12398
SWIDTH 1000 0
DWIDTH 12 0
BBX 11 8 1 0
BITMAP
1F80
34C0
6C60
CC60
D860
D860
70C0
0380
ENDCHAR
STARTCHAR uni306F
ENCODING 12399
SWIDTH 1000 0
DWIDTH 12 0
BBX 11 11 1 -1
BITMAP
0180
6180
6180
DFE0
C180
C180
C180
CF80
D9C0
69A0
6F00
ENDCHAR
STARTCHAR uni3070
ENCODING 12400
SWIDTH 1000 0
DWIDTH 12 0
BBX 12 11 0 -1
BITMAP
01A0
61B0
61C0
DFA0
C180
C180
C180
CF80
D9C0
69A0
6F00
ENDCHAR
STARTCHAR uni3071
ENCODING 12401
SWIDTH 1000 0
DWIDTH 12 0
BBX 12 11 0 -1
BITMAP
00E0
61B0
61B0
DFE0
C180
C180
C180
CF80
D9C0
69A0
6F00
ENDCHAR
STARTCHAR uni3072
ENCODING 12402
SWIDTH 1000 0
DWIDTH 12 0
BBX 11 10 1 -1
BITMAP
FB00
1B00
3180
61C0
61A0
C180
C300
C300
6600
3C00
ENDCHAR
STARTCHAR uni3073
ENCODING 12403
SWIDTH 1000 0
DWIDTH 12 0
BBX 11 11 1 -1
BITMAP
00C0
FB60
1980
3000
6180
61C0
C1A0
C300
C300
6600
3C00
ENDCHAR
STARTCHAR uni3074
ENCODING 12404
SWIDTH 1000 0
DWIDTH 12 0
BBX 11 11 1 -1
BITMAP
01C0
FB60
1B60
31C0
61A0
6180
C180
C300
C300
6600
3C00
ENDCHAR
STARTCHAR uni3075
ENCODING 12405
SWIDTH 1000 0
DWIDTH 12 0
BBX 11 10 1 -1
BITMAP
3F00
0300
0600
0C00
6CC0
6CC0
6660
C660
C660
1C00
ENDCHAR
STARTCHAR uni3076
ENCODING 12406
SWIDTH 1000 0
DWIDTH 12 0
BBX 11 11 1 -1
BITMAP
00C0
3F60
0380
06C0
0C00
6C00
6CC0
66C0
C660
C660
1C00
ENDCHAR
STARTCHAR uni3077
ENCODING 12407
SWIDTH 1000 0
DWIDTH 12 0
BBX 11 11 1 -1
BITMAP
01C0
3F60
0360
06C0
0C00
6C00
6CC0
66C0
C660
C660
1C00
ENDCHAR
STARTCHAR uni3078
ENCODING 12408
SWIDTH 1000 0
DWIDTH 12 0
BBX 12 5 0 1
BITMAP
3C00
6600
C300
01C0
0070
ENDCHAR
STARTCHAR uni3079
ENCODING 12409
SWIDTH 1000 0
DWIDTH 12 0
BBX 12 8 0 1
BITMAP
00C0
0360
0180
3C00
6600
C300
01C0
0070
ENDCHAR
STARTCHAR uni307A
ENCODING 12410
SWIDTH 1000 0
DWIDTH 12 0
BBX 12 8 0 1
BITMAP
01C0
0360
0360
3DC0
6600
C300
01C0
0070
ENDCHAR
STARTCHAR uni307B
ENCODING 12411
SWIDTH 1000 0
DWIDTH 12 0
BBX 11 10 1 -1
BITMAP
6FE0
6180
C180
DFE0
C180
C180
CF80
D9C0
69A0
6F00
ENDCHAR
STARTCHAR uni307C
ENCODING 12412
SWIDTH 1000 0
DWIDTH 12 0
BBX 12 11 0 -1
BITMAP
0060
6FB0
61C0
C180
DFE0
C180
C180
CF80
D9C0
69A0
6F00
ENDCHAR
STARTCHAR uni307D
ENCODING 12413
SWIDTH 1000 0
DWIDTH 12 0
BBX 12 11 0 -1
BITMAP
00E0
6FB0
61B0
C1E0
DF80
C180
C180
CF80
D9C0
69A0
6F00
ENDCHAR
STARTCHAR uni307E
ENCODING 12414
SWIDTH 1000 0
DWIDTH 12 0
BBX 10 11 1 -1
BITMAP
0600
0600
FFC0
0600
7FC0
0600
0600
3E00
6780
66C0
3C00
ENDCHAR
STARTCHAR uni307F
ENCODING 12415
SWIDTH 1000 0
DWIDTH 12 0
BBX 12 10 0 -1
BITMAP
7E00
06C0
06C0
06C0
3FC0
6CE0
CCD0
D8C0
7180
0700
ENDCHAR
STARTCHAR uni3080
ENCODING 12416
SWIDTH 1000 0
DWIDTH 12 0
BBX 11 11 1 -1
BITMAP
1800
1800
FEC0
1860
1800
7800
D800
D8C0
78C0
18C0
0F80
ENDCHAR
STARTCHAR uni3081
ENCODING 12417
SWIDTH 1000 0
DWIDTH 12 0
BBX 11 11 1 -1
BITMAP
0600
0600
6600
6F80
36C0
7660
D460
DC60
D860
70C0
0380
ENDCHAR
STARTCHAR uni3082
ENCODING 12418
SWIDTH 1000 0
DWIDTH 12 0
BBX 10 11 1 -1
BITMAP
1800
1800
FF80
1800
1800
FF80
3000
30C0
30C0
1980
0F00
ENDCHAR
STARTCHAR uni3083
ENCODING 12419
SWIDTH 1000 0
DWIDTH 12 0
BBX 8 8 2 -1
BITMAP
0C
6C
6E
F5
33
36
18
18
ENDCHAR
STARTCHAR uni3084
ENCODING 12420
SWIDTH 1000 0
DWIDTH 12 0
BBX 11 11 1 -1
BITMAP
0300
3300
33C0
3760
3B60
E860
0DC0
0C00
0C00
0600
0600
ENDCHAR
STARTCHAR uni3085
ENCODING 12421
SWIDTH 1000 0
DWIDTH 12 0
BBX 9 8 2 -1
BITMAP
0C00
CC00
DF00
D680
E680
6F00
6600
0C00
ENDCHAR
STARTCHAR uni3086
ENCODING 12422
SWIDTH 1000 0
DWIDTH 12 0
BBX 11 11 1 -1
BITMAP
0300
0300
CFC0
DB60
D360
D360
6360
6FC0
6300
0300
0E00
ENDCHAR
STARTCHAR uni3087
ENCODING 12423
SWIDTH 1000 0
DWIDTH 12 0
BBX 7 8 3 -1
BITMAP
18
18
1E
18
78
DC
DA
70
ENDCHAR
STARTCHAR uni3088
ENCODING 12424
SWIDTH 1000 0
DWIDTH 12 0
BBX 9 11 1 -1
BITMAP
0C00
0C00
0C00
0F80
0C00
0C00
0C00
7C00
CF00
CD80
7800
ENDCHAR
STARTCHAR uni3089
ENCODING 12425
SWIDTH 1000 0
DWIDTH 12 0
BBX 9 11 2 -1
BITMAP
3800
0E00
0000
C000
C000
DE00
F300
0180
0180
0700
3C00
ENDCHAR
STARTCHAR uni308A
ENCODING 12426
SWIDTH 1000 0
DWIDTH 12 0
BBX 7 10 3 -1
BITMAP
C6
C6
C6
C6
C6
D6
66
06
0C
38
ENDCHAR
STARTCHAR uni308B
ENCODING 12427
SWIDTH 1000 0
DWIDTH 12 0
BBX 9 10 2 -1
BITMAP
7F00
0600
0C00
1E00
7300
C180
3980
6D80
6D00
3E00
ENDCHAR
STARTCHAR uni308C
ENCODING 12428
SWIDTH 1000 0
DWIDTH 12 0
BBX 11 11 1 -1
BITMAP
3000
3000
3000
F780
34C0
38C0
30C0
7180
D180
3180
30E0
ENDCHAR
STARTCHAR uni308D
ENCODING 12429
SWIDTH 1000 0
DWIDTH 12 0
BBX 9 10 2 -1
BITMAP
7F00
0600
0C00
1E00
7300
C180
0180
0180
0700
3C00
ENDCHAR
STARTCHAR uni308E
ENCODING 12430
SWIDTH 1000 0
DWIDTH 12 0
BBX 8 8 2 -1
BITMAP
30
30
F6
3B
33
73
D3
36
ENDCHAR
STARTCHAR uni308F
ENCODING 12431
SWIDTH 1000 0
DWIDTH 12 0
BBX 11 11 1 -1
BITMAP
3000
3000
3000
F780
34C0
3860
3060
7060
D060
30C0
3380
ENDCHAR
STARTCHAR uni3090
ENCODING 12432
SWIDTH 1000 0
DWIDTH 12 0
BBX 11 10 1 -1
BITMAP
7E00
0600
0780
3CC0
6C60
CC60
D9E0
DB60
7360
01C0
ENDCHAR
STARTCHAR uni3091
ENCODING 12433
SWIDTH 1000 0
DWIDTH 12 0
BBX 11 11 1 -1
BITMAP
7FC0
0300
0600
1F80
70C0
1EC0
3380
3F00
1800
7BC0
CE60
ENDCHAR
STARTCHAR uni3092
ENCODING 12434
SWIDTH 1000 0
DWIDTH 12 0
BBX 10 11 1 -1
BITMAP
1800
1800
FF80
3000
3C00
66C0
CF00
DA00
3600
3000
1F80
ENDCHAR
STARTCHAR uni3093
ENCODING 12435
SWIDTH 1000 0
DWIDTH 12 0
BBX 11 10 1 -1
BITMAP
0C00
0C00
1800
1800
3600
3B00
6300
6360
C360
C1C0
ENDCHAR
STARTCHAR uni3094
ENCODING 12436
SWIDTH 1000 0
DWIDTH 12 0
BBX 10 12 1 -1
BITMAP
0180
70C0
1D00
0180
3C00
E600
0300
0300
0300
0600
1C00
7000
ENDCHAR
STARTCHAR uni309B
ENCODING 12443
SWIDTH 1000 0
DWIDTH 12 0
BBX 5 3 1 8
BITMAP
30
D8
60
ENDCHAR
STARTCHAR uni309C
ENCODING 12444
SWIDTH 1000 0
DWIDTH 12 0
BBX 5 4 1 7
BITMAP
70
D8
D8
70
ENDCHAR
STARTCHAR uni309D
ENCODING 12445
SWIDTH 1000 0
DWIDTH 12 0
BBX 5 6 4 2
BITMAP
C0
60
30
30
18
F8
ENDCHAR
STARTCHAR uni309E
ENCODING 12446
SWIDTH 1000 0
DWIDTH 12 0
BBX 8 8 3 2
BITMAP
06
1B
CC
60
30
30
18
F8
ENDCHAR
STARTCHAR uni30A1
ENCODING 12449
SWIDTH 1000 0
DWIDTH 12 0
BBX 8 7 2 -1
BITMAP
FF
03
1B
1A
18
30
60
ENDCHAR
STARTCHAR uni30A2
ENCODING 12450
SWIDTH 1000 0
DWIDTH 12 0
BBX 11 10 1 -1
BITMAP
FFE0
0060
00C0
0D80
0C00
0C00
0C00
0C00
1800
7000
ENDCHAR
STARTCHAR uni30A3
ENCODING 12451
SWIDTH 1000 0
DWIDTH 12 0
BBX 7 7 3 -1
BITMAP
06
0C
38
E8
18
18
18
ENDCHAR
STARTCHAR uni30A4
ENCODING 12452
SWIDTH 1000 0
DWIDTH 12 0
BBX 10 10 1 -1
BITMAP
00C0
0180
0300
0E00
3A00
E600
0600
0600
0600
0600
ENDCHAR
STARTCHAR uni30A5
ENCODING 12453
SWIDTH 1000 0
DWIDTH 12 0
BBX 8 8 2 -1
BITMAP
18
18
FF
C3
C3
03
06
3C
ENDCHAR
STARTCHAR uni30A6
ENCODING 12454
SWIDTH 1000 0
DWIDTH 12 0
BBX 10 11 1 -1
BITMAP
0C00
0C00
FFC0
C0C0
C0C0
C0C0
0180
0180
0300
0E00
3800
ENDCHAR
STARTCHAR uni30A7
ENCODING 12455
SWIDTH 1000 0
DWIDTH 12 0
BBX 8 6 2 0
BITMAP
FF
18
18
18
18
FF
ENDCHAR
STARTCHAR uni30A8
ENCODING 12456
SWIDTH 1000 0
DWIDTH 12 0
BBX 12 8 0 0
BITMAP
7FE0
0600
0600
0600
0600
0600
0600
FFF0
ENDCHAR
STARTCHAR uni30A9
ENCODING 12457
SWIDTH 1000 0
DWIDTH 12 0
BBX 8 8 2 -1
BITMAP
0C
0C
FF
0C
1C
34
EC
1C
ENDCHAR
STARTCHAR uni30AA
ENCODING 12458
SWIDTH 1000 0
DWIDTH 12 0
BBX 11 11 1 -1
BITMAP
0300
0300
0300
FFE0
0300
0700
0D00
3B00
E300
0300
0F00
ENDCHAR
STARTCHAR uni30AB
ENCODING 12459
SWIDTH 1000 0
DWIDTH 12 0
BBX 11 11 1 -1
BITMAP
0C00
0C00
0C00
FFE0
0C60
0C60
0C60
1860
1860
3060
E3C0
ENDCHAR
STARTCHAR uni30AC
ENCODING 12460
SWIDTH 1000 0
DWIDTH 12 0
BBX 12 12 0 -1
BITMAP
0060
0DB0
0CC0
0C00
FFE0
0C60
0C60
0C60
1860
1860
3060
E3C0
ENDCHAR
STARTCHAR uni30AD
ENCODING 12461
SWIDTH 1000 0
DWIDTH 12 0
BBX 11 11 1 -1
BITMAP
0C00
0C00
0C00
FFC0
0C00
0C00
0C00
FFE0
0600
0600
0600
ENDCHAR
STARTCHAR uni30AE
ENCODING 12462
SWIDTH 1000 0
DWIDTH 12 0
BBX 12 11 0 -1
BITMAP
0C60
0DB0
0CC0
FF80
0C00
0C00
0C00
FFE0
0600
0600
0600
ENDCHAR
STARTCHAR uni30AF
ENCODING 12463
SWIDTH 1000 0
DWIDTH 12 0
BBX 9 11 2 -1
BITMAP
1800
1800
1F80
3180
6180
C180
0300
0300
0600
1C00
F000
ENDCHAR
STARTCHAR uni30B0
ENCODING 12464
SWIDTH 1000 0
DWIDTH 12 0
BBX 11 12 1 -1
BITMAP
00C0
1B60
1980
1F80
3180
6180
C180
0300
0300
0600
1C00
F000
ENDCHAR
STARTCHAR uni30B1
ENCODING 12465
SWIDTH 1000 0
DWIDTH 12 0
BBX 11 11 1 -1
BITMAP
3000
3000
3000
3FE0
6300
C300
0300
0600
0600
1C00
7000
ENDCHAR
STARTCHAR uni30B2
ENCODING 12466
SWIDTH 1000 0
DWIDTH 12 0
BBX 12 12 0 -1
BITMAP
0060
31B0
30C0
3000
3FE0
6300
C300
0300
0600
0600
1C00
7000
ENDCHAR
STARTCHAR uni30B3
ENCODING 12467
SWIDTH 1000 0
DWIDTH 12 0
BBX 10 9 1 -1
BITMAP
FFC0
00C0
00C0
00C0
00C0
00C0
00C0
FFC0
00C0
ENDCHAR
STARTCHAR uni30B4
ENCODING 12468
SWIDTH 1000 0
DWIDTH 12 0
BBX 11 12 1 -1
BITMAP
00C0
0660
0300
FFC0
00C0
00C0
00C0
00C0
00C0
00C0
FFC0
00C0
ENDCHAR
STARTCHAR uni30B5
ENCODING 12469
SWIDTH 1000 0
DWIDTH 12 0
BBX 11 11 1 -1
BITMAP
3180
3180
3180
FFE0
3180
3180
3180
0300
0300
0E00
3800
ENDCHAR
STARTCHAR uni30B6
ENCODING 12470
SWIDTH 1000 0
DWIDTH 12 0
BBX 12 11 0 -1
BITMAP
31A0
31B0
31C0
FFA0
3180
3180
3180
0300
0300
0E00
3800
ENDCHAR
STARTCHAR uni30B7
ENCODING 12471
SWIDTH 1000 0
DWIDTH 12 0
BBX 11 10 1 -1
BITMAP
7000
1C00
0060
E060
38C0
00C0
0180
0300
0E00
7800
ENDCHAR
STARTCHAR uni30B8
ENCODING 12472
SWIDTH 1000 0
DWIDTH 12 0
BBX 11 12 1 -1
BITMAP
00C0
0360
7180
1C00
0060
E060
38C0
00C0
0180
0300
0E00
7800
ENDCHAR
STARTCHAR uni30B9
ENCODING 12473
SWIDTH 1000 0
DWIDTH 12 0
BBX 11 10 1 -1
BITMAP
7F80
0180
0180
0180
0300
0300
0700
0D80
38C0
E060
ENDCHAR
STARTCHAR uni30BA
ENCODING 12474
SWIDTH 1000 0
DWIDTH 12 0
BBX 12 12 0 -1
BITMAP
0360
01B0
7F80
0180
0180
0180
0300
0300
0700
0D80
38C0
E060
ENDCHAR
STARTCHAR uni30BB
ENCODING 12475
SWIDTH 1000 0
DWIDTH 12 0
BBX 12 11 0 -1
BITMAP
0C00
0C00
0CF0
0DB0
1E60
F460
0CC0
0C00
0C00
0C00
07F0
ENDCHAR
STARTCHAR uni30BC
ENCODING 12476
SWIDTH 1000 0
DWIDTH 12 0
BBX 12 12 0 -1
BITMAP
0060
0DB0
0CC0
0CF0
0DB0
1E60
F460
0CC0
0C00
0C00
0C00
07F0
ENDCHAR
STARTCHAR uni30BD
ENCODING 12477
SWIDTH 1000 0
DWIDTH 12 0
BBX 10 10 1 -1
BITMAP
C0C0
C0C0
60C0
60C0
00C0
0180
0180
0300
0E00
3800
ENDCHAR
STARTCHAR uni30BE
ENCODING 12478
SWIDTH 1000 0
DWIDTH 12 0
BBX 12 12 0 -1
BITMAP
0060
01B0
C0C0
C000
60C0
60C0
00C0
0180
0180
0300
0E00
3800
ENDCHAR
STARTCHAR uni30BF
ENCODING 12479
SWIDTH 1000 0
DWIDTH 12 0
BBX 9 11 2 -1
BITMAP
1800
1800
1F80
3180
6180
DD80
0700
0300
0600
1C00
F000
ENDCHAR
STARTCHAR uni30C0
ENCODING 12480
SWIDTH 1000 0
DWIDTH 12 0
BBX 11 12 1 -1
BITMAP
00C0
1B60
1980
1F80
3180
6180
DD80
0700
0300
0600
1C00
F000
ENDCHAR
STARTCHAR uni30C1
ENCODING 12481
SWIDTH 1000 0
DWIDTH 12 0
BBX 12 10 0 -1
BITMAP
03E0
7E00
0600
0600
FFF0
0600
0600
0600
0C00
3800
ENDCHAR
STARTCHAR uni30C2
ENCODING 12482
SWIDTH 1000 0
DWIDTH 12 0
BBX 12 11 0 -1
BITMAP
0060
03B0
7EC0
0600
0600
FFF0
0600
0600
0600
0C00
3800
ENDCHAR
STARTCHAR uni30C3
ENCODING 12483
SWIDTH 1000 0
DWIDTH 12 0
BBX 8 7 2 -1
BITMAP
DB
DB
DB
06
06
1C
70
ENDCHAR
STARTCHAR uni30C4
ENCODING 12484
SWIDTH 1000 0
DWIDTH 12 0
BBX 10 10 1 -1
BITMAP
D8C0
D8C0
6CC0
6CC0
00C0
0180
0180
0300
0E00
3800
ENDCHAR
STARTCHAR uni30C5
ENCODING 12485
SWIDTH 1000 0
DWIDTH 12 0
BBX 12 12 0 -1
BITMAP
0060
01B0
D8C0
D800
6CC0
6CC0
00C0
0180
0180
0300
0E00
3800
ENDCHAR
STARTCHAR uni30C6
ENCODING 12486
SWIDTH 1000 0
DWIDTH 12 0
BBX 11 10 1 -1
BITMAP
7FC0
0000
0000
FFE0
0600
0600
0600
0600
0C00
3800
ENDCHAR
STARTCHAR uni30C7
ENCODING 12487
SWIDTH 1000 0
DWIDTH 12 0
BBX 12 12 0 -1
BITMAP
0060
01B0
7F40
0000
0000
FFE0
0600
0600
0600
0600
0C00
3800
ENDCHAR
STARTCHAR uni30C8
ENCODING 12488
SWIDTH 1000 0
DWIDTH 12 0
BBX 8 11 3 -1
BITMAP
C0
C0
C0
C0
F0
DC
C7
C0
C0
C0
C0
ENDCHAR
STARTCHAR uni30C9
ENCODING 12489
SWIDTH 1000 0
DWIDTH 12 0
BBX 9 11 2 -1
BITMAP
C300
CD80
C600
C000
F000
DC00
C700
C000
C000
C000
C000
ENDCHAR
STARTCHAR uni30CA
ENCODING 12490
SWIDTH 1000 0
DWIDTH 12 0
BBX 11 11 1 -1
BITMAP
0600
0600
0600
FFE0
0600
0600
0600
0C00
0C00
1800
7000
ENDCHAR
STARTCHAR uni30CB
ENCODING 12491
SWIDTH 1000 0
DWIDTH 12 0
BBX 11 8 1 0
BITMAP
7FC0
0000
0000
0000
0000
0000
0000
FFE0
ENDCHAR
STARTCHAR uni30CC
ENCODING 12492
SWIDTH 1000 0
DWIDTH 12 0
BBX 10 10 1 -1
BITMAP
7FC0
00C0
00C0
1980
0D80
0700
0300
0680
1CC0
F000
ENDCHAR
STARTCHAR uni30CD
ENCODING 12493
SWIDTH 1000 0
DWIDTH 12 0
BBX 12 11 0 -1
BITMAP
0600
0600
7FC0
00C0
0180
0300
0700
1EC0
F670
0600
0600
ENDCHAR
STARTCHAR uni30CE
ENCODING 12494
SWIDTH 1000 0
DWIDTH 12 0
BBX 8 10 2 -1
BITMAP
03
03
03
03
03
06
06
0C
38
E0
ENDCHAR
STARTCHAR uni30CF
ENCODING 12495
SWIDTH 1000 0
DWIDTH 12 0
BBX 11 10 1 -1
BITMAP
3000
3180
3180
30C0
60C0
60C0
6060
C060
C060
C060
ENDCHAR
STARTCHAR uni30D0
ENCODING 12496
SWIDTH 1000 0
DWIDTH 12 0
BBX 11 11 1 -1
BITMAP
00C0
0360
3180
3000
3000
3180
6180
60C0
60C0
C060
C060
ENDCHAR
STARTCHAR uni30D1
ENCODING 12497
SWIDTH 1000 0
DWIDTH 12 0
BBX 11 11 1 -1
BITMAP
01C0
0360
3360
31C0
3000
3180
6180
60C0
60C0
C060
C060
ENDCHAR
STARTCHAR uni30D2
ENCODING 12498
SWIDTH 1000 0
DWIDTH 12 0
BBX 9 11 2 -1
BITMAP
C000
C000
C000
C780
FC00
C000
C000
C000
C000
C000
7F80
ENDCHAR
STARTCHAR uni30D3
ENCODING 12499
SWIDTH 1000 0
DWIDTH 12 0
BBX 10 11 2 -1
BITMAP
0180
C6C0
C300
C000
C780
FC00
C000
C000
C000
C000
7F80
ENDCHAR
STARTCHAR uni30D4
ENCODING 12500
SWIDTH 1000 0
DWIDTH 12 0
BBX 11 11 1 -1
BITMAP
01C0
C360
C360
C1C0
CE00
F800
C000
C000
C000
C000
7F80
ENDCHAR
STARTCHAR uni30D5
ENCODING 12501
SWIDTH 1000 0
DWIDTH 12 0
BBX 10 10 1 -1
BITMAP
FFC0
00C0
00C0
00C0
00C0
0180
0180
0300
0E00
7800
ENDCHAR
STARTCHAR uni30D6
ENCODING 12502
SWIDTH 1000 0
DWIDTH 12 0
BBX 12 12 0 -1
BITMAP
0060
0330
0180
FFC0
00C0
00C0
00C0
0180
0180
0300
0E00
3800
ENDCHAR
STARTCHAR uni30D7
ENCODING 12503
SWIDTH 1000 0
DWIDTH 12 0
BBX 12 12 0 -1
BITMAP
00E0
01B0
FFB0
00E0
00C0
00C0
00C0
0180
0180
0300
0E00
3800
ENDCHAR
STARTCHAR uni30D8
ENCODING 12504
SWIDTH 1000 0
DWIDTH 12 0
BBX 12 6 0 1
BITMAP
1E00
3300
6180
C0C0
0060
0030
ENDCHAR
STARTCHAR uni30D9
ENCODING 12505
SWIDTH 1000 0
DWIDTH 12 0
BBX 12 10 0 0
BITMAP
0060
01B0
00C0
0000
1E00
3300
6180
C0C0
0060
0030
ENDCHAR
STARTCHAR uni30DA
ENCODING 12506
SWIDTH 1000 0
DWIDTH 12 0
BBX 12 10 0 0
BITMAP
00E0
01B0
01B0
00E0
1E00
3300
6180
C0C0
0060
0030
ENDCHAR
STARTCHAR uni30DB
ENCODING 12507
SWIDTH 1000 0
DWIDTH 12 0
BBX 12 11 0 -1
BITMAP
0600
0600
0600
FFF0
0600
0600
36C0
6660
C630
0600
0E00
ENDCHAR
STARTCHAR uni30DC
ENCODING 12508
SWIDTH 1000 0
DWIDTH 12 0
BBX 12 12 0 -1
BITMAP
0060
06B0
06C0
0600
FFF0
0600
0600
36C0
6660
C630
0600
0E00
ENDCHAR
STARTCHAR uni30DD
ENCODING 12509
SWIDTH 1000 0
DWIDTH 12 0
BBX 12 11 0 -1
BITMAP
06E0
06B0
06B0
FFE0
0600
0600
36C0
6660
C630
0600
0E00
ENDCHAR
STARTCHAR uni30DE
ENCODING 12510
SWIDTH 1000 0
DWIDTH 12 0
BBX 11 9 1 -1
BITMAP
FFE0
0060
00C0
0180
3300
1A00
0C00
0600
0300
ENDCHAR
STARTCHAR uni30DF
ENCODING 12511
SWIDTH 1000 0
DWIDTH 12 0
BBX 8 10 2 -1
BITMAP
78
0F
00
00
78
0E
00
00
F8
0F
ENDCHAR
STARTCHAR uni30E0
ENCODING 12512
SWIDTH 1000 0
DWIDTH 12 0
BBX 11 11 0 -1
BITMAP
0C00
0C00
0C00
0C00
1800
18C0
18C0
30C0
37A0
FC60
0060
ENDCHAR
STARTCHAR uni30E1
ENCODING 12513
SWIDTH 1000 0
DWIDTH 12 0
BBX 11 11 1 -1
BITMAP
0300
0300
0300
0300
7300
1E00
0780
06E0
0C00
3800
E000
ENDCHAR
STARTCHAR uni30E2
ENCODING 12514
SWIDTH 1000 0
DWIDTH 12 0
BBX 12 10 0 -1
BITMAP
7FC0
0C00
0C00
0C00
FFF0
0C00
0C00
0C00
0C00
07C0
ENDCHAR
STARTCHAR uni30E3
ENCODING 12515
SWIDTH 1000 0
DWIDTH 12 0
BBX 8 8 2 -1
BITMAP
30
30
37
FB
36
1A
18
18
ENDCHAR
STARTCHAR uni30E4
ENCODING 12516
SWIDTH 1000 0
DWIDTH 12 0
BBX 11 11 0 -1
BITMAP
1800
1800
19E0
1F60
F460
0CC0
0CC0
0C00
0600
0600
0600
ENDCHAR
STARTCHAR uni30E5
ENCODING 12517
SWIDTH 1000 0
DWIDTH 12 0
BBX 9 6 1 0
BITMAP
7E00
0600
0600
0600
0600
FF80
ENDCHAR
STARTCHAR uni30E6
ENCODING 12518
SWIDTH 1000 0
DWIDTH 12 0
BBX 12 8 0 0
BITMAP
3F80
0180
0180
0180
0180
0180
0180
FFF0
ENDCHAR
STARTCHAR uni30E7
ENCODING 12519
SWIDTH 1000 0
DWIDTH 12 0
BBX 7 7 3 -1
BITMAP
FE
06
06
FE
06
06
FE
ENDCHAR
STARTCHAR uni30E8
ENCODING 12520
SWIDTH 1000 0
DWIDTH 12 0
BBX 9 10 2 -1
BITMAP
FF80
0180
0180
0180
FF80
0180
0180
0180
FF80
0180
ENDCHAR
STARTCHAR uni30E9
ENCODING 12521
SWIDTH 1000 0
DWIDTH 12 0
BBX 10 10 1 -1
BITMAP
7F80
0000
0000
FFC0
00C0
00C0
0180
0300
0E00
3800
ENDCHAR
STARTCHAR uni30EA
ENCODING 12522
SWIDTH 1000 0
DWIDTH 12 0
BBX 8 11 2 -1
BITMAP
C3
C3
C3
C3
C3
C3
03
06
06
0C
38
ENDCHAR
STARTCHAR uni30EB
ENCODING 12523
SWIDTH 1000 0
DWIDTH 12 0
BBX 11 11 1 -1
BITMAP
0600
3600
3600
3600
3600
3660
3660
66C0
66C0
C680
C700
ENDCHAR
STARTCHAR uni30EC
ENCODING 12524
SWIDTH 1000 0
DWIDTH 12 0
BBX 9 10 2 -1
BITMAP
C000
C000
C000
C000
C000
C180
C300
C600
DC00
F000
ENDCHAR
STARTCHAR uni30ED
ENCODING 12525
SWIDTH 1000 0
DWIDTH 12 0
BBX 10 9 1 -1
BITMAP
FFC0
C0C0
C0C0
C0C0
C0C0
C0C0
C0C0
FFC0
C0C0
ENDCHAR
STARTCHAR uni30EE
ENCODING 12526
SWIDTH 1000 0
DWIDTH 12 0
BBX 8 7 2 -1
BITMAP
FF
C3
C3
03
03
06
3C
ENDCHAR
STARTCHAR uni30EF
ENCODING 12527
SWIDTH 1000 0
DWIDTH 12 0
BBX 10 10 1 -1
BITMAP
FFC0
C0C0
C0C0
C0C0
00C0
0180
0180
0300
0E00
3800
ENDCHAR
STARTCHAR uni30F0
ENCODING 12528
SWIDTH 1000 0
DWIDTH 12 0
BBX 11 11 1 -1
BITMAP
0300
0300
0300
7FC0
3300
3300
3300
FFE0
0300
0300
0300
ENDCHAR
STARTCHAR uni30F1
ENCODING 12529
SWIDTH 1000 0
DWIDTH 12 0
BBX 11 8 1 0
BITMAP
7FC0
0180
0300
0E00
0C00
0C00
0C00
FFE0
ENDCHAR
STARTCHAR uni30F2
ENCODING 12530
SWIDTH 1000 0
DWIDTH 12 0
BBX 9 10 2 -1
BITMAP
FF80
0180
0180
FF80
0180
0300
0300
0600
1C00
7000
ENDCHAR
STARTCHAR uni30F3
ENCODING 12531
SWIDTH 1000 0
DWIDTH 12 0
BBX 10 10 2 -1
BITMAP
E000
3800
00C0
00C0
0180
0180
0300
0600
1C00
F000
ENDCHAR
STARTCHAR uni30F4
ENCODING 12532
SWIDTH 1000 0
DWIDTH 12 0
BBX 11 12 1 -1
BITMAP
00C0
0D60
0D80
FFC0
C0C0
C0C0
C0C0
0180
0180
0300
0E00
3800
ENDCHAR
STARTCHAR uni30F5
ENCODING 12533
SWIDTH 1000 0
DWIDTH 12 0
BBX 8 8 2 -1
BITMAP
30
30
FF
33
33
33
63
6E
ENDCHAR
STARTCHAR uni30F6
ENCODING 12534
SWIDTH 1000 0
DWIDTH 12 0
BBX 8 8 2 -1
BITMAP
60
60
7F
CC
CC
0C
18
70
ENDCHAR
STARTCHAR uni30FB
ENCODING 12539
SWIDTH 1000 0
DWIDTH 12 0
BBX 3 2 4 3
BITMAP
E0
E0
ENDCHAR
STARTCHAR uni30FC
ENCODING 12540
SWIDTH 1000 0
DWIDTH 12 0
BBX 10 2 1 4
BITMAP
C000
7FC0
ENDCHAR
STARTCHAR uni30FD
ENCODING 12541
SWIDTH 1000 0
DWIDTH 12 0
BBX 5 6 3 2
BITMAP
C0
60
30
30
18
18
ENDCHAR
STARTCHAR uni30FE
ENCODING 12542
SWIDTH 1000 0
DWIDTH 12 0
BBX 9 8 2 2
BITMAP
0300
0D80
C600
6000
3000
3000
1800
1800
ENDCHAR
STARTCHAR uni30FF
ENCODING 12543
SWIDTH 1000 0
DWIDTH 12 0
BBX 5 3 7 -2
BITMAP
30
D8
60
ENDCHAR
STARTCHAR uni3231
ENCODING 12849
SWIDTH 1000 0
DWIDTH 12 0
BBX 12 11 0 -1
BITMAP
30C0
6AA0
DAB0
FFF0
DAB0
DBF0
EDB0
DBD0
DAB0
69A0
30C0
ENDCHAR
STARTCHAR uni3232
ENCODING 12850
SWIDTH 1000 0
DWIDTH 12 0
BBX 12 11 0 -1
BITMAP
30C0
6C60
DFD0
CC30
CFB0
DDB0
D7B0
CDB0
CFB0
6DA0
30C0
ENDCHAR
STARTCHAR uni3239
ENCODING 12857
SWIDTH 1000 0
DWIDTH 12 0
BBX 12 11 0 -1
BITMAP
30C0
6D60
CD50
DB30
DFD0
DB30
EB30
DB30
DB30
69A0
30C0
ENDCHAR
STARTCHAR uni32A4
ENCODING 12964
SWIDTH 1000 0
DWIDTH 12 0
BBX 12 11 0 -1
BITMAP
0F00
39C0
6660
6660
C7B0
C630
C630
7FE0
6060
39C0
0F00
ENDCHAR
STARTCHAR uni32A5
ENCODING 12965
SWIDTH 1000 0
DWIDTH 12 0
BBX 12 11 0 -1
BITMAP
0F00
39C0
6660
7FE0
D6D0
D6D0
DFD0
6660
6660
39C0
0F00
ENDCHAR
STARTCHAR uni32A6
ENCODING 12966
SWIDTH 1000 0
DWIDTH 12 0
BBX 12 11 0 -1
BITMAP
0F00
39C0
6060
7FE0
C630
C730
C6B0
6660
6660
39C0
0F00
ENDCHAR
STARTCHAR uni32A7
ENCODING 12967
SWIDTH 1000 0
DWIDTH 12 0
BBX 12 11 0 -1
BITMAP
0F00
39C0
6C60
7FE0
CC30
CFB0
DB30
7360
6FE0
39C0
0F00
ENDCHAR
STARTCHAR uni32A8
ENCODING 12968
SWIDTH 1000 0
DWIDTH 12 0
BBX 12 11 0 -1
BITMAP
0F00
39C0
6C60
7FE0
CC30
DFB0
D5B0
6DA0
6FA0
39C0
0F00
ENDCHAR
STARTCHAR uni3303
ENCODING 13059
SWIDTH 1000 0
DWIDTH 12 0
BBX 12 11 0 -1
BITMAP
FE00
0600
3400
33F0
3000
6000
1800
6800
6B00
6B00
DE00
ENDCHAR
STARTCHAR uni330D
ENCODING 13069
SWIDTH 1000 0
DWIDTH 12 0
BBX 12 11 0 -1
BITMAP
6000
FDF0
6D30
6D30
DDF0
0000
6C00
6C00
6DF0
0C00
3800
ENDCHAR
STARTCHAR uni3314
ENCODING 13076
SWIDTH 1000 0
DWIDTH 12 0
BBX 12 11 0 -1
BITMAP
3000
FC00
3000
3000
FE00
1800
1BF0
0330
0330
0330
03F0
ENDCHAR
STARTCHAR uni3318
ENCODING 13080
SWIDTH 1000 0
DWIDTH 12 0
BBX 12 11 0 -1
BITMAP
6AE0
7C00
CDF0
0C30
1830
F1E0
3000
3000
6C00
6600
FE00
ENDCHAR
STARTCHAR uni3322
ENCODING 13090
SWIDTH 1000 0
DWIDTH 12 0
BBX 12 11 0 -1
BITMAP
6300
FDB0
6C30
6060
3DC0
0000
7C00
1800
FE00
1800
7000
ENDCHAR
STARTCHAR uni3323
ENCODING 13091
SWIDTH 1000 0
DWIDTH 12 0
BBX 12 11 0 -1
BITMAP
6300
FDB0
6C30
6060
3DC0
0000
6000
6000
7C00
6000
6000
ENDCHAR
STARTCHAR uni3326
ENCODING 13094
SWIDTH 1000 0
DWIDTH 12 0
BBX 11 11 1 -1
BITMAP
D400
D400
C000
F800
C000
C680
C680
0680
06A0
06A0
0DC0
ENDCHAR
STARTCHAR uni3327
ENCODING 13095
SWIDTH 1000 0
DWIDTH 12 0
BBX 11 11 1 -1
BITMAP
C000
C000
C000
F800
C000
C000
CE60
0360
0060
00C0
0F80
ENDCHAR
STARTCHAR uni332B
ENCODING 13099
SWIDTH 1000 0
DWIDTH 12 0
BBX 12 11 0 -1
BITMAP
6B00
6A80
6B00
6DF0
CC00
0000
6DA0
FAA0
69B0
61A0
7B60
ENDCHAR
STARTCHAR uni3336
ENCODING 13110
SWIDTH 1000 0
DWIDTH 12 0
BBX 12 11 0 -1
BITMAP
0180
71F0
DBB0
CC30
0660
61C0
7860
D9A0
69A0
37A0
E1B0
ENDCHAR
STARTCHAR uni333B
ENCODING 13115
SWIDTH 1000 0
DWIDTH 12 0
BBX 12 11 0 -1
BITMAP
0600
7500
DA00
CDF0
0600
0000
E340
0D40
EC00
1800
F000
ENDCHAR
STARTCHAR uni3349
ENCODING 13129
SWIDTH 1000 0
DWIDTH 12 0
BBX 12 11 0 -1
BITMAP
F000
1C00
F000
1C00
F000
1D30
0330
0330
0330
0060
01C0
ENDCHAR
STARTCHAR uni334A
ENCODING 13130
SWIDTH 1000 0
DWIDTH 12 0
BBX 12 11 0 -1
BITMAP
FB60
0360
FB60
0060
F9C0
0000
D5A0
C1A0
D7A0
D9A0
D9B0
ENDCHAR
STARTCHAR uni334D
ENCODING 13133
SWIDTH 1000 0
DWIDTH 12 0
BBX 12 11 0 -1
BITMAP
0C00
6C00
3BF0
1C00
F600
0000
6340
6340
7D40
6350
66E0
ENDCHAR
STARTCHAR uni3351
ENCODING 13137
SWIDTH 1000 0
DWIDTH 12 0
BBX 12 11 0 -1
BITMAP
D800
DB50
DB50
1830
71E0
0000
C6C0
C6C0
FAC0
C6D0
C6E0
ENDCHAR
STARTCHAR uni3357
ENCODING 13143
SWIDTH 1000 0
DWIDTH 12 0
BBX 12 11 0 -1
BITMAP
FC00
CD50
CD50
0C30
79E0
0000
6000
6000
7C00
6000
6000
ENDCHAR
STARTCHAR uni337B
ENCODING 13179
SWIDTH 1000 0
DWIDTH 12 0
BBX 12 11 0 -1
BITMAP
00D0
FDF0
3340
D550
D550
D5A0
33A0
FEA0
36A0
35D0
34D0
ENDCHAR
STARTCHAR uni337C
ENCODING 13180
SWIDTH 1000 0
DWIDTH 12 0
BBX 12 11 0 -1
BITMAP
7B80
3500
F570
D7D0
DD50
F350
DF50
D5D0
D550
F550
3D70
ENDCHAR
STARTCHAR uni337D
ENCODING 13181
SWIDTH 1000 0
DWIDTH 12 0
BBX 12 11 0 -1
BITMAP
3000
37F0
30C0
FCC0
3340
3370
6B40
6B40
6B40
CD40
CFF0
ENDCHAR
STARTCHAR uni337E
ENCODING 13182
SWIDTH 1000 0
DWIDTH 12 0
BBX 12 11 0 -1
BITMAP
3CC0
F6C0
D540
DDB0
F6B0
D5F0
DC00
F5F0
35B0
36B0
6DF0
ENDCHAR
STARTCHAR uni338E
ENCODING 13198
SWIDTH 1000 0
DWIDTH 12 0
BBX 12 8 0 -1
BITMAP
0070
F9C0
D560
D5C0
D500
D5E0
D530
01E0
ENDCHAR
STARTCHAR uni338F
ENCODING 13199
SWIDTH 1000 0
DWIDTH 12 0
BBX 12 10 0 -1
BITMAP
C000
C000
C070
D9C0
D360
E1C0
D300
D9E0
CD30
01E0
ENDCHAR
STARTCHAR uni339C
ENCODING 13212
SWIDTH 1000 0
DWIDTH 12 0
BBX 12 6 0 0
BITMAP
FBE0
D550
D550
D550
D550
D550
ENDCHAR
STARTCHAR uni339D
ENCODING 13213
SWIDTH 1000 0
DWIDTH 12 0
BBX 12 6 0 0
BITMAP
7BE0
CD50
C350
C350
CD50
7B50
ENDCHAR
STARTCHAR uni339E
ENCODING 13214
SWIDTH 1000 0
DWIDTH 12 0
BBX 12 9 0 0
BITMAP
C000
C000
C000
DBE0
D350
E350
D350
DB50
CD50
ENDCHAR
STARTCHAR uni33A1
ENCODING 13217
SWIDTH 1000 0
DWIDTH 12 0
BBX 12 10 0 0
BITMAP
00E0
01B0
0060
00C0
FEF0
DB00
DB00
DB00
DB00
DB00
ENDCHAR
STARTCHAR uni33C4
ENCODING 13252
SWIDTH 1000 0
DWIDTH 12 0
BBX 12 6 0 0
BITMAP
79E0
CD30
C300
C300
CD30
79E0
ENDCHAR
STARTCHAR uni33CD
ENCODING 13261
SWIDTH 1000 0
DWIDTH 12 0
BBX 10 9 1 0
BITMAP
DAC0
DAC0
D680
D680
E700
D680
D680
DAC0
DAC0
ENDCHAR
STARTCHAR uni4E00
ENCODING 19968
SWIDTH 1000 0
DWIDTH 12 0
BBX 12 2 0 4
BITMAP
0030
FFF0
ENDCHAR
STARTCHAR uni4E01
ENCODING 19969
SWIDTH 1000 0
DWIDTH 12 0
BBX 12 11 0 -1
BITMAP
FFF0
0300
0300
0300
0300
0300
0300
0300
0300
0300
1F00
ENDCHAR
STARTCHAR uni4E03
ENCODING 19971
SWIDTH 1000 0
DWIDTH 12 0
BBX 12 12 0 -1
BITMAP
1800
1800
1800
18F0
1F80
F800
1800
1800
1800
1860
1860
0FE0
ENDCHAR
STARTCHAR uni4E07
ENCODING 19975
SWIDTH 1000 0
DWIDTH 12 0
BBX 12 11 0 -1
BITMAP
FFF0
0C00
0C00
0C00
0FE0
0C60
1860
1860
3060
30C0
0780
ENDCHAR
STARTCHAR uni4E08
ENCODING 19976
SWIDTH 1000 0
DWIDTH 12 0
BBX 12 12 0 -1
BITMAP
0300
0300
0300
FFF0
0300
0300
1B00
0D00
0600
0D00
39C0
E070
ENDCHAR
STARTCHAR uni4E09
ENCODING 19977
SWIDTH 1000 0
DWIDTH 12 0
BBX 12 10 0 -1
BITMAP
7FE0
0000
0000
0000
3FC0
0000
0000
0000
0030
FFF0
ENDCHAR
STARTCHAR uni4E0A
ENCODING 19978
SWIDTH 1000 0
DWIDTH 12 0
BBX 12 12 0 -1
BITMAP
0600
0600
0600
0600
07E0
0600
0600
0600
0600
0600
0600
FFF0
ENDCHAR
STARTCHAR uni4E0B
ENCODING 19979
SWIDTH 1000 0
DWIDTH 12 0
BBX 12 11 0 -1
BITMAP
FFF0
0600
0600
0600
0780
06E0
0600
0600
0600
0600
0600
ENDCHAR
STARTCHAR uni4E0D
ENCODING 19981
SWIDTH 1000 0
DWIDTH 12 0
BBX 12 11 0 -1
BITMAP
FFF0
0180
0300
0600
0E80
3AC0
E660
0630
0600
0600
0600
ENDCHAR
STARTCHAR uni4E0E
ENCODING 19982
SWIDTH 1000 0
DWIDTH 12 0
BBX 12 12 0 -1
BITMAP
1800
1800
1FE0
1800
1800
1FC0
00C0
FFF0
00C0
00C0
0180
0F00
ENDCHAR
STARTCHAR uni4E10
ENCODING 19984
SWIDTH 1000 0
DWIDTH 12 0
BBX 12 11 0 -1
BITMAP
FFF0
0600
0600
67E0
6600
6600
7FF0
C030
C030
0060
03C0
ENDCHAR
STARTCHAR uni4E11
ENCODING 19985
SWIDTH 1000 0
DWIDTH 12 0
BBX 12 11 0 -1
BITMAP
7FC0
0CC0
0CC0
0CC0
0CC0
FFF0
1980
1980
1980
1980
FFF0
ENDCHAR
STARTCHAR uni4E14
ENCODING 19988
SWIDTH 1000 0
DWIDTH 12 0
BBX 12 11 0 -1
BITMAP
3FC0
30C0
30C0
3FC0
30C0
30C0
3FC0
30C0
30C0
30C0
FFF0
ENDCHAR
STARTCHAR uni4E15
ENCODING 19989
SWIDTH 1000 0
DWIDTH 12 0
BBX 12 11 0 -1
BITMAP
FFF0
0180
0300
0600
0EC0
3A60
E630
0600
0600
0000
FFF0
ENDCHAR
STARTCHAR uni4E16
ENCODING 19990
SWIDTH 1000 0
DWIDTH 12 0
BBX 12 12 0 -1
BITMAP
0600
36C0
36C0
36C0
FFF0
36C0
36C0
36C0
37C0
3000
3000
3FE0
ENDCHAR
STARTCHAR uni4E17
ENCODING 19991
SWIDTH 1000 0
DWIDTH 12 0
BBX 12 11 0 -1
BITMAP
6660
6660
6660
6660
FFF0
6660
6660
6660
6660
6660
7FE0
ENDCHAR
STARTCHAR uni4E18
ENCODING 19992
SWIDTH 1000 0
DWIDTH 12 0
BBX 12 11 0 -1
BITMAP
01C0
3F00
3000
3000
3FE0
3180
3180
3180
3180
3180
FFF0
ENDCHAR
STARTCHAR uni4E19
ENCODING 19993
SWIDTH 1000 0
DWIDTH 12 0
BBX 12 11 0 -1
BITMAP
FFF0
0600
0600
FFF0
C630
C630
CD30
D9B0
D0D0
C030
C070
ENDCHAR
STARTCHAR uni4E1E
ENCODING 19998
SWIDTH 1000 0
DWIDTH 12 0
BBX 12 11 0 -1
BITMAP
3FC0
0180
0300
FAB0
1AA0
36C0
6660
C630
1E00
0000
FFF0
ENDCHAR
STARTCHAR uni4E21
ENCODING 20001
SWIDTH 1000 0
DWIDTH 12 0
BBX 12 11 0 -1
BITMAP
FFF0
0600
0600
FFF0
C630
D6D0
D6D0
D6D0
DFD0
C030
C070
ENDCHAR
STARTCHAR uni4E26
ENCODING 20006
SWIDTH 1000 0
DWIDTH 12 0
BBX 11 12 1 -1
BITMAP
3180
1980
0300
FFE0
1B00
1B00
DB60
6B40
1B00
1B00
1B00
FFE0
ENDCHAR
STARTCHAR uni4E2A
ENCODING 20010
SWIDTH 1000 0
DWIDTH 12 0
BBX 12 12 0 -1
BITMAP
0F00
1980
30C0
6660
C630
0600
0600
0600
0600
0600
0600
0600
ENDCHAR
STARTCHAR uni4E2D
ENCODING 20013
SWIDTH 1000 0
DWIDTH 12 0
BBX 12 12 0 -1
BITMAP
0600
0600
0600
FFF0
C630
C630
C630
FFF0
0600
0600
0600
0600
ENDCHAR
STARTCHAR uni4E31
ENCODING 20017
SWIDTH 1000 0
DWIDTH 12 0
BBX 12 12 0 -1
BITMAP
0180
0D80
CDB0
CDB0
CDB0
CDB0
CDB0
FDF0
CDB0
0D80
1980
7180
ENDCHAR
STARTCHAR uni4E32
ENCODING 20018
SWIDTH 1000 0
DWIDTH 12 0
BBX 12 12 0 -1
BITMAP
0600
0600
7FE0
6660
6660
7FE0
0600
FFF0
C630
FFF0
0600
0600
ENDCHAR
STARTCHAR uni4E36
ENCODING 20022
SWIDTH 1000 0
DWIDTH 12 0
BBX 6 3 3 3
BITMAP
E0
38
0C
ENDCHAR
STARTCHAR uni4E38
ENCODING 20024
SWIDTH 1000 0
DWIDTH 12 0
BBX 12 12 0 -1
BITMAP
1800
1800
1800
FF80
1980
1980
6980
3980
1980
35B0
66B0
C1F0
ENDCHAR
STARTCHAR uni4E39
ENCODING 20025
SWIDTH 1000 0
DWIDTH 12 0
BBX 12 11 0 -1
BITMAP
3FE0
3060
3660
3360
3060
FFF0
3060
3060
3060
6060
61E0
ENDCHAR
STARTCHAR uni4E3B
ENCODING 20027
SWIDTH 1000 0
DWIDTH 12 0
BBX 12 12 0 -1
BITMAP
0C00
0600
0000
FFF0
0600
0600
0600
7FE0
0600
0600
0600
FFF0
ENDCHAR
STARTCHAR uni4E3C
ENCODING 20028
SWIDTH 1000 0
DWIDTH 12 0
BBX 12 12 0 -1
BITMAP
1980
1980
1980
FFF0
1980
1D80
1A80
1980
FFF0
3180
6180
6180
ENDCHAR
STARTCHAR uni4E3F
ENCODING 20031
SWIDTH 1000 0
DWIDTH 12 0
BBX 7 11 1 -1
BITMAP
06
06
06
06
06
06
06
0C
0C
38
E0
ENDCHAR
STARTCHAR uni4E42
ENCODING 20034
SWIDTH 1000 0
DWIDTH 12 0
BBX 12 11 0 -1
BITMAP
00C0
30C0
30C0
1980
1980
0D00
0D00
0600
0D00
39C0
E070
ENDCHAR
STARTCHAR uni4E43
ENCODING 20035
SWIDTH 1000 0
DWIDTH 12 0
BBX 11 11 1 -1
BITMAP
FF80
1980
1980
1980
19E0
3060
3060
6060
6060
C0C0
C780
ENDCHAR
STARTCHAR uni4E45
ENCODING 20037
SWIDTH 1000 0
DWIDTH 12 0
BBX 12 12 0 -1
BITMAP
1800
1800
1FC0
18C0
30C0
3180
0180
0300
0680
0CC0
3860
E030
ENDCHAR
STARTCHAR uni4E4B
ENCODING 20043
SWIDTH 1000 0
DWIDTH 12 0
BBX 12 12 0 -1
BITMAP
0600
0600
0600
7FE0
0060
00C0
0180
3300
3600
6C00
C700
C1F0
ENDCHAR
STARTCHAR uni4E4D
ENCODING 20045
SWIDTH 1000 0
DWIDTH 12 0
BBX 12 12 0 -1
BITMAP
3000
3000
3FF0
3600
6600
67E0
C600
C600
07F0
0600
0600
0600
ENDCHAR
STARTCHAR uni4E4E
ENCODING 20046
SWIDTH 1000 0
DWIDTH 12 0
BBX 12 11 0 -1
BITMAP
03E0
7E00
0600
6660
36C0
0600
FFF0
0600
0600
0600
1E00
ENDCHAR
STARTCHAR uni4E4F
ENCODING 20047
SWIDTH 1000 0
DWIDTH 12 0
BBX 12 11 0 -1
BITMAP
03E0
7E00
0600
0600
FFE0
00C0
0180
3300
3600
6C00
C7F0
ENDCHAR
STARTCHAR uni4E55
ENCODING 20053
SWIDTH 1000 0
DWIDTH 12 0
BBX 12 11 0 -1
BITMAP
7FF0
6300
7FF0
6300
7FF0
6300
6FF0
6B30
DB30
DB70
0300
ENDCHAR
STARTCHAR uni4E56
ENCODING 20054
SWIDTH 1000 0
DWIDTH 12 0
BBX 12 11 0 -1
BITMAP
7FE0
0600
FFF0
0600
1AB0
FAA0
1AC0
1A80
3AB0
EAF0
0600
ENDCHAR
STARTCHAR uni4E57
ENCODING 20055
SWIDTH 1000 0
DWIDTH 12 0
BBX 12 11 0 -1
BITMAP
7FE0
0600
7FE0
36C0
FFF0
36C0
36C0
7FE0
0E80
3AC0
E670
ENDCHAR
STARTCHAR uni4E58
ENCODING 20056
SWIDTH 1000 0
DWIDTH 12 0
BBX 12 11 0 -1
BITMAP
7FE0
0600
FFF0
1A80
FAB0
1AC0
3AB0
EAF0
0F00
3AC0
E670
ENDCHAR
STARTCHAR uni4E59
ENCODING 20057
SWIDTH 1000 0
DWIDTH 12 0
BBX 10 11 1 -1
BITMAP
FF80
0180
0300
0600
0C00
1800
3000
60C0
C0C0
C0C0
7F80
ENDCHAR
STARTCHAR uni4E5D
ENCODING 20061
SWIDTH 1000 0
DWIDTH 12 0
BBX 12 12 0 -1
BITMAP
0C00
0C00
0C00
FF80
0D80
0D80
0D80
0D80
1980
19B0
31B0
E0F0
ENDCHAR
STARTCHAR uni4E5E
ENCODING 20062
SWIDTH 1000 0
DWIDTH 12 0
BBX 12 12 0 -1
BITMAP
6000
6000
7FF0
6000
DFC0
C0C0
0380
0E00
3830
6030
6030
3FE0
ENDCHAR
STARTCHAR uni4E5F
ENCODING 20063
SWIDTH 1000 0
DWIDTH 12 0
BBX 12 12 0 -1
BITMAP
0600
0600
36E0
37A0
3E60
F660
3660
36E0
3600
3630
3030
1FF0
ENDCHAR
STARTCHAR uni4E62
ENCODING 20066
SWIDTH 1000 0
DWIDTH 12 0
BBX 12 12 0 -1
BITMAP
0300
3300
3300
3300
D500
D500
D500
D500
D530
D530
FD30
01F0
ENDCHAR
STARTCHAR uni4E71
ENCODING 20081
SWIDTH 1000 0
DWIDTH 12 0
BBX 12 11 0 -1
BITMAP
0E80
F980
3180
3180
FE80
3180
3180
FE80
C6B0
C6B0
FEF0
ENDCHAR
STARTCHAR uni4E73
ENCODING 20083
SWIDTH 1000 0
DWIDTH 12 0
BBX 12 11 0 -1
BITMAP
FD40
3340
DAC0
66C0
00C0
7CC0
0CC0
18C0
FF50
18D0
38F0
ENDCHAR
STARTCHAR uni4E7E
ENCODING 20094
SWIDTH 1000 0
DWIDTH 12 0
BBX 12 12 0 -1
BITMAP
0300
3300
FDF0
3300
FE00
CDF0
FC60
CCC0
FD80
3330
FE30
37F0
ENDCHAR
STARTCHAR uni4E80
ENCODING 20096
SWIDTH 1000 0
DWIDTH 12 0
BBX 12 11 0 -1
BITMAP
3F80
6300
FFC0
6CC0
7FE0
6C60
FFE0
CC60
FFE0
CC30
07F0
ENDCHAR
STARTCHAR uni4E82
ENCODING 20098
SWIDTH 1000 0
DWIDTH 12 0
BBX 12 11 0 -1
BITMAP
FF40
D6C0
DB40
7EC0
0CC0
FF40
D340
FF40
D550
DB50
D770
ENDCHAR
STARTCHAR uni4E85
ENCODING 20101
SWIDTH 1000 0
DWIDTH 12 0
BBX 5 11 2 -1
BITMAP
18
18
18
18
18
18
18
18
18
18
F8
ENDCHAR
STARTCHAR uni4E86
ENCODING 20102
SWIDTH 1000 0
DWIDTH 12 0
BBX 11 11 0 -1
BITMAP
FFE0
00C0
0180
0300
0600
0600
0600
0600
0600
0600
1E00
ENDCHAR
STARTCHAR uni4E88
ENCODING 20104
SWIDTH 1000 0
DWIDTH 12 0
BBX 12 11 0 -1
BITMAP
7FC0
0180
0300
0600
FFF0
0660
06C0
0600
0600
0600
1E00
ENDCHAR
STARTCHAR uni4E89
ENCODING 20105
SWIDTH 1000 0
DWIDTH 12 0
BBX 12 11 0 -1
BITMAP
1FC0
3180
6300
7FE0
0660
FFF0
0660
7FE0
0600
0600
1E00
ENDCHAR
STARTCHAR uni4E8A
ENCODING 20106
SWIDTH 1000 0
DWIDTH 12 0
BBX 12 12 0 -1
BITMAP
0600
0600
FFF0
36C0
1A80
7FE0
0660
FFF0
0660
7FE0
0600
1E00
ENDCHAR
STARTCHAR uni4E8B
ENCODING 20107
SWIDTH 1000 0
DWIDTH 12 0
BBX 12 12 0 -1
BITMAP
0600
0600
FFF0
36C0
36C0
7FE0
0660
FFF0
0660
7FE0
0600
1E00
ENDCHAR
STARTCHAR uni4E8C
ENCODING 20108
SWIDTH 1000 0
DWIDTH 12 0
BBX 12 8 0 0
BITMAP
7FE0
0000
0000
0000
0000
0000
0030
FFF0
ENDCHAR
STARTCHAR uni4E8E
ENCODING 20110
SWIDTH 1000 0
DWIDTH 12 0
BBX 12 11 0 -1
BITMAP
7FE0
0600
0600
0600
0600
FFF0
0600
0600
0600
0600
1E00
ENDCHAR
STARTCHAR uni4E91
ENCODING 20113
SWIDTH 1000 0
DWIDTH 12 0
BBX 12 11 0 -1
BITMAP
7FE0
0000
0000
0000
FFF0
1800
18C0
30C0
30C0
63A0
7E60
ENDCHAR
STARTCHAR uni4E92
ENCODING 20114
SWIDTH 1000 0
DWIDTH 12 0
BBX 12 11 0 -1
BITMAP
FFF0
0600
0C00
0FC0
18C0
1980
3180
3F00
0300
0600
FFF0
ENDCHAR
STARTCHAR uni4E94
ENCODING 20116
SWIDTH 1000 0
DWIDTH 12 0
BBX 12 11 0 -1
BITMAP
7FE0
0600
0600
0600
3FC0
0CC0
0CC0
18C0
18C0
18C0
FFF0
ENDCHAR
STARTCHAR uni4E95
ENCODING 20117
SWIDTH 1000 0
DWIDTH 12 0
BBX 12 12 0 -1
BITMAP
1980
1980
1980
FFF0
1980
1980
1980
FFF0
3180
3180
6180
6180
ENDCHAR
STARTCHAR uni4E98
ENCODING 20120
SWIDTH 1000 0
DWIDTH 12 0
BBX 12 11 0 -1
BITMAP
FFF0
0000
3FC0
30C0
3FC0
30C0
30C0
3FC0
0000
0000
FFF0
ENDCHAR
STARTCHAR uni4E99
ENCODING 20121
SWIDTH 1000 0
DWIDTH 12 0
BBX 12 11 0 -1
BITMAP
FFF0
0C00
0C00
0FC0
1AC0
1B40
3580
3680
0300
0300
FFF0
ENDCHAR
STARTCHAR uni4E9B
ENCODING 20123
SWIDTH 1000 0
DWIDTH 12 0
BBX 12 12 0 -1
BITMAP
0300
3370
DDC0
D300
D330
DF30
F3F0
0000
3FC0
0000
0000
FFF0
ENDCHAR
STARTCHAR uni4E9C
ENCODING 20124
SWIDTH 1000 0
DWIDTH 12 0
BBX 12 11 0 -1
BITMAP
FFF0
0D00
0D00
7FE0
6D60
6D60
6D60
7FE0
0D00
0D00
FFF0
ENDCHAR
STARTCHAR uni4E9E
ENCODING 20126
SWIDTH 1000 0
DWIDTH 12 0
BBX 12 11 0 -1
BITMAP
FFF0
0D00
0D00
7DE0
6060
6060
7DE0
0D00
0D00
0D00
FFF0
ENDCHAR
STARTCHAR uni4E9F
ENCODING 20127
SWIDTH 1000 0
DWIDTH 12 0
BBX 12 11 0 -1
BITMAP
FFF0
0C00
1800
1EF0
FA30
DAB0
DAA0
FAE0
07B0
0C00
FFF0
ENDCHAR
STARTCHAR uni4EA0
ENCODING 20128
SWIDTH 1000 0
DWIDTH 12 0
BBX 12 5 0 4
BITMAP
0600
0600
0600
0600
FFF0
ENDCHAR
STARTCHAR uni4EA1
ENCODING 20129
SWIDTH 1000 0
DWIDTH 12 0
BBX 12 12 0 -1
BITMAP
0600
0600
0600
FFF0
3000
3000
3000
3000
3000
3000
3000
1FF0
ENDCHAR
STARTCHAR uni4EA2
ENCODING 20130
SWIDTH 1000 0
DWIDTH 12 0
BBX 12 12 0 -1
BITMAP
0600
0600
FFF0
0000
0000
1F80
1980
1980
1980
19B0
31B0
E0F0
ENDCHAR
STARTCHAR uni4EA4
ENCODING 20132
SWIDTH 1000 0
DWIDTH 12 0
BBX 12 12 0 -1
BITMAP
0600
0600
FFF0
1980
30C0
6060
1980
0D00
0600
0D00
39C0
E070
ENDCHAR
STARTCHAR uni4EA5
ENCODING 20133
SWIDTH 1000 0
DWIDTH 12 0
BBX 12 12 0 -1
BITMAP
0600
0600
FFF0
18C0
3180
1B00
0E60
78C0
0180
0700
1DC0
F070
ENDCHAR
STARTCHAR uni4EA6
ENCODING 20134
SWIDTH 1000 0
DWIDTH 12 0
BBX 12 12 0 -1
BITMAP
0600
0600
0600
FFF0
0D80
0D80
6DA0
6DA0
CDB0
D9B0
1980
7380
ENDCHAR
STARTCHAR uni4EA8
ENCODING 20136
SWIDTH 1000 0
DWIDTH 12 0
BBX 12 12 0 -1
BITMAP
0600
0600
FFF0
1980
1980
1F80
0000
FFF0
0300
0600
0600
1E00
ENDCHAR
STARTCHAR uni4EAB
ENCODING 20139
SWIDTH 1000 0
DWIDTH 12 0
BBX 12 12 0 -1
BITMAP
0600
0600
FFF0
1980
1980
3FC0
0180
0300
FFF0
0600
0600
1E00
ENDCHAR
STARTCHAR uni4EAC
ENCODING 20140
SWIDTH 1000 0
DWIDTH 12 0
BBX 12 12 0 -1
BITMAP
0600
0600
FFF0
0000
3FC0
30C0
30C0
3FC0
0600
6660
C630
1E00
ENDCHAR
STARTCHAR uni4EAD
ENCODING 20141
SWIDTH 1000 0
DWIDTH 12 0
BBX 12 12 0 -1
BITMAP
0600
0600
FFF0
30C0
3FC0
0000
FFF0
C030
DFD0
0600
0600
1E00
ENDCHAR
STARTCHAR uni4EAE
ENCODING 20142
SWIDTH 1000 0
DWIDTH 12 0
BBX 12 12 0 -1
BITMAP
0600
0600
FFF0
30C0
30C0
3FC0
0000
FFF0
DB30
1B00
3330
E3F0
ENDCHAR
STARTCHAR uni4EB0
ENCODING 20144
SWIDTH 1000 0
DWIDTH 12 0
BBX 12 12 0 -1
BITMAP
0600
0600
FFF0
0000
3FC0
30C0
3FC0
30C0
3FC0
0600
6660
CE30
ENDCHAR
STARTCHAR uni4EB3
ENCODING 20147
SWIDTH 1000 0
DWIDTH 12 0
BBX 12 12 0 -1
BITMAP
0600
0600
FFF0
1980
1F80
0000
FFF0
C330
DE00
07E0
7E30
07F0
ENDCHAR
STARTCHAR uni4EB6
ENCODING 20150
SWIDTH 1000 0
DWIDTH 12 0
BBX 12 12 0 -1
BITMAP
0600
0600
FFF0
69A0
6FA0
6060
7FE0
30C0
3FC0
30C0
30C0
FFF0
ENDCHAR
STARTCHAR uni4EBA
ENCODING 20154
SWIDTH 1000 0
DWIDTH 12 0
BBX 12 11 0 -1
BITMAP
0600
0600
0600
0600
0D00
0D00
1980
1980
30C0
6060
C030
ENDCHAR
STARTCHAR uni4EC0
ENCODING 20160
SWIDTH 1000 0
DWIDTH 12 0
BBX 12 12 0 -1
BITMAP
00C0
30C0
30C0
60C0
6FF0
E0C0
60C0
60C0
60C0
60C0
60C0
60C0
ENDCHAR
STARTCHAR uni4EC1
ENCODING 20161
SWIDTH 1000 0
DWIDTH 12 0
BBX 12 11 0 -1
BITMAP
3000
37F0
6000
6000
E000
6000
6000
6000
6000
6FF0
6000
ENDCHAR
STARTCHAR uni4EC2
ENCODING 20162
SWIDTH 1000 0
DWIDTH 12 0
BBX 12 12 0 -1
BITMAP
0300
3300
3300
6FF0
6330
E330
6330
6630
6630
6C30
6C60
61C0
ENDCHAR
STARTCHAR uni4EC4
ENCODING 20164
SWIDTH 1000 0
DWIDTH 12 0
BBX 12 11 0 -1
BITMAP
7FF0
6000
6180
6180
6180
6180
6180
6340
C340
C660
1C30
ENDCHAR
STARTCHAR uni4EC6
ENCODING 20166
SWIDTH 1000 0
DWIDTH 12 0
BBX 12 12 0 -1
BITMAP
0180
1980
1980
3180
3180
71E0
D1B0
3180
3180
3180
3180
3180
ENDCHAR
STARTCHAR uni4EC7
ENCODING 20167
SWIDTH 1000 0
DWIDTH 12 0
BBX 12 12 0 -1
BITMAP
0300
3300
3300
6FE0
6360
E360
6360
6360
6660
6660
6C30
7830
ENDCHAR
STARTCHAR uni4ECA
ENCODING 20170
SWIDTH 1000 0
DWIDTH 12 0
BBX 12 11 0 -1
BITMAP
0F80
18C0
3060
6FD0
C000
0000
3FE0
0060
0060
01C0
0F00
ENDCHAR
STARTCHAR uni4ECB
ENCODING 20171
SWIDTH 1000 0
DWIDTH 12 0
BBX 12 11 0 -1
BITMAP
0F00
1980
30C0
69A0
D9B0
1980
1980
3180
3180
6180
6180
ENDCHAR
STARTCHAR uni4ECD
ENCODING 20173
SWIDTH 1000 0
DWIDTH 12 0
BBX 12 11 0 -1
BITMAP
3FC0
36C0
66C0
66C0
E6F0
6630
6630
6C30
6C30
6860
69C0
ENDCHAR
STARTCHAR uni4ECE
ENCODING 20174
SWIDTH 1000 0
DWIDTH 12 0
BBX 12 11 0 -1
BITMAP
3180
3180
3180
3180
3180
6B40
6B40
6A60
C660
CC30
CC30
ENDCHAR
STARTCHAR uni4ECF
ENCODING 20175
SWIDTH 1000 0
DWIDTH 12 0
BBX 12 11 0 -1
BITMAP
3300
3300
6300
6300
E300
6600
6660
6660
6C60
6CD0
6FB0
ENDCHAR
STARTCHAR uni4ED4
ENCODING 20180
SWIDTH 1000 0
DWIDTH 12 0
BBX 12 11 0 -1
BITMAP
37F0
3030
6060
60C0
E0C0
6FF0
60C0
60C0
60C0
60C0
63C0
ENDCHAR
STARTCHAR uni4ED5
ENCODING 20181
SWIDTH 1000 0
DWIDTH 12 0
BBX 12 12 0 -1
BITMAP
0180
3180
3180
6180
6FF0
E180
6180
6180
6180
6180
6180
6FF0
ENDCHAR
STARTCHAR uni4ED6
ENCODING 20182
SWIDTH 1000 0
DWIDTH 12 0
BBX 12 12 0 -1
BITMAP
0300
3300
3560
6DA0
6F60
ED60
6D60
6D60
6D00
6D30
6C30
6FF0
ENDCHAR
STARTCHAR uni4ED7
ENCODING 20183
SWIDTH 1000 0
DWIDTH 12 0
BBX 12 12 0 -1
BITMAP
00C0
30C0
30C0
6FF0
60C0
E0C0
66C0
6340
61C0
60C0
63A0
6E30
ENDCHAR
STARTCHAR uni4ED8
ENCODING 20184
SWIDTH 1000 0
DWIDTH 12 0
BBX 12 12 0 -1
BITMAP
0060
3060
3060
6FF0
6060
E060
6660
6360
6060
6060
6060
61E0
ENDCHAR
STARTCHAR uni4ED9
ENCODING 20185
SWIDTH 1000 0
DWIDTH 12 0
BBX 12 12 0 -1
BITMAP
0180
3180
3180
6180
6DB0
EDB0
6DB0
6DB0
6DB0
6DB0
6DB0
6FF0
ENDCHAR
STARTCHAR uni4EDD
ENCODING 20189
SWIDTH 1000 0
DWIDTH 12 0
BBX 12 11 0 -1
BITMAP
0F00
1980
30C0
6060
C030
3FC0
0600
0600
0600
0600
7FE0
ENDCHAR
STARTCHAR uni4EDE
ENCODING 20190
SWIDTH 1000 0
DWIDTH 12 0
BBX 12 11 0 -1
BITMAP
37F0
3330
6330
6D30
E730
6330
66B0
66B0
6C30
6C60
61C0
ENDCHAR
STARTCHAR uni4EDF
ENCODING 20191
SWIDTH 1000 0
DWIDTH 12 0
BBX 12 11 0 -1
BITMAP
30F0
3780
6180
6180
E180
6FF0
6180
6180
6180
6180
6180
ENDCHAR
STARTCHAR uni4EE3
ENCODING 20195
SWIDTH 1000 0
DWIDTH 12 0
BBX 12 12 0 -1
BITMAP
0300
3360
3330
6300
6FF0
E180
6180
6180
60C0
60C0
6060
6060
ENDCHAR
STARTCHAR uni4EE4
ENCODING 20196
SWIDTH 1000 0
DWIDTH 12 0
BBX 12 11 0 -1
BITMAP
0F80
18C0
3060
7FD0
C000
0000
7FE0
0660
0660
06C0
0600
ENDCHAR
STARTCHAR uni4EE5
ENCODING 20197
SWIDTH 1000 0
DWIDTH 12 0
BBX 12 11 0 -1
BITMAP
3060
3660
3660
3360
3360
3060
30C0
3CC0
E1A0
0730
1C30
ENDCHAR
STARTCHAR uni4EED
ENCODING 20205
SWIDTH 1000 0
DWIDTH 12 0
BBX 12 11 0 -1
BITMAP
37F0
3330
6D30
6730
E330
63B0
66D0
6670
6C30
6C60
61C0
ENDCHAR
STARTCHAR uni4EEE
ENCODING 20206
SWIDTH 1000 0
DWIDTH 12 0
BBX 12 11 0 -1
BITMAP
37F0
3400
6C00
6FE0
EC60
6D60
6DA0
68C0
68C0
63A0
6E30
ENDCHAR
STARTCHAR uni4EF0
ENCODING 20208
SWIDTH 1000 0
DWIDTH 12 0
BBX 12 11 0 -1
BITMAP
3380
36F0
6DB0
6DB0
EDB0
6DB0
6DB0
6DB0
6DB0
6EB0
6180
ENDCHAR
STARTCHAR uni4EF2
ENCODING 20210
SWIDTH 1000 0
DWIDTH 12 0
BBX 12 12 0 -1
BITMAP
0180
3180
3180
6FF0
69B0
E9B0
69B0
6FF0
6180
6180
6180
6180
ENDCHAR
STARTCHAR uni4EF6
ENCODING 20214
SWIDTH 1000 0
DWIDTH 12 0
BBX 12 12 0 -1
BITMAP
00C0
36C0
36C0
67F0
6CC0
ECC0
60C0
6FF0
60C0
60C0
60C0
60C0
ENDCHAR
STARTCHAR uni4EF7
ENCODING 20215
SWIDTH 1000 0
DWIDTH 12 0
BBX 12 11 0 -1
BITMAP
33C0
3660
6C30
6800
E660
6660
6660
6660
6660
6C60
6C60
ENDCHAR
STARTCHAR uni4EFB
ENCODING 20219
SWIDTH 1000 0
DWIDTH 12 0
BBX 12 11 0 -1
BITMAP
30E0
3780
6180
6180
E180
6FF0
6180
6180
6180
6180
6FF0
ENDCHAR
STARTCHAR uni4F01
ENCODING 20225
SWIDTH 1000 0
DWIDTH 12 0
BBX 12 11 0 -1
BITMAP
0F00
1980
30C0
6660
C630
0600
37C0
3600
3600
3600
FFF0
ENDCHAR
STARTCHAR uni4F09
ENCODING 20233
SWIDTH 1000 0
DWIDTH 12 0
BBX 12 12 0 -1
BITMAP
0180
3180
37F0
6000
6000
E7E0
6660
6660
6660
6660
6C60
6C70
ENDCHAR
STARTCHAR uni4F0A
ENCODING 20234
SWIDTH 1000 0
DWIDTH 12 0
BBX 12 11 0 -1
BITMAP
37F0
31B0
61B0
6FF0
E1B0
61B0
6FF0
6180
6180
6300
6E00
ENDCHAR
STARTCHAR uni4F0D
ENCODING 20237
SWIDTH 1000 0
DWIDTH 12 0
BBX 12 11 0 -1
BITMAP
37F0
3180
6180
6180
EFE0
6360
6360
6660
6660
6660
6FF0
ENDCHAR
STARTCHAR uni4F0E
ENCODING 20238
SWIDTH 1000 0
DWIDTH 12 0
BBX 12 12 0 -1
BITMAP
0180
3180
3FF0
6180
6180
EFE0
6060
6660
6660
6340
63C0
6E70
ENDCHAR
STARTCHAR uni4F0F
ENCODING 20239
SWIDTH 1000 0
DWIDTH 12 0
BBX 12 12 0 -1
BITMAP
0180
31A0
31B0
6180
6FF0
E180
6180
6180
6340
6340
6660
6C30
ENDCHAR
STARTCHAR uni4F10
ENCODING 20240
SWIDTH 1000 0
DWIDTH 12 0
BBX 12 12 0 -1
BITMAP
0300
3360
3330
6300
6FF0
E180
61B0
61A0
60C0
61C0
6760
6C30
ENDCHAR
STARTCHAR uni4F11
ENCODING 20241
SWIDTH 1000 0
DWIDTH 12 0
BBX 12 12 0 -1
BITMAP
0180
3180
3180
6FF0
6180
E180
6380
66C0
6DA0
69B0
6180
6180
ENDCHAR
STARTCHAR uni4F1A
ENCODING 20250
SWIDTH 1000 0
DWIDTH 12 0
BBX 12 11 0 -1
BITMAP
0F00
1980
30C0
6FA0
C030
0000
FFF0
18C0
18C0
33A0
3E60
ENDCHAR
STARTCHAR uni4F1C
ENCODING 20252
SWIDTH 1000 0
DWIDTH 12 0
BBX 12 12 0 -1
BITMAP
0300
3300
37E0
6360
6360
E670
6680
6180
6FF0
6180
6180
6180
ENDCHAR
STARTCHAR uni4F1D
ENCODING 20253
SWIDTH 1000 0
DWIDTH 12 0
BBX 12 11 0 -1
BITMAP
37E0
3000
6000
6000
EFF0
6300
6300
6660
6660
6CD0
6FB0
ENDCHAR
STARTCHAR uni4F2F
ENCODING 20271
SWIDTH 1000 0
DWIDTH 12 0
BBX 12 12 0 -1
BITMAP
0180
3180
3300
6FF0
6C30
EC30
6C30
6FF0
6C30
6C30
6C30
6FF0
ENDCHAR
STARTCHAR uni4F30
ENCODING 20272
SWIDTH 1000 0
DWIDTH 12 0
BBX 12 12 0 -1
BITMAP
0180
3180
3180
6FF0
6180
E180
6180
6FF0
6C30
6C30
6C30
6FF0
ENDCHAR
STARTCHAR uni4F34
ENCODING 20276
SWIDTH 1000 0
DWIDTH 12 0
BBX 12 12 0 -1
BITMAP
0180
3180
35B0
66A0
6180
EFF0
6180
6180
6FF0
6180
6180
6180
ENDCHAR
STARTCHAR uni4F36
ENCODING 20278
SWIDTH 1000 0
DWIDTH 12 0
BBX 12 11 0 -1
BITMAP
33C0
3660
6C30
6FE0
E000
6000
6FF0
6330
6330
6360
6300
ENDCHAR
STARTCHAR uni4F38
ENCODING 20280
SWIDTH 1000 0
DWIDTH 12 0
BBX 12 12 0 -1
BITMAP
0180
3180
37F0
6DB0
6DB0
EFF0
6DB0
6DB0
6FF0
6180
6180
6180
ENDCHAR
STARTCHAR uni4F3A
ENCODING 20282
SWIDTH 1000 0
DWIDTH 12 0
BBX 12 11 0 -1
BITMAP
37F0
3030
6030
6FB0
E030
6FB0
6DB0
6DB0
6FB0
6030
6070
ENDCHAR
STARTCHAR uni4F3C
ENCODING 20284
SWIDTH 1000 0
DWIDTH 12 0
BBX 12 11 0 -1
BITMAP
3460
3460
6D60
6DA0
EC60
6C60
6CC0
6EC0
79A0
6330
6E30
ENDCHAR
STARTCHAR uni4F3D
ENCODING 20285
SWIDTH 1000 0
DWIDTH 12 0
BBX 12 12 0 -1
BITMAP
0C00
3400
34F0
6F50
6D50
ED50
6D50
6D50
6B50
6B50
6350
6EF0
ENDCHAR
STARTCHAR uni4F43
ENCODING 20291
SWIDTH 1000 0
DWIDTH 12 0
BBX 12 11 0 -1
BITMAP
37F0
35B0
6DB0
6DB0
EDB0
6FF0
6DB0
6DB0
6DB0
6DB0
6FF0
ENDCHAR
STARTCHAR uni4F46
ENCODING 20294
SWIDTH 1000 0
DWIDTH 12 0
BBX 12 11 0 -1
BITMAP
37F0
3630
6630
67F0
E630
6630
6630
67F0
6000
6000
6FF0
ENDCHAR
STARTCHAR uni4F47
ENCODING 20295
SWIDTH 1000 0
DWIDTH 12 0
BBX 12 12 0 -1
BITMAP
0180
3180
37F0
6C30
6C30
E000
6FF0
60C0
60C0
60C0
60C0
63C0
ENDCHAR
STARTCHAR uni4F4D
ENCODING 20301
SWIDTH 1000 0
DWIDTH 12 0
BBX 12 12 0 -1
BITMAP
0180
3180
3180
6FF0
6000
E660
6660
6660
6660
66C0
60C0
6FF0
ENDCHAR
STARTCHAR uni4F4E
ENCODING 20302
SWIDTH 1000 0
DWIDTH 12 0
BBX 12 11 0 -1
BITMAP
3070
37C0
6CC0
6CC0
EFF0
6C60
6C60
6C30
6F30
6000
6FF0
ENDCHAR
STARTCHAR uni4F4F
ENCODING 20303
SWIDTH 1000 0
DWIDTH 12 0
BBX 12 12 0 -1
BITMAP
0300
3180
3000
6FF0
6180
E180
6180
6FF0
6180
6180
6180
6FF0
ENDCHAR
STARTCHAR uni4F50
ENCODING 20304
SWIDTH 1000 0
DWIDTH 12 0
BBX 12 12 0 -1
BITMAP
0300
3300
3FF0
6600
6600
E600
6FF0
6CC0
68C0
68C0
60C0
6FF0
ENDCHAR
STARTCHAR uni4F51
ENCODING 20305
SWIDTH 1000 0
DWIDTH 12 0
BBX 12 12 0 -1
BITMAP
0180
3180
37F0
6180
6180
E300
67F0
6E30
7A30
6630
6630
67F0
ENDCHAR
STARTCHAR uni4F53
ENCODING 20307
SWIDTH 1000 0
DWIDTH 12 0
BBX 12 12 0 -1
BITMAP
0180
3180
3180
6FF0
6180
E380
66C0
6DA0
69B0
6FE0
6180
6180
ENDCHAR
STARTCHAR uni4F55
ENCODING 20309
SWIDTH 1000 0
DWIDTH 12 0
BBX 12 11 0 -1
BITMAP
37F0
3060
6060
6F60
ED60
6D60
6D60
6F60
6060
6060
61E0
ENDCHAR
STARTCHAR uni4F57
ENCODING 20311
SWIDTH 1000 0
DWIDTH 12 0
BBX 12 12 0 -1
BITMAP
0180
3180
37F0
6C30
6C30
E600
66E0
6780
6600
6600
6630
63F0
ENDCHAR
STARTCHAR uni4F59
ENCODING 20313
SWIDTH 1000 0
DWIDTH 12 0
BBX 12 11 0 -1
BITMAP
0F00
1980
30C0
6FA0
C630
0600
7FE0
0600
6660
C630
1E00
ENDCHAR
STARTCHAR uni4F5A
ENCODING 20314
SWIDTH 1000 0
DWIDTH 12 0
BBX 12 12 0 -1
BITMAP
0180
3580
3580
6FF0
6980
E980
6FF0
6180
6180
6340
6660
6C30
ENDCHAR
STARTCHAR uni4F5B
ENCODING 20315
SWIDTH 1000 0
DWIDTH 12 0
BBX 12 12 0 -1
BITMAP
0340
3340
3FF0
6350
6FF0
ED40
6D40
6FF0
6350
6350
66E0
6CC0
ENDCHAR
STARTCHAR uni4F5C
ENCODING 20316
SWIDTH 1000 0
DWIDTH 12 0
BBX 12 12 0 -1
BITMAP
0600
3600
37F0
6680
6D80
EDF0
6180
6180
61F0
6180
6180
6180
ENDCHAR
STARTCHAR uni4F5D
ENCODING 20317
SWIDTH 1000 0
DWIDTH 12 0
BBX 12 12 0 -1
BITMAP
0600
3600
37F0
6C30
6C30
E7B0
66B0
66B0
67B0
6030
6060
61C0
ENDCHAR
STARTCHAR uni4F5E
ENCODING 20318
SWIDTH 1000 0
DWIDTH 12 0
BBX 12 11 0 -1
BITMAP
37E0
3000
6000
6FF0
E300
6300
6FF0
6660
6EC0
63C0
6E70
ENDCHAR
STARTCHAR uni4F69
ENCODING 20329
SWIDTH 1000 0
DWIDTH 12 0
BBX 12 11 0 -1
BITMAP
1FE0
3860
6FA0
EA60
6A60
6FA0
6AA0
6AA0
6AB0
76B0
6630
ENDCHAR
STARTCHAR uni4F6F
ENCODING 20335
SWIDTH 1000 0
DWIDTH 12 0
BBX 12 12 0 -1
BITMAP
0660
3360
30C0
6FF0
6180
E180
6FF0
6180
6180
6FF0
6180
6180
ENDCHAR
STARTCHAR uni4F70
ENCODING 20336
SWIDTH 1000 0
DWIDTH 12 0
BBX 12 11 0 -1
BITMAP
37F0
30C0
6180
67F0
E630
6630
67F0
6630
6630
6630
67F0
ENDCHAR
STARTCHAR uni4F73
ENCODING 20339
SWIDTH 1000 0
DWIDTH 12 0
BBX 12 12 0 -1
BITMAP
0180
3180
37F0
6180
6180
EFF0
6180
6180
6FF0
6180
6180
6FF0
ENDCHAR
STARTCHAR uni4F75
ENCODING 20341
SWIDTH 1000 0
DWIDTH 12 0
BBX 12 12 0 -1
BITMAP
0C60
3660
30C0
6FF0
6660
E660
6660
6FF0
6660
6660
6C60
6C60
ENDCHAR
STARTCHAR uni4F76
ENCODING 20342
SWIDTH 1000 0
DWIDTH 12 0
BBX 12 12 0 -1
BITMAP
00C0
30C0
37F0
60C0
60C0
E7F0
6000
6000
67F0
6630
6630
67F0
ENDCHAR
STARTCHAR uni4F7B
ENCODING 20347
SWIDTH 1000 0
DWIDTH 12 0
BBX 12 12 0 -1
BITMAP
0180
3680
36B0
6AA0
6E80
E680
66C0
6EA0
6AB0
6680
6DB0
78F0
ENDCHAR
STARTCHAR uni4F7C
ENCODING 20348
SWIDTH 1000 0
DWIDTH 12 0
BBX 12 12 0 -1
BITMAP
0180
3180
37F0
6000
6660
EC30
6000
6660
6340
61C0
6760
6C30
ENDCHAR
STARTCHAR uni4F7F
ENCODING 20351
SWIDTH 1000 0
DWIDTH 12 0
BBX 12 12 0 -1
BITMAP
0180
3180
37F0
6180
6FF0
EDB0
6DB0
6FF0
6180
6380
66C0
6C70
ENDCHAR
STARTCHAR uni4F83
ENCODING 20355
SWIDTH 1000 0
DWIDTH 12 0
BBX 12 11 0 -1
BITMAP
37F0
3430
6C30
6C30
EFF0
6000
66A0
66A0
66A0
6DA0
69B0
ENDCHAR
STARTCHAR uni4F86
ENCODING 20358
SWIDTH 1000 0
DWIDTH 12 0
BBX 12 12 0 -1
BITMAP
0600
0600
FFF0
0600
36C0
36C0
6AA0
C630
0F00
3AC0
E670
0600
ENDCHAR
STARTCHAR uni4F88
ENCODING 20360
SWIDTH 1000 0
DWIDTH 12 0
BBX 12 12 0 -1
BITMAP
0180
3180
33F0
6E30
6360
E1C0
6F00
63F0
6E30
6360
61C0
6F00
ENDCHAR
STARTCHAR uni4F8B
ENCODING 20363
SWIDTH 1000 0
DWIDTH 12 0
BBX 12 11 0 -1
BITMAP
3FB0
34D0
6CD0
6F50
EB50
6B50
6D50
66D0
6630
6C30
7870
ENDCHAR
STARTCHAR uni4F8D
ENCODING 20365
SWIDTH 1000 0
DWIDTH 12 0
BBX 12 12 0 -1
BITMAP
0180
3180
37F0
6180
6180
EFF0
6060
6FF0
6060
6660
6360
60E0
ENDCHAR
STARTCHAR uni4F8F
ENCODING 20367
SWIDTH 1000 0
DWIDTH 12 0
BBX 12 12 0 -1
BITMAP
0180
3580
3580
6FF0
6980
E980
6FF0
6180
63C0
66A0
6DB0
6180
ENDCHAR
STARTCHAR uni4F91
ENCODING 20369
SWIDTH 1000 0
DWIDTH 12 0
BBX 12 12 0 -1
BITMAP
0180
3180
37F0
6300
6300
E7F0
6630
6FF0
6A30
67F0
6630
6670
ENDCHAR
STARTCHAR uni4F96
ENCODING 20374
SWIDTH 1000 0
DWIDTH 12 0
BBX 12 11 0 -1
BITMAP
1F80
30C0
7FE0
C030
7FE0
6D60
6D60
7FE0
6D60
6D60
6D60
ENDCHAR
STARTCHAR uni4F98
ENCODING 20376
SWIDTH 1000 0
DWIDTH 12 0
BBX 12 12 0 -1
BITMAP
0300
3300
3FF0
6830
69D0
EF00
6300
63F0
6F00
6300
6330
63F0
ENDCHAR
STARTCHAR uni4F9B
ENCODING 20379
SWIDTH 1000 0
DWIDTH 12 0
BBX 12 12 0 -1
BITMAP
06C0
36C0
36C0
6FF0
66C0
E6C0
66C0
6FF0
6000
66C0
6C60
6830
ENDCHAR
STARTCHAR uni4F9D
ENCODING 20381
SWIDTH 1000 0
DWIDTH 12 0
BBX 12 12 0 -1
BITMAP
0180
3180
3FF0
6300
6300
E6B0
6DB0
6DA0
74C0
6CC0
6DA0
6E30
ENDCHAR
STARTCHAR uni4FA0
ENCODING 20384
SWIDTH 1000 0
DWIDTH 12 0
BBX 12 12 0 -1
BITMAP
0180
3180
37F0
6180
6DB0
E6A0
6180
6FF0
6180
6340
6660
6C30
ENDCHAR
STARTCHAR uni4FA1
ENCODING 20385
SWIDTH 1000 0
DWIDTH 12 0
BBX 12 11 0 -1
BITMAP
37F0
3340
6340
6FF0
ED50
6D50
6D50
6D50
6D50
6D50
6FF0
ENDCHAR
STARTCHAR uni4FAB
ENCODING 20395
SWIDTH 1000 0
DWIDTH 12 0
BBX 12 12 0 -1
BITMAP
0180
3180
3FF0
6C00
6C00
E7E0
6300
6FF0
6660
6EC0
63C0
6E70
ENDCHAR
STARTCHAR uni4FAD
ENCODING 20397
SWIDTH 1000 0
DWIDTH 12 0
BBX 12 11 0 -1
BITMAP
37F0
3430
6C30
6FF0
EC60
6C60
6B60
69B0
6830
6700
61E0
ENDCHAR
STARTCHAR uni4FAE
ENCODING 20398
SWIDTH 1000 0
DWIDTH 12 0
BBX 12 12 0 -1
BITMAP
0600
3600
37F0
6C00
6FE0
E6A0
66A0
6FF0
6D60
6D60
6FF0
60C0
ENDCHAR
STARTCHAR uni4FAF
ENCODING 20399
SWIDTH 1000 0
DWIDTH 12 0
BBX 12 11 0 -1
BITMAP
37E0
3060
6060
6FF0
E600
67F0
6D80
6FF0
6340
6660
6C30
ENDCHAR
STARTCHAR uni4FB5
ENCODING 20405
SWIDTH 1000 0
DWIDTH 12 0
BBX 12 11 0 -1
BITMAP
37E0
3060
6FE0
6060
EFF0
6830
6FE0
6660
66C0
63C0
6E70
ENDCHAR
STARTCHAR uni4FB6
ENCODING 20406
SWIDTH 1000 0
DWIDTH 12 0
BBX 12 11 0 -1
BITMAP
37F0
3430
6C30
6FF0
E180
6300
6FF0
6C30
6C30
6C30
6FF0
ENDCHAR
STARTCHAR uni4FBF
ENCODING 20415
SWIDTH 1000 0
DWIDTH 12 0
BBX 12 11 0 -1
BITMAP
37F0
3180
6FF0
6DB0
EFF0
6DB0
6FF0
6680
6380
66C0
6C70
ENDCHAR
STARTCHAR uni4FC2
ENCODING 20418
SWIDTH 1000 0
DWIDTH 12 0
BBX 12 11 0 -1
BITMAP
37F0
3300
6660
6CC0
E680
6330
6FF0
6180
6DA0
69B0
6180
ENDCHAR
STARTCHAR uni4FC3
ENCODING 20419
SWIDTH 1000 0
DWIDTH 12 0
BBX 12 11 0 -1
BITMAP
37F0
3430
6C30
6FF0
E180
6180
6DF0
6D80
6D80
6F80
78F0
ENDCHAR
STARTCHAR uni4FC4
ENCODING 20420
SWIDTH 1000 0
DWIDTH 12 0
BBX 12 12 0 -1
BITMAP
00C0
3750
3CD0
6CC0
6DF0
FEC0
6CD0
6F50
7C60
6C60
6DD0
6F30
ENDCHAR
STARTCHAR uni4FCA
ENCODING 20426
SWIDTH 1000 0
DWIDTH 12 0
BBX 12 12 0 -1
BITMAP
0300
3360
3660
6FF0
6340
E6D0
6C70
63E0
6E60
66C0
63C0
6E70
ENDCHAR
STARTCHAR uni4FCE
ENCODING 20430
SWIDTH 1000 0
DWIDTH 12 0
BBX 12 11 0 -1
BITMAP
33F0
3330
3330
3BF0
6D30
C330
33F0
3330
3B30
6D30
C7F0
ENDCHAR
STARTCHAR uni4FD0
ENCODING 20432
SWIDTH 1000 0
DWIDTH 12 0
BBX 12 11 0 -1
BITMAP
33B0
3ED0
66D0
66D0
EFD0
66D0
6ED0
6F30
6AB0
6A30
6670
ENDCHAR
STARTCHAR uni4FD1
ENCODING 20433
SWIDTH 1000 0
DWIDTH 12 0
BBX 12 11 0 -1
BITMAP
37E0
30C0
6180
6FF0
EDB0
6FF0
6DB0
6FF0
6DB0
6DB0
6DB0
ENDCHAR
STARTCHAR uni4FD4
ENCODING 20436
SWIDTH 1000 0
DWIDTH 12 0
BBX 12 11 0 -1
BITMAP
37F0
3430
6FF0
6C30
EFF0
6C30
6FF0
6340
6340
66D0
6CF0
ENDCHAR
STARTCHAR uni4FD7
ENCODING 20439
SWIDTH 1000 0
DWIDTH 12 0
BBX 12 11 0 -1
BITMAP
3660
3430
6000
61C0
E360
6630
6C00
67F0
6630
6630
67F0
ENDCHAR
STARTCHAR uni4FD8
ENCODING 20440
SWIDTH 1000 0
DWIDTH 12 0
BBX 12 11 0 -1
BITMAP
37F0
3600
6DA0
6DB0
E000
63F0
6060
60C0
6FF0
60C0
61C0
ENDCHAR
STARTCHAR uni4FDA
ENCODING 20442
SWIDTH 1000 0
DWIDTH 12 0
BBX 12 11 0 -1
BITMAP
37F0
35B0
6FF0
6DB0
EDB0
6FF0
6180
6FF0
6180
6180
6FF0
ENDCHAR
STARTCHAR uni4FDB
ENCODING 20443
SWIDTH 1000 0
DWIDTH 12 0
BBX 12 11 0 -1
BITMAP
37C0
34C0
6980
6FF0
EDB0
6DB0
6FF0
6340
6340
66D0
6CF0
ENDCHAR
STARTCHAR uni4FDD
ENCODING 20445
SWIDTH 1000 0
DWIDTH 12 0
BBX 12 11 0 -1
BITMAP
37F0
3430
6C30
6FF0
E180
6FF0
6180
63C0
66A0
6DB0
6180
ENDCHAR
STARTCHAR uni4FDF
ENCODING 20447
SWIDTH 1000 0
DWIDTH 12 0
BBX 12 12 0 -1
BITMAP
0300
3340
3660
6FF0
6600
E7F0
6D80
6D80
6FF0
6340
6660
6C30
ENDCHAR
STARTCHAR uni4FE1
ENCODING 20449
SWIDTH 1000 0
DWIDTH 12 0
BBX 12 11 0 -1
BITMAP
37F0
3000
6FF0
6000
E7F0
6000
6000
67F0
6630
6630
67F0
ENDCHAR
STARTCHAR uni4FE3
ENCODING 20451
SWIDTH 1000 0
DWIDTH 12 0
BBX 12 11 0 -1
BITMAP
37F0
3430
6C30
6FF0
E000
6FF0
6180
6FF0
6180
6740
6C70
ENDCHAR
STARTCHAR uni4FE4
ENCODING 20452
SWIDTH 1000 0
DWIDTH 12 0
BBX 12 12 0 -1
BITMAP
0CC0
36C0
3180
6FE0
6360
EFE0
6B00
6FF0
6730
6D30
6B60
6300
ENDCHAR
STARTCHAR uni4FE5
ENCODING 20453
SWIDTH 1000 0
DWIDTH 12 0
BBX 12 12 0 -1
BITMAP
0180
3180
37F0
6180
6FF0
EDB0
6FF0
6DB0
6FF0
6180
6FF0
6180
ENDCHAR
STARTCHAR uni4FEE
ENCODING 20462
SWIDTH 1000 0
DWIDTH 12 0
BBX 12 12 0 -1
BITMAP
0600
3600
37F0
6C60
6D60
E1C0
69B0
6B00
68E0
6B80
6070
6FC0
ENDCHAR
STARTCHAR uni4FEF
ENCODING 20463
SWIDTH 1000 0
DWIDTH 12 0
BBX 12 12 0 -1
BITMAP
0300
3300
3FF0
6B60
6B60
EBF0
6E60
6AA0
6AE0
6A60
7660
66E0
ENDCHAR
STARTCHAR uni4FF3
ENCODING 20467
SWIDTH 1000 0
DWIDTH 12 0
BBX 12 12 0 -1
BITMAP
00C0
3340
3F70
6340
6340
EF70
6340
6340
6F40
6370
66C0
6CC0
ENDCHAR
STARTCHAR uni4FF5
ENCODING 20469
SWIDTH 1000 0
DWIDTH 12 0
BBX 12 12 0 -1
BITMAP
0180
3180
3FF0
6180
6FF0
E180
6FF0
6330
66A0
6EC0
6660
6FB0
ENDCHAR
STARTCHAR uni4FF6
ENCODING 20470
SWIDTH 1000 0
DWIDTH 12 0
BBX 12 12 0 -1
BITMAP
0600
36F0
37B0
6630
66D0
EFD0
66D0
6660
6AA0
6AA0
66D0
6EB0
ENDCHAR
STARTCHAR uni4FF8
ENCODING 20472
SWIDTH 1000 0
DWIDTH 12 0
BBX 12 12 0 -1
BITMAP
0180
3180
37F0
6300
6FF0
E6C0
6FF0
6DA0
6BF0
6180
6FF0
6180
ENDCHAR
STARTCHAR uni4FFA
ENCODING 20474
SWIDTH 1000 0
DWIDTH 12 0
BBX 12 12 0 -1
BITMAP
0180
3180
3FF0
6660
6DB0
EFF0
75B0
6FF0
6DB0
6FF0
6180
61F0
ENDCHAR
STARTCHAR uni4FFE
ENCODING 20478
SWIDTH 1000 0
DWIDTH 12 0
BBX 12 12 0 -1
BITMAP
0180
3300
37F0
6DB0
6FF0
EDB0
6DB0
6FF0
6340
66C0
6FF0
60C0
ENDCHAR
STARTCHAR uni5005
ENCODING 20485
SWIDTH 1000 0
DWIDTH 12 0
BBX 12 12 0 -1
BITMAP
0180
3180
37F0
6000
6660
E660
6D50
6180
6180
6FF0
6180
6180
ENDCHAR
STARTCHAR uni5006
ENCODING 20486
SWIDTH 1000 0
DWIDTH 12 0
BBX 12 11 0 -1
BITMAP
3FF0
3300
6300
6FF0
EB30
6BD0
6D50
6D50
6BB0
6B30
6B70
ENDCHAR
STARTCHAR uni5009
ENCODING 20489
SWIDTH 1000 0
DWIDTH 12 0
BBX 12 11 0 -1
BITMAP
0F80
18C0
3FE0
7070
DFE0
3060
3FE0
3000
6FE0
6860
1FE0
ENDCHAR
STARTCHAR uni500B
ENCODING 20491
SWIDTH 1000 0
DWIDTH 12 0
BBX 12 11 0 -1
BITMAP
37F0
35B0
6DB0
6FF0
EDB0
6DD0
6D50
6D50
6DD0
6C30
6FF0
ENDCHAR
STARTCHAR uni500D
ENCODING 20493
SWIDTH 1000 0
DWIDTH 12 0
BBX 12 12 0 -1
BITMAP
0180
1980
1FF0
3360
3360
F7F0
3000
3000
37F0
3630
3630
37F0
ENDCHAR
STARTCHAR uni500F
ENCODING 20495
SWIDTH 1000 0
DWIDTH 12 0
BBX 12 12 0 -1
BITMAP
0300
3300
33F0
6A60
6D60
EBC0
6EB0
69A0
6FF0
6980
6740
6C70
ENDCHAR
STARTCHAR uni5011
ENCODING 20497
SWIDTH 1000 0
DWIDTH 12 0
BBX 12 11 0 -1
BITMAP
3770
3550
6F70
6D50
ED50
6F70
6C30
6C30
6C30
6C30
6C70
ENDCHAR
STARTCHAR uni5012
ENCODING 20498
SWIDTH 1000 0
DWIDTH 12 0
BBX 12 11 0 -1
BITMAP
3FB0
36D0
6CD0
68D0
EFD0
66D0
66D0
6F50
6630
6630
6FB0
ENDCHAR
STARTCHAR uni5014
ENCODING 20500
SWIDTH 1000 0
DWIDTH 12 0
BBX 12 11 0 -1
BITMAP
37F0
3430
6FF0
6CC0
ED50
6D50
6DF0
6CC0
6AD0
6AD0
67F0
ENDCHAR
STARTCHAR uni5016
ENCODING 20502
SWIDTH 1000 0
DWIDTH 12 0
BBX 12 12 0 -1
BITMAP
0180
3180
37F0
6180
6FF0
E660
6660
6FF0
6180
6FF0
6180
6180
ENDCHAR
STARTCHAR uni5019
ENCODING 20505
SWIDTH 1000 0
DWIDTH 12 0
BBX 12 11 0 -1
BITMAP
37E0
3060
6860
6FF0
EB00
6BF0
6AC0
6BF0
68C0
69A0
6730
ENDCHAR
STARTCHAR uni501A
ENCODING 20506
SWIDTH 1000 0
DWIDTH 12 0
BBX 12 12 0 -1
BITMAP
0180
3180
37F0
6340
6660
EC30
6FF0
6030
67B0
66B0
67B0
6070
ENDCHAR
STARTCHAR uni501F
ENCODING 20511
SWIDTH 1000 0
DWIDTH 12 0
BBX 12 12 0 -1
BITMAP
0360
3360
37F0
6360
6360
EFF0
6000
67F0
6630
67F0
6630
67F0
ENDCHAR
STARTCHAR uni5021
ENCODING 20513
SWIDTH 1000 0
DWIDTH 12 0
BBX 12 11 0 -1
BITMAP
37E0
3660
67E0
6660
E7E0
6000
6FF0
6C30
6FF0
6C30
6FF0
ENDCHAR
STARTCHAR uni5023
ENCODING 20515
SWIDTH 1000 0
DWIDTH 12 0
BBX 12 12 0 -1
BITMAP
0D80
3580
35F0
6FB0
6DB0
EC30
6F50
6D50
6B60
6B60
6350
6EB0
ENDCHAR
STARTCHAR uni5024
ENCODING 20516
SWIDTH 1000 0
DWIDTH 12 0
BBX 12 12 0 -1
BITMAP
00C0
30C0
37F0
60C0
63F0
ED30
6DF0
6D30
6D30
6DF0
6C00
6FF0
ENDCHAR
STARTCHAR uni5025
ENCODING 20517
SWIDTH 1000 0
DWIDTH 12 0
BBX 12 12 0 -1
BITMAP
0180
3180
3FF0
6B50
6B40
E350
6EF0
6000
67E0
6180
6180
6FF0
ENDCHAR
STARTCHAR uni5026
ENCODING 20518
SWIDTH 1000 0
DWIDTH 12 0
BBX 12 12 0 -1
BITMAP
0300
35B0
3660
6FF0
66C0
EFF0
6660
6FF0
7860
6FE0
6C30
6FF0
ENDCHAR
STARTCHAR uni5028
ENCODING 20520
SWIDTH 1000 0
DWIDTH 12 0
BBX 12 11 0 -1
BITMAP
37F0
3430
6FF0
6CC0
EFF0
6CC0
6CC0
6FF0
6A30
6A30
67F0
ENDCHAR
STARTCHAR uni5029
ENCODING 20521
SWIDTH 1000 0
DWIDTH 12 0
BBX 12 12 0 -1
BITMAP
0180
3180
37F0
6180
6FF0
E180
6FF0
6DB0
6DB0
6FF0
6C30
6C70
ENDCHAR
STARTCHAR uni502A
ENCODING 20522
SWIDTH 1000 0
DWIDTH 12 0
BBX 12 12 0 -1
BITMAP
0180
3300
36F0
6C30
6F70
EC30
6C30
6FF0
6340
6340
66D0
6CF0
ENDCHAR
STARTCHAR uni502B
ENCODING 20523
SWIDTH 1000 0
DWIDTH 12 0
BBX 12 11 0 -1
BITMAP
33C0
3660
6C30
6BF0
E000
6FF0
6D50
6D50
6FF0
6D50
6D50
ENDCHAR
STARTCHAR uni502C
ENCODING 20524
SWIDTH 1000 0
DWIDTH 12 0
BBX 12 12 0 -1
BITMAP
0300
3300
33F0
6300
6FF0
EC30
6FF0
6C30
6FF0
6180
6FF0
6180
ENDCHAR
STARTCHAR uni502D
ENCODING 20525
SWIDTH 1000 0
DWIDTH 12 0
BBX 12 11 0 -1
BITMAP
37F0
3180
6FF0
6380
E6A0
6DB0
6FF0
6660
66C0
63C0
6E70
ENDCHAR
STARTCHAR uni5036
ENCODING 20534
SWIDTH 1000 0
DWIDTH 12 0
BBX 12 11 0 -1
BITMAP
37E0
3460
6FE0
6C60
EFE0
6C60
6C60
6FF0
6000
6C60
6830
ENDCHAR
STARTCHAR uni5039
ENCODING 20537
SWIDTH 1000 0
DWIDTH 12 0
BBX 12 11 0 -1
BITMAP
33C0
3660
6FF0
6980
EFF0
6DB0
6DB0
6FF0
6180
6740
6C70
ENDCHAR
STARTCHAR uni5043
ENCODING 20547
SWIDTH 1000 0
DWIDTH 12 0
BBX 12 11 0 -1
BITMAP
37F0
3530
6DF0
6D30
EDF0
6CC0
6FF0
6DA0
6DE0
6D30
6FF0
ENDCHAR
STARTCHAR uni5047
ENCODING 20551
SWIDTH 1000 0
DWIDTH 12 0
BBX 12 11 0 -1
BITMAP
37F0
35B0
6DB0
6FB0
EC00
6DF0
6F30
6CD0
6F50
6CE0
6DB0
ENDCHAR
STARTCHAR uni5048
ENCODING 20552
SWIDTH 1000 0
DWIDTH 12 0
BBX 12 11 0 -1
BITMAP
37E0
3460
6FE0
6C60
EFE0
6600
6FF0
6DB0
6D50
6FB0
60E0
ENDCHAR
STARTCHAR uni5049
ENCODING 20553
SWIDTH 1000 0
DWIDTH 12 0
BBX 12 12 0 -1
BITMAP
0180
3180
37F0
6330
6FF0
EC60
6FE0
6180
6FF0
6D80
6FF0
6180
ENDCHAR
STARTCHAR uni504F
ENCODING 20559
SWIDTH 1000 0
DWIDTH 12 0
BBX 12 11 0 -1
BITMAP
37F0
3000
6FF0
6C30
EFF0
6C00
6FF0
7550
6FF0
6D50
6D50
ENDCHAR
STARTCHAR uni5050
ENCODING 20560
SWIDTH 1000 0
DWIDTH 12 0
BBX 12 12 0 -1
BITMAP
0180
3180
37F0
6660
63C0
E660
6FF0
6D30
6CE0
6B80
6870
67C0
ENDCHAR
STARTCHAR uni5055
ENCODING 20565
SWIDTH 1000 0
DWIDTH 12 0
BBX 12 12 0 -1
BITMAP
00C0
34C0
3770
6CC0
6CC0
EF70
6180
6FF0
6C30
6FF0
6C30
6FF0
ENDCHAR
STARTCHAR uni5056
ENCODING 20566
SWIDTH 1000 0
DWIDTH 12 0
BBX 12 12 0 -1
BITMAP
0180
3180
37F0
61B0
61A0
EFF0
6360
67F0
6E30
6BF0
6630
67F0
ENDCHAR
STARTCHAR uni505A
ENCODING 20570
SWIDTH 1000 0
DWIDTH 12 0
BBX 12 12 0 -1
BITMAP
0D80
3580
35F0
6FB0
6DB0
EC30
6CD0
6F50
6B60
6B60
6B50
6FB0
ENDCHAR
STARTCHAR uni505C
ENCODING 20572
SWIDTH 1000 0
DWIDTH 12 0
BBX 12 12 0 -1
BITMAP
0300
3300
3FF0
6C60
6FE0
E000
6FF0
6830
6FF0
6180
6180
6780
ENDCHAR
STARTCHAR uni5065
ENCODING 20581
SWIDTH 1000 0
DWIDTH 12 0
BBX 12 12 0 -1
BITMAP
00C0
30C0
3DF0
6CD0
6FF0
E8D0
6DF0
6CC0
77F0
68C0
6C00
77F0
ENDCHAR
STARTCHAR uni506C
ENCODING 20588
SWIDTH 1000 0
DWIDTH 12 0
BBX 12 12 0 -1
BITMAP
0600
3600
37F0
6B50
6ED0
EDB0
6B50
6060
6300
6DA0
7430
67C0
ENDCHAR
STARTCHAR uni5072
ENCODING 20594
SWIDTH 1000 0
DWIDTH 12 0
BBX 12 11 0 -1
BITMAP
37F0
35B0
6FF0
6DB0
EDB0
6FF0
6300
61A0
6A30
7600
63E0
ENDCHAR
STARTCHAR uni5074
ENCODING 20596
SWIDTH 1000 0
DWIDTH 12 0
BBX 12 11 0 -1
BITMAP
1F30
3B50
6F50
EB50
6F50
6B50
6B50
6F50
6030
6B30
71B0
ENDCHAR
STARTCHAR uni5075
ENCODING 20597
SWIDTH 1000 0
DWIDTH 12 0
BBX 12 12 0 -1
BITMAP
0300
3300
33F0
6300
6FF0
EC30
6FF0
6C30
6FF0
6000
6660
6C30
ENDCHAR
STARTCHAR uni5076
ENCODING 20598
SWIDTH 1000 0
DWIDTH 12 0
BBX 12 11 0 -1
BITMAP
37F0
35B0
6FF0
6DB0
EFF0
6180
6FF0
6D30
6D50
6FD0
6C70
ENDCHAR
STARTCHAR uni5078
ENCODING 20600
SWIDTH 1000 0
DWIDTH 12 0
BBX 12 11 0 -1
BITMAP
37C0
3660
6C30
6BF0
E000
6F50
6B50
6FA0
6BA0
6F50
6B50
ENDCHAR
STARTCHAR uni507D
ENCODING 20605
SWIDTH 1000 0
DWIDTH 12 0
BBX 12 12 0 -1
BITMAP
0CC0
36C0
3180
6FC0
66C0
EFE0
6860
7FF0
6030
6AB0
6AB0
60E0
ENDCHAR
STARTCHAR uni5080
ENCODING 20608
SWIDTH 1000 0
DWIDTH 12 0
BBX 12 12 0 -1
BITMAP
0180
3300
37F0
6DB0
6FF0
EDB0
6DB0
6FF0
66A0
66A0
6DB0
6CF0
ENDCHAR
STARTCHAR uni5085
ENCODING 20613
SWIDTH 1000 0
DWIDTH 12 0
BBX 12 12 0 -1
BITMAP
0180
31B0
37F0
6180
6FF0
EDB0
6FF0
6DB0
6060
6FF0
6660
6360
ENDCHAR
STARTCHAR uni508D
ENCODING 20621
SWIDTH 1000 0
DWIDTH 12 0
BBX 12 12 0 -1
BITMAP
0180
3180
3FF0
66C0
66C0
EFF0
6B30
6FF0
6600
67F0
6C30
6CE0
ENDCHAR
STARTCHAR uni5091
ENCODING 20625
SWIDTH 1000 0
DWIDTH 12 0
BBX 12 12 0 -1
BITMAP
0060
3760
35F0
6D60
67F0
E660
6DA0
6180
6FF0
6380
66A0
6DB0
ENDCHAR
STARTCHAR uni5098
ENCODING 20632
SWIDTH 1000 0
DWIDTH 12 0
BBX 12 11 0 -1
BITMAP
1F80
30C0
6AA0
D6D0
6AA0
36C0
6AA0
C630
FFF0
0600
0600
ENDCHAR
STARTCHAR uni5099
ENCODING 20633
SWIDTH 1000 0
DWIDTH 12 0
BBX 12 12 0 -1
BITMAP
06C0
36C0
3FF0
66C0
6FF0
EC00
6FF0
6DB0
77F0
6DB0
6FF0
6DB0
ENDCHAR
STARTCHAR uni509A
ENCODING 20634
SWIDTH 1000 0
DWIDTH 12 0
BBX 12 12 0 -1
BITMAP
06C0
36C0
3FF0
60D0
6D50
E9B0
6030
61A0
6D60
6660
6D50
69B0
ENDCHAR
STARTCHAR uni50AC
ENCODING 20652
SWIDTH 1000 0
DWIDTH 12 0
BBX 12 12 0 -1
BITMAP
0180
35B0
35B0
6FF0
6660
EFF0
6CC0
77F0
6CC0
6FF0
6CC0
6FF0
ENDCHAR
STARTCHAR uni50AD
ENCODING 20653
SWIDTH 1000 0
DWIDTH 12 0
BBX 12 12 0 -1
BITMAP
0180
3180
37F0
6DB0
6FF0
EDB0
6DF0
6D80
6FF0
75B0
6FF0
6DB0
ENDCHAR
STARTCHAR uni50B2
ENCODING 20658
SWIDTH 1000 0
DWIDTH 12 0
BBX 12 12 0 -1
BITMAP
06C0
36C0
3F70
66D0
6FD0
E630
6FD0
6CD0
6F60
6B60
6350
6EB0
ENDCHAR
STARTCHAR uni50B3
ENCODING 20659
SWIDTH 1000 0
DWIDTH 12 0
BBX 12 12 0 -1
BITMAP
0180
3180
3FF0
6DB0
6FF0
EDB0
6FF0
6060
6FF0
6060
6660
6360
ENDCHAR
STARTCHAR uni50B4
ENCODING 20660
SWIDTH 1000 0
DWIDTH 12 0
BBX 12 11 0 -1
BITMAP
37F0
3400
6DE0
6D60
EDE0
6C00
6F70
6D50
6F70
6C00
6FF0
ENDCHAR
STARTCHAR uni50B5
ENCODING 20661
SWIDTH 1000 0
DWIDTH 12 0
BBX 12 12 0 -1
BITMAP
0180
3180
3FF0
6180
6FF0
E180
6FF0
6C60
6FE0
6C60
6FE0
7870
ENDCHAR
STARTCHAR uni50B7
ENCODING 20663
SWIDTH 1000 0
DWIDTH 12 0
BBX 12 12 0 -1
BITMAP
0600
3600
37F0
6C60
6FE0
EC60
6FF0
6600
6FF0
6DB0
6B30
66E0
ENDCHAR
STARTCHAR uni50BE
ENCODING 20670
SWIDTH 1000 0
DWIDTH 12 0
BBX 12 11 0 -1
BITMAP
37F0
30C0
6BF0
6B30
EBF0
6D30
6BF0
6B30
6DF0
6360
6E30
ENDCHAR
STARTCHAR uni50C2
ENCODING 20674
SWIDTH 1000 0
DWIDTH 12 0
BBX 12 12 0 -1
BITMAP
0180
3180
37F0
6DB0
6FF0
EDB0
6FF0
6DB0
6FF0
6660
67C0
6C70
ENDCHAR
STARTCHAR uni50C5
ENCODING 20677
SWIDTH 1000 0
DWIDTH 12 0
BBX 12 12 0 -1
BITMAP
06C0
36C0
3FF0
66C0
6FF0
EDB0
6DB0
6FF0
6180
6FF0
6180
6FF0
ENDCHAR
STARTCHAR uni50C9
ENCODING 20681
SWIDTH 1000 0
DWIDTH 12 0
BBX 12 11 0 -1
BITMAP
1F80
30C0
7FE0
C030
7DE0
6D60
6D60
7DE0
30C0
69A0
CD30
ENDCHAR
STARTCHAR uni50CA
ENCODING 20682
SWIDTH 1000 0
DWIDTH 12 0
BBX 12 11 0 -1
BITMAP
37F0
3340
6FF0
6D50
EFF0
6180
6FF0
6660
6FE0
6A30
67F0
ENDCHAR
STARTCHAR uni50CD
ENCODING 20685
SWIDTH 1000 0
DWIDTH 12 0
BBX 12 12 0 -1
BITMAP
00C0
3FC0
36C0
6FF0
6AD0
EFD0
6AD0
6FD0
66D0
6FB0
6630
6F60
ENDCHAR
STARTCHAR uni50CF
ENCODING 20687
SWIDTH 1000 0
DWIDTH 12 0
BBX 12 11 0 -1
BITMAP
37E0
34C0
6FF0
6DB0
EDB0
6FF0
66C0
6DD0
6760
6CD0
6380
ENDCHAR
STARTCHAR uni50D1
ENCODING 20689
SWIDTH 1000 0
DWIDTH 12 0
BBX 12 11 0 -1
BITMAP
37F0
3300
6FF0
66C0
EEE0
6BD0
7000
6FF0
6AD0
6BD0
6870
ENDCHAR
STARTCHAR uni50D5
ENCODING 20693
SWIDTH 1000 0
DWIDTH 12 0
BBX 12 12 0 -1
BITMAP
0680
36A0
3FF0
66C0
66C0
EFF0
6180
6FF0
6180
6FF0
66C0
6C70
ENDCHAR
STARTCHAR uni50D6
ENCODING 20694
SWIDTH 1000 0
DWIDTH 12 0
BBX 12 12 0 -1
BITMAP
0180
3180
3FF0
6180
6FF0
EC30
6FF0
6660
6FF0
6C30
6C30
6FF0
ENDCHAR
STARTCHAR uni50DA
ENCODING 20698
SWIDTH 1000 0
DWIDTH 12 0
BBX 12 12 0 -1
BITMAP
0180
3180
3FF0
6A60
6FF0
EC30
6FF0
7430
6FF0
6180
6DA0
6BB0
ENDCHAR
STARTCHAR uni50DE
ENCODING 20702
SWIDTH 1000 0
DWIDTH 12 0
BBX 12 11 0 -1
BITMAP
37F0
3560
69B0
6FE0
EC60
6FF0
6C30
6FF0
6830
6AB0
6D60
ENDCHAR
STARTCHAR uni50E3
ENCODING 20707
SWIDTH 1000 0
DWIDTH 12 0
BBX 12 12 0 -1
BITMAP
06C0
36C0
3FF0
66C0
6FF0
EDA0
6B30
6FE0
6C60
6FE0
6C60
6FE0
ENDCHAR
STARTCHAR uni50E5
ENCODING 20709
SWIDTH 1000 0
DWIDTH 12 0
BBX 12 12 0 -1
BITMAP
0180
3180
37F0
6180
6FF0
E660
6F70
6660
6FF0
6340
66D0
6CF0
ENDCHAR
STARTCHAR uni50E7
ENCODING 20711
SWIDTH 1000 0
DWIDTH 12 0
BBX 12 12 0 -1
BITMAP
0660
36C0
3FF0
69B0
6FF0
E9B0
6FF0
6C60
6FE0
6C60
6C60
6FE0
ENDCHAR
STARTCHAR uni50ED
ENCODING 20717
SWIDTH 1000 0
DWIDTH 12 0
BBX 12 12 0 -1
BITMAP
06C0
36C0
3FF0
6AC0
6FF0
EDA0
6B70
6FE0
6C60
6FE0
6C60
6FE0
ENDCHAR
STARTCHAR uni50EE
ENCODING 20718
SWIDTH 1000 0
DWIDTH 12 0
BBX 12 12 0 -1
BITMAP
0180
3180
3FF0
6660
6660
EFF0
6DB0
6FF0
6DB0
6FF0
6180
6FF0
ENDCHAR
STARTCHAR uni50F5
ENCODING 20725
SWIDTH 1000 0
DWIDTH 12 0
BBX 12 11 0 -1
BITMAP
3FF0
35B0
6FF0
6DB0
EFF0
6000
6FF0
6DB0
6FF0
6DB0
6FF0
ENDCHAR
STARTCHAR uni50F9
ENCODING 20729
SWIDTH 1000 0
DWIDTH 12 0
BBX 12 11 0 -1
BITMAP
3FF0
3340
6FF0
6B50
EFF0
6C60
6FE0
6C60
6FE0
6660
6C30
ENDCHAR
STARTCHAR uni50FB
ENCODING 20731
SWIDTH 1000 0
DWIDTH 12 0
BBX 12 12 0 -1
BITMAP
00C0
1EC0
3BF0
6AA0
EAA0
6EA0
6BF0
6EC0
7AC0
6BF0
6AC0
6EC0
ENDCHAR
STARTCHAR uni5100
ENCODING 20736
SWIDTH 1000 0
DWIDTH 12 0
BBX 12 12 0 -1
BITMAP
0660
36C0
3FF0
6180
6FF0
E180
6FF0
6D80
7FF0
6DB0
6EE0
6DB0
ENDCHAR
STARTCHAR uni5101
ENCODING 20737
SWIDTH 1000 0
DWIDTH 12 0
BBX 12 12 0 -1
BITMAP
06C0
36C0
37F0
6D80
6FF0
ED80
6FF0
6000
6F70
6D50
6DD0
6C70
ENDCHAR
STARTCHAR uni5102
ENCODING 20738
SWIDTH 1000 0
DWIDTH 12 0
BBX 12 12 0 -1
BITMAP
0340
3340
37F0
6D50
6FF0
ED50
6FF0
6C00
6FF0
6AA0
6AC0
6770
ENDCHAR
STARTCHAR uni5104
ENCODING 20740
SWIDTH 1000 0
DWIDTH 12 0
BBX 12 12 0 -1
BITMAP
0180
3180
3FF0
6660
6FF0
EC30
6FF0
6C30
6FF0
6680
6A60
77D0
ENDCHAR
STARTCHAR uni5109
ENCODING 20745
SWIDTH 1000 0
DWIDTH 12 0
BBX 12 11 0 -1
BITMAP
37E0
3430
6BF0
6000
EF70
6D50
6D50
6F70
6660
6D50
69B0
ENDCHAR
STARTCHAR uni5112
ENCODING 20754
SWIDTH 1000 0
DWIDTH 12 0
BBX 12 11 0 -1
BITMAP
37F0
3180
6FF0
6DB0
EDB0
6000
6FF0
6180
6FF0
6D50
6D50
ENDCHAR
STARTCHAR uni5114
ENCODING 20756
SWIDTH 1000 0
DWIDTH 12 0
BBX 12 12 0 -1
BITMAP
0180
3180
37F0
6180
6FF0
E030
6FE0
6180
6FF0
6D30
6D50
6F70
ENDCHAR
STARTCHAR uni5115
ENCODING 20757
SWIDTH 1000 0
DWIDTH 12 0
BBX 12 12 0 -1
BITMAP
0300
3300
3FF0
6AA0
6BA0
F6D0
6C60
6FE0
6C60
6FE0
6860
6860
ENDCHAR
STARTCHAR uni5116
ENCODING 20758
SWIDTH 1000 0
DWIDTH 12 0
BBX 12 11 0 -1
BITMAP
37A0
3540
6FF0
6D80
EF80
6D70
6D00
6FF0
6D50
6D50
6FF0
ENDCHAR
STARTCHAR uni5118
ENCODING 20760
SWIDTH 1000 0
DWIDTH 12 0
BBX 12 12 0 -1
BITMAP
0180
3180
37F0
61B0
6FF0
E1B0
6FF0
6D60
69B0
6FF0
6D50
6FF0
ENDCHAR
STARTCHAR uni511A
ENCODING 20762
SWIDTH 1000 0
DWIDTH 12 0
BBX 12 12 0 -1
BITMAP
06C0
36C0
3FF0
66C0
6FF0
ED50
6FF0
6A30
67E0
6D60
61C0
6F00
ENDCHAR
STARTCHAR uni511F
ENCODING 20767
SWIDTH 1000 0
DWIDTH 12 0
BBX 12 12 0 -1
BITMAP
0180
36A0
3FF0
6AD0
6AC0
EFF0
6C30
6FF0
6C30
6FF0
6660
6C30
ENDCHAR
STARTCHAR uni5121
ENCODING 20769
SWIDTH 1000 0
DWIDTH 12 0
BBX 12 11 0 -1
BITMAP
37E0
35A0
6FE0
6DA0
EFE0
6000
6FF0
6B50
6FF0
6B50
6FF0
ENDCHAR
STARTCHAR uni512A
ENCODING 20778
SWIDTH 1000 0
DWIDTH 12 0
BBX 12 11 0 -1
BITMAP
3FF0
3460
37E0
6C60
7FF0
ED50
6A60
67F0
6E60
63C0
6E70
ENDCHAR
STARTCHAR uni5132
ENCODING 20786
SWIDTH 1000 0
DWIDTH 12 0
BBX 12 12 0 -1
BITMAP
00C0
3EC0
31F0
6EC0
60D0
EEF0
60C0
61F0
6FB0
6AF0
6AB0
6EF0
ENDCHAR
STARTCHAR uni5137
ENCODING 20791
SWIDTH 1000 0
DWIDTH 12 0
BBX 12 11 0 -1
BITMAP
3770
3000
6F70
6D50
E180
6FF0
6D50
6FF0
6AC0
6BD0
6EF0
ENDCHAR
STARTCHAR uni513A
ENCODING 20794
SWIDTH 1000 0
DWIDTH 12 0
BBX 12 12 0 -1
BITMAP
0180
35A0
3FA0
6DF0
6FA0
EAF0
6FA0
6DA0
7FF0
6DA0
6AA0
73F0
ENDCHAR
STARTCHAR uni513B
ENCODING 20795
SWIDTH 1000 0
DWIDTH 12 0
BBX 12 12 0 -1
BITMAP
0180
36A0
3FF0
66D0
6FF0
EDB0
6FF0
6180
6FF0
6180
6FF0
6D50
ENDCHAR
STARTCHAR uni513C
ENCODING 20796
SWIDTH 1000 0
DWIDTH 12 0
BBX 12 11 0 -1
BITMAP
3770
3550
6FF0
6AC0
EF70
6B50
6FB0
6B50
6F50
7B60
63B0
ENDCHAR
STARTCHAR uni513F
ENCODING 20799
SWIDTH 1000 0
DWIDTH 12 0
BBX 12 11 0 -1
BITMAP
3300
3300
3300
3300
3300
3300
3300
6330
6330
C330
C3F0
ENDCHAR
STARTCHAR uni5140
ENCODING 20800
SWIDTH 1000 0
DWIDTH 12 0
BBX 12 11 0 -1
BITMAP
FFF0
1B00
1B00
1B00
1B00
3300
3300
6330
6330
C330
C3F0
ENDCHAR
STARTCHAR uni5141
ENCODING 20801
SWIDTH 1000 0
DWIDTH 12 0
BBX 12 12 0 -1
BITMAP
0C00
0C00
18C0
18C0
3060
FFE0
1B30
1B30
1B00
1B00
3330
E3F0
ENDCHAR
STARTCHAR uni5143
ENCODING 20803
SWIDTH 1000 0
DWIDTH 12 0
BBX 12 11 0 -1
BITMAP
7FE0
0000
0000
0000
FFF0
1B00
1B00
1B00
1B30
3330
E3F0
ENDCHAR
STARTCHAR uni5144
ENCODING 20804
SWIDTH 1000 0
DWIDTH 12 0
BBX 12 11 0 -1
BITMAP
3FC0
30C0
30C0
30C0
30C0
3FC0
1B00
1B00
1B30
3330
E3F0
ENDCHAR
STARTCHAR uni5145
ENCODING 20805
SWIDTH 1000 0
DWIDTH 12 0
BBX 12 12 0 -1
BITMAP
0600
0600
FFF0
0C00
0D80
18C0
7FE0
1B30
1B00
1B00
3330
E1F0
ENDCHAR
STARTCHAR uni5146
ENCODING 20806
SWIDTH 1000 0
DWIDTH 12 0
BBX 12 12 0 -1
BITMAP
0300
1B00
DB30
6B60
1B40
1B00
3B40
6B60
DB30
1B00
3330
E3F0
ENDCHAR
STARTCHAR uni5147
ENCODING 20807
SWIDTH 1000 0
DWIDTH 12 0
BBX 12 11 0 -1
BITMAP
69A0
6D60
6660
6D60
69A0
6060
7FE0
1B00
1B30
3330
E1F0
ENDCHAR
STARTCHAR uni5148
ENCODING 20808
SWIDTH 1000 0
DWIDTH 12 0
BBX 12 12 0 -1
BITMAP
0600
3600
3600
3FE0
6600
C600
FFF0
0D80
0D80
0D80
19B0
F1F0
ENDCHAR
STARTCHAR uni5149
ENCODING 20809
SWIDTH 1000 0
DWIDTH 12 0
BBX 12 12 0 -1
BITMAP
0600
0600
6660
36C0
0600
0600
FFF0
1B00
1B00
1B30
3330
E3F0
ENDCHAR
STARTCHAR uni514B
ENCODING 20811
SWIDTH 1000 0
DWIDTH 12 0
BBX 12 12 0 -1
BITMAP
0600
0600
FFF0
0600
3FC0
30C0
30C0
3FC0
1B00
1B30
3330
E3F0
ENDCHAR
STARTCHAR uni514C
ENCODING 20812
SWIDTH 1000 0
DWIDTH 12 0
BBX 12 11 0 -1
BITMAP
37C0
30C0
6060
7FE0
D0D0
D0D0
3FC0
1B00
1B30
3330
E3F0
ENDCHAR
STARTCHAR uni514D
ENCODING 20813
SWIDTH 1000 0
DWIDTH 12 0
BBX 12 11 0 -1
BITMAP
1F80
3180
6300
FFE0
6660
6660
7FE0
1B00
1B30
3330
E3F0
ENDCHAR
STARTCHAR uni514E
ENCODING 20814
SWIDTH 1000 0
DWIDTH 12 0
BBX 12 11 0 -1
BITMAP
03F0
FE00
0600
7FE0
6660
6660
7FE0
1B40
1B60
3330
E1F0
ENDCHAR
STARTCHAR uni5150
ENCODING 20816
SWIDTH 1000 0
DWIDTH 12 0
BBX 12 11 0 -1
BITMAP
6FE0
6C60
6C60
6FE0
6C60
6C60
6FE0
0D80
0DB0
19B0
F1F0
ENDCHAR
STARTCHAR uni5152
ENCODING 20818
SWIDTH 1000 0
DWIDTH 12 0
BBX 12 12 0 -1
BITMAP
0600
0C00
79E0
6060
7DE0
6060
6060
7FE0
1B00
1B30
3330
E3F0
ENDCHAR
STARTCHAR uni5154
ENCODING 20820
SWIDTH 1000 0
DWIDTH 12 0
BBX 12 11 0 -1
BITMAP
1F80
3180
6300
FFE0
6660
6660
7FE0
1A80
1AD0
3630
E7F0
ENDCHAR
STARTCHAR uni515A
ENCODING 20826
SWIDTH 1000 0
DWIDTH 12 0
BBX 12 12 0 -1
BITMAP
0600
3660
36C0
FFF0
C030
DFD0
30C0
30C0
3FC0
1B30
3330
E3F0
ENDCHAR
STARTCHAR uni515C
ENCODING 20828
SWIDTH 1000 0
DWIDTH 12 0
BBX 12 12 0 -1
BITMAP
0600
0C00
EFB0
D9B0
DFB0
D9B0
D9B0
EFB0
0300
1B00
1B30
F3F0
ENDCHAR
STARTCHAR uni5162
ENCODING 20834
SWIDTH 1000 0
DWIDTH 12 0
BBX 12 12 0 -1
BITMAP
30C0
30C0
FDF0
30C0
FDF0
CD30
CD30
FDF0
69A0
69A0
DB60
DD70
ENDCHAR
STARTCHAR uni5165
ENCODING 20837
SWIDTH 1000 0
DWIDTH 12 0
BBX 12 11 0 -1
BITMAP
3E00
0600
0600
0600
0600
0D00
0D00
1980
3180
60C0
C070
ENDCHAR
STARTCHAR uni5168
ENCODING 20840
SWIDTH 1000 0
DWIDTH 12 0
BBX 12 11 0 -1
BITMAP
0F00
1980
30C0
6060
DFD0
0600
0600
3FC0
0600
0600
FFF0
ENDCHAR
STARTCHAR uni5169
ENCODING 20841
SWIDTH 1000 0
DWIDTH 12 0
BBX 12 11 0 -1
BITMAP
FFF0
0600
0600
FFF0
C630
DAD0
DAD0
DAD0
EF70
C630
C670
ENDCHAR
STARTCHAR uni516A
ENCODING 20842
SWIDTH 1000 0
DWIDTH 12 0
BBX 12 11 0 -1
BITMAP
7F80
18C0
3FB0
6000
FDB0
CDB0
F560
CD60
F560
CDB0
DDB0
ENDCHAR
STARTCHAR uni516B
ENCODING 20843
SWIDTH 1000 0
DWIDTH 12 0
BBX 12 11 0 -1
BITMAP
1F80
0180
0180
3180
30C0
30C0
60C0
6060
6060
C030
C030
ENDCHAR
STARTCHAR uni516C
ENCODING 20844
SWIDTH 1000 0
DWIDTH 12 0
BBX 12 11 0 -1
BITMAP
07C0
30C0
30C0
6060
6060
CC30
CC30
18C0
18C0
33A0
3E60
ENDCHAR
STARTCHAR uni516D
ENCODING 20845
SWIDTH 1000 0
DWIDTH 12 0
BBX 12 12 0 -1
BITMAP
0600
0600
0600
FFF0
0000
0000
30C0
30C0
6060
6060
C030
C030
ENDCHAR
STARTCHAR uni516E
ENCODING 20846
SWIDTH 1000 0
DWIDTH 12 0
BBX 12 11 0 -1
BITMAP
37C0
30C0
6060
7FE0
D830
D830
1FC0
30C0
30C0
0180
0700
ENDCHAR
STARTCHAR uni5171
ENCODING 20849
SWIDTH 1000 0
DWIDTH 12 0
BBX 12 12 0 -1
BITMAP
1980
1980
1980
7FE0
1980
1980
1980
FFF0
0000
1980
30C0
6060
ENDCHAR
STARTCHAR uni5175
ENCODING 20853
SWIDTH 1000 0
DWIDTH 12 0
BBX 12 11 0 -1
BITMAP
01C0
3F00
3000
3FE0
3180
3180
3180
FFF0
0000
39C0
E070
ENDCHAR
STARTCHAR uni5176
ENCODING 20854
SWIDTH 1000 0
DWIDTH 12 0
BBX 12 12 0 -1
BITMAP
1980
1980
FFF0
1980
1F80
1980
1F80
1980
FFF0
0000
39C0
E070
ENDCHAR
STARTCHAR uni5177
ENCODING 20855
SWIDTH 1000 0
DWIDTH 12 0
BBX 12 11 0 -1
BITMAP
3FC0
30C0
3FC0
30C0
3FC0
30C0
30C0
FFF0
0000
39C0
E070
ENDCHAR
STARTCHAR uni5178
ENCODING 20856
SWIDTH 1000 0
DWIDTH 12 0
BBX 12 12 0 -1
BITMAP
0D00
0D00
7FE0
6D60
6D60
7FE0
6D60
6D60
FFF0
0000
39C0
E070
ENDCHAR
STARTCHAR uni517C
ENCODING 20860
SWIDTH 1000 0
DWIDTH 12 0
BBX 12 12 0 -1
BITMAP
18C0
1980
FFF0
1B00
7FC0
1B40
FFF0
1B40
7FC0
1B00
6B60
DB30
ENDCHAR
STARTCHAR uni5180
ENCODING 20864
SWIDTH 1000 0
DWIDTH 12 0
BBX 12 12 0 -1
BITMAP
0D00
0D70
FDC0
0D30
FFF0
36C0
3FC0
36C0
7FE0
1980
FFF0
30C0
ENDCHAR
STARTCHAR uni5182
ENCODING 20866
SWIDTH 1000 0
DWIDTH 12 0
BBX 12 11 0 -1
BITMAP
FFF0
C030
C030
C030
C030
C030
C030
C030
C030
C030
C0F0
ENDCHAR
STARTCHAR uni5185
ENCODING 20869
SWIDTH 1000 0
DWIDTH 12 0
BBX 12 12 0 -1
BITMAP
0600
0600
0600
FFF0
C630
C630
CD30
D9B0
D0D0
C030
C030
C0F0
ENDCHAR
STARTCHAR uni5186
ENCODING 20870
SWIDTH 1000 0
DWIDTH 12 0
BBX 12 11 0 -1
BITMAP
FFF0
C630
C630
C630
C630
FFF0
C030
C030
C030
C030
C0F0
ENDCHAR
STARTCHAR uni5189
ENCODING 20873
SWIDTH 1000 0
DWIDTH 12 0
BBX 12 12 0 -1
BITMAP
0600
0600
7FE0
6660
6660
7FE0
6660
6660
FFF0
6060
6060
60E0
ENDCHAR
STARTCHAR uni518A
ENCODING 20874
SWIDTH 1000 0
DWIDTH 12 0
BBX 12 11 0 -1
BITMAP
7FE0
6D60
6D60
6D60
6D60
FFF0
6D60
6D60
6D60
6D60
60E0
ENDCHAR
STARTCHAR uni518C
ENCODING 20876
SWIDTH 1000 0
DWIDTH 12 0
BBX 12 11 0 -1
BITMAP
7DE0
6D60
6D60
6D60
FFF0
6D60
6D60
6D60
6D60
CD60
DD60
ENDCHAR
STARTCHAR uni518D
ENCODING 20877
SWIDTH 1000 0
DWIDTH 12 0
BBX 12 11 0 -1
BITMAP
FFF0
0600
7FE0
6660
7FE0
6660
6660
FFF0
6060
6060
60E0
ENDCHAR
STARTCHAR uni518F
ENCODING 20879
SWIDTH 1000 0
DWIDTH 12 0
BBX 12 11 0 -1
BITMAP
FFF0
CD30
CD30
DB30
D1F0
EFB0
D9B0
D9B0
DFB0
C030
C070
ENDCHAR
STARTCHAR uni5190
ENCODING 20880
SWIDTH 1000 0
DWIDTH 12 0
BBX 12 11 0 -1
BITMAP
FFF0
C030
DFD0
C030
3FC0
30C0
3FC0
30C0
3FC0
30C0
31C0
ENDCHAR
STARTCHAR uni5191
ENCODING 20881
SWIDTH 1000 0
DWIDTH 12 0
BBX 12 12 0 -1
BITMAP
0600
0600
FFF0
C630
FFF0
C630
FFF0
6060
6FA0
6060
6FA0
60E0
ENDCHAR
STARTCHAR uni5192
ENCODING 20882
SWIDTH 1000 0
DWIDTH 12 0
BBX 11 11 1 -1
BITMAP
FFE0
C060
FFE0
C060
FFE0
0000
7FC0
60C0
7FC0
60C0
7FC0
ENDCHAR
STARTCHAR uni5193
ENCODING 20883
SWIDTH 1000 0
DWIDTH 12 0
BBX 12 12 0 -1
BITMAP
1980
1980
7FE0
1980
FFF0
0600
7FE0
6660
7FE0
6660
FFF0
6060
ENDCHAR
STARTCHAR uni5195
ENCODING 20885
SWIDTH 1000 0
DWIDTH 12 0
BBX 12 11 0 -1
BITMAP
7FE0
6060
6FA0
6060
6FA0
3300
FFE0
6660
7FE0
1B30
F3F0
ENDCHAR
STARTCHAR uni5196
ENCODING 20886
SWIDTH 1000 0
DWIDTH 12 0
BBX 12 4 0 4
BITMAP
FFF0
C030
C030
C030
ENDCHAR
STARTCHAR uni5197
ENCODING 20887
SWIDTH 1000 0
DWIDTH 12 0
BBX 12 11 0 -1
BITMAP
FFF0
C030
C030
1F80
1980
1980
1980
1980
19B0
31B0
E1F0
ENDCHAR
STARTCHAR uni5199
ENCODING 20889
SWIDTH 1000 0
DWIDTH 12 0
BBX 12 11 0 -1
BITMAP
FFF0
D830
DFD0
1800
3000
3FC0
00C0
FFF0
00C0
0180
0F00
ENDCHAR
STARTCHAR uni51A0
ENCODING 20896
SWIDTH 1000 0
DWIDTH 12 0
BBX 12 11 0 -1
BITMAP
FFF0
C030
0060
F860
07F0
0060
FD60
69A0
6860
D830
DFF0
ENDCHAR
STARTCHAR uni51A2
ENCODING 20898
SWIDTH 1000 0
DWIDTH 12 0
BBX 12 11 0 -1
BITMAP
FFF0
C030
DFD0
3600
0660
1D40
7B80
1B40
1D60
F330
0E00
ENDCHAR
STARTCHAR uni51A4
ENCODING 20900
SWIDTH 1000 0
DWIDTH 12 0
BBX 12 11 0 -1
BITMAP
FFF0
C030
DFB0
3300
7FE0
E660
6660
7FE0
0D40
3B30
E1F0
ENDCHAR
STARTCHAR uni51A5
ENCODING 20901
SWIDTH 1000 0
DWIDTH 12 0
BBX 12 11 0 -1
BITMAP
FFF0
C030
DFD0
30C0
3FC0
30C0
3FC0
0600
FFF0
30C0
E070
ENDCHAR
STARTCHAR uni51A6
ENCODING 20902
SWIDTH 1000 0
DWIDTH 12 0
BBX 12 11 0 -1
BITMAP
FFF0
C030
C1B0
FDE0
0180
07F0
FD60
6BC0
6A70
D830
CFF0
ENDCHAR
STARTCHAR uni51A8
ENCODING 20904
SWIDTH 1000 0
DWIDTH 12 0
BBX 12 11 0 -1
BITMAP
FFF0
C030
DFD0
1980
1F80
0000
7FE0
6660
7FE0
6660
7FE0
ENDCHAR
STARTCHAR uni51A9
ENCODING 20905
SWIDTH 1000 0
DWIDTH 12 0
BBX 12 11 0 -1
BITMAP
FFF0
CC30
DBD0
30C0
3DC0
30C0
30C0
7FF0
C030
3530
6D60
ENDCHAR
STARTCHAR uni51AA
ENCODING 20906
SWIDTH 1000 0
DWIDTH 12 0
BBX 12 11 0 -1
BITMAP
FFF0
D9B0
7FE0
30C0
3FC0
30C0
FFF0
36C0
7FE0
D6D0
36C0
ENDCHAR
STARTCHAR uni51AB
ENCODING 20907
SWIDTH 1000 0
DWIDTH 12 0
BBX 8 11 2 -1
BITMAP
60
30
18
00
00
00
03
06
0C
38
E0
ENDCHAR
STARTCHAR uni51AC
ENCODING 20908
SWIDTH 1000 0
DWIDTH 12 0
BBX 12 12 0 -1
BITMAP
0C00
0C00
0FC0
18C0
7580
0700
1DC0
F670
0380
0000
3C00
07C0
ENDCHAR
STARTCHAR uni51B0
ENCODING 20912
SWIDTH 1000 0
DWIDTH 12 0
BBX 12 12 0 -1
BITMAP
0180
0180
C180
6EB0
06A0
06C0
06C0
0DA0
6DA0
69B0
D9B0
C380
ENDCHAR
STARTCHAR uni51B1
ENCODING 20913
SWIDTH 1000 0
DWIDTH 12 0
BBX 12 11 0 -1
BITMAP
1FF0
C300
6300
33E0
0660
0660
07E0
6660
6060
C060
DFF0
ENDCHAR
STARTCHAR uni51B2
ENCODING 20914
SWIDTH 1000 0
DWIDTH 12 0
BBX 12 12 0 -1
BITMAP
0180
0180
C180
6FF0
0DB0
0DB0
0DB0
0FF0
6180
6180
C180
C180
ENDCHAR
STARTCHAR uni51B3
ENCODING 20915
SWIDTH 1000 0
DWIDTH 12 0
BBX 12 12 0 -1
BITMAP
0180
0180
CFF0
61B0
01B0
01B0
1FF0
0180
6180
6340
C660
DC30
ENDCHAR
STARTCHAR uni51B4
ENCODING 20916
SWIDTH 1000 0
DWIDTH 12 0
BBX 12 11 0 -1
BITMAP
1FF0
C660
6660
0660
1FF0
0060
00E0
63A0
6E60
C060
C1E0
ENDCHAR
STARTCHAR uni51B5
ENCODING 20917
SWIDTH 1000 0
DWIDTH 12 0
BBX 12 11 0 -1
BITMAP
0FF0
CC30
6C30
0C30
0FF0
0340
0340
6340
6350
C6D0
DCF0
ENDCHAR
STARTCHAR uni51B6
ENCODING 20918
SWIDTH 1000 0
DWIDTH 12 0
BBX 12 12 0 -1
BITMAP
0300
0300
C630
6C30
37F0
0000
0000
0FF0
0C30
3430
6C30
CFF0
ENDCHAR
STARTCHAR uni51B7
ENCODING 20919
SWIDTH 1000 0
DWIDTH 12 0
BBX 12 11 0 -1
BITMAP
07C0
CC60
6830
0FE0
0000
0000
6FF0
6330
C330
C360
0300
ENDCHAR
STARTCHAR uni51BD
ENCODING 20925
SWIDTH 1000 0
DWIDTH 12 0
BBX 12 11 0 -1
BITMAP
3FB0
CCD0
6CD0
0F50
1B50
1B50
0D50
66D0
6630
CC30
D870
ENDCHAR
STARTCHAR uni51C4
ENCODING 20932
SWIDTH 1000 0
DWIDTH 12 0
BBX 12 12 0 -1
BITMAP
0300
0300
DFF0
6360
1FF0
0360
0FE0
0300
6FF0
6660
C7C0
DC70
ENDCHAR
STARTCHAR uni51C5
ENCODING 20933
SWIDTH 1000 0
DWIDTH 12 0
BBX 12 11 0 -1
BITMAP
0FF0
CDB0
6DB0
0FF0
0DB0
0DD0
0D50
6D50
6DD0
CC30
CFF0
ENDCHAR
STARTCHAR uni51C6
ENCODING 20934
SWIDTH 1000 0
DWIDTH 12 0
BBX 12 12 0 -1
BITMAP
0600
06C0
C6C0
6FF0
0D80
1FF0
0D80
0D80
6FF0
6D80
CD80
CFF0
ENDCHAR
STARTCHAR uni51C9
ENCODING 20937
SWIDTH 1000 0
DWIDTH 12 0
BBX 12 12 0 -1
BITMAP
0180
0180
DFF0
6000
0FE0
0C60
0C60
0FE0
6180
6DA0
D9B0
C380
ENDCHAR
STARTCHAR uni51CB
ENCODING 20939
SWIDTH 1000 0
DWIDTH 12 0
BBX 12 11 0 -1
BITMAP
1FF0
DB30
6B30
1FD0
1B30
1FD0
6830
6BD0
DAD0
D7D0
3070
ENDCHAR
STARTCHAR uni51CC
ENCODING 20940
SWIDTH 1000 0
DWIDTH 12 0
BBX 12 12 0 -1
BITMAP
0180
0180
DFF0
6180
1FF0
06C0
1C70
07E0
6C60
66C0
C3C0
DE70
ENDCHAR
STARTCHAR uni51CD
ENCODING 20941
SWIDTH 1000 0
DWIDTH 12 0
BBX 12 12 0 -1
BITMAP
0180
0180
DFF0
6180
0FF0
0DB0
0FF0
0DB0
6FF0
6380
C6A0
DDB0
ENDCHAR
STARTCHAR uni51D6
ENCODING 20950
SWIDTH 1000 0
DWIDTH 12 0
BBX 12 12 0 -1
BITMAP
06C0
06C0
CFF0
6D80
0FE0
0D80
6D80
CFF0
0600
FFF0
0600
0600
ENDCHAR
STARTCHAR uni51DB
ENCODING 20955
SWIDTH 1000 0
DWIDTH 12 0
BBX 12 12 0 -1
BITMAP
0180
0180
DFF0
6D50
0DD0
0C30
0FF0
0000
6FF0
6180
CDA0
DBB0
ENDCHAR
STARTCHAR uni51DC
ENCODING 20956
SWIDTH 1000 0
DWIDTH 12 0
BBX 12 12 0 -1
BITMAP
0180
0180
DFF0
6D50
0DD0
0C30
0FF0
0180
6FF0
6380
C6A0
DDB0
ENDCHAR
STARTCHAR uni51DD
ENCODING 20957
SWIDTH 1000 0
DWIDTH 12 0
BBX 12 11 0 -1
BITMAP
1BF0
DE60
68C0
0FF0
18D0
1F40
0CC0
6F70
6D40
DB40
D3F0
ENDCHAR
STARTCHAR uni51E0
ENCODING 20960
SWIDTH 1000 0
DWIDTH 12 0
BBX 12 11 0 -1
BITMAP
3F80
3180
3180
3180
3180
3180
3180
6180
61B0
C1B0
C1F0
ENDCHAR
STARTCHAR uni51E1
ENCODING 20961
SWIDTH 1000 0
DWIDTH 12 0
BBX 12 11 0 -1
BITMAP
3F80
3180
3180
3180
3580
3680
3180
6180
61B0
C1B0
C1F0
ENDCHAR
STARTCHAR uni51E6
ENCODING 20966
SWIDTH 1000 0
DWIDTH 12 0
BBX 12 12 0 -1
BITMAP
6000
6000
7DE0
6D60
6D60
CD60
DB60
6A60
3670
7000
DC00
C7F0
ENDCHAR
STARTCHAR uni51E7
ENCODING 20967
SWIDTH 1000 0
DWIDTH 12 0
BBX 12 11 0 -1
BITMAP
7FE0
6660
6660
6FA0
6AA0
6AA0
6AA0
6AA0
6BB0
C630
C630
ENDCHAR
STARTCHAR uni51E9
ENCODING 20969
SWIDTH 1000 0
DWIDTH 12 0
BBX 12 11 0 -1
BITMAP
7FE0
6660
6660
7FE0
6660
6E60
6F60
6AA0
6AD0
C630
C630
ENDCHAR
STARTCHAR uni51EA
ENCODING 20970
SWIDTH 1000 0
DWIDTH 12 0
BBX 12 11 0 -1
BITMAP
7FE0
6060
6660
6660
6660
6BA0
6A60
6A60
6A30
DFD0
C030
ENDCHAR
STARTCHAR uni51ED
ENCODING 20973
SWIDTH 1000 0
DWIDTH 12 0
BBX 12 11 0 -1
BITMAP
37F0
3180
6FF0
E180
6180
6FF0
0000
1F80
1980
19B0
F1F0
ENDCHAR
STARTCHAR uni51F0
ENCODING 20976
SWIDTH 1000 0
DWIDTH 12 0
BBX 12 11 0 -1
BITMAP
7FE0
6660
6FA0
69A0
6FA0
69A0
6FA0
6660
6FB0
C630
DFD0
ENDCHAR
STARTCHAR uni51F1
ENCODING 20977
SWIDTH 1000 0
DWIDTH 12 0
BBX 12 12 0 -1
BITMAP
3000
D5E0
FD60
0360
FD60
0360
FD60
CD60
FD60
6B60
6A60
FC70
ENDCHAR
STARTCHAR uni51F5
ENCODING 20981
SWIDTH 1000 0
DWIDTH 12 0
BBX 12 11 0 -1
BITMAP
C030
C030
C030
C030
C030
C030
C030
C030
C030
C030
FFF0
ENDCHAR
STARTCHAR uni51F6
ENCODING 20982
SWIDTH 1000 0
DWIDTH 12 0
BBX 12 11 0 -1
BITMAP
C030
D0D0
D9B0
CD30
C630
CD30
D9B0
D0D0
C030
C030
FFF0
ENDCHAR
STARTCHAR uni51F8
ENCODING 20984
SWIDTH 1000 0
DWIDTH 12 0
BBX 12 11 0 -1
BITMAP
1F80
1980
1980
1980
1980
F9F0
C030
C030
C030
C030
FFF0
ENDCHAR
STARTCHAR uni51F9
ENCODING 20985
SWIDTH 1000 0
DWIDTH 12 0
BBX 12 11 0 -1
BITMAP
F9F0
D9B0
D9B0
D9B0
D9B0
DFB0
C030
C030
C030
C030
FFF0
ENDCHAR
STARTCHAR uni51FA
ENCODING 20986
SWIDTH 1000 0
DWIDTH 12 0
BBX 12 12 0 -1
BITMAP
0600
0600
6660
6660
6660
7FE0
0600
0600
C630
C630
C630
FFF0
ENDCHAR
STARTCHAR uni51FD
ENCODING 20989
SWIDTH 1000 0
DWIDTH 12 0
BBX 12 11 0 -1
BITMAP
FFF0
0C00
0E00
D6D0
DAB0
C630
DAB0
D6D0
EE70
C030
FFF0
ENDCHAR
STARTCHAR uni51FE
ENCODING 20990
SWIDTH 1000 0
DWIDTH 12 0
BBX 12 11 0 -1
BITMAP
7FE0
0300
C630
C7F0
FA30
DAB0
DAB0
FAD0
C770
CC30
FFF0
ENDCHAR
STARTCHAR uni5200
ENCODING 20992
SWIDTH 1000 0
DWIDTH 12 0
BBX 12 11 0 -1
BITMAP
FFF0
0C30
0C30
0C30
0C30
0C30
0C30
1830
1830
3060
E3C0
ENDCHAR
STARTCHAR uni5203
ENCODING 20995
SWIDTH 1000 0
DWIDTH 12 0
BBX 12 11 0 -1
BITMAP
FFF0
0C30
0C30
3430
1C30
0C30
0E30
1B30
1830
3060
E3C0
ENDCHAR
STARTCHAR uni5204
ENCODING 20996
SWIDTH 1000 0
DWIDTH 12 0
BBX 12 11 0 -1
BITMAP
FFE0
0C60
6C60
6C60
D460
D860
1E60
33F0
3060
60C0
6380
ENDCHAR
STARTCHAR uni5206
ENCODING 20998
SWIDTH 1000 0
DWIDTH 12 0
BBX 12 11 0 -1
BITMAP
37C0
30C0
3060
6060
6030
DFD0
CCC0
0CC0
18C0
18C0
7380
ENDCHAR
STARTCHAR uni5207
ENCODING 20999
SWIDTH 1000 0
DWIDTH 12 0
BBX 12 11 0 -1
BITMAP
6FF0
6330
6330
FB30
6330
6330
6630
6630
3C30
0C60
01C0
ENDCHAR
STARTCHAR uni5208
ENCODING 21000
SWIDTH 1000 0
DWIDTH 12 0
BBX 12 11 0 -1
BITMAP
0C30
0DB0
CDB0
6DB0
39B0
19B0
19B0
35B0
3630
6030
6070
ENDCHAR
STARTCHAR uni520A
ENCODING 21002
SWIDTH 1000 0
DWIDTH 12 0
BBX 12 11 0 -1
BITMAP
FE30
31B0
31B0
31B0
31B0
FEB0
31B0
31B0
3030
3030
3070
ENDCHAR
STARTCHAR uni520B
ENCODING 21003
SWIDTH 1000 0
DWIDTH 12 0
BBX 12 11 0 -1
BITMAP
0E30
F9B0
19B0
19B0
19B0
FFB0
19B0
19B0
3030
3030
6070
ENDCHAR
STARTCHAR uni520E
ENCODING 21006
SWIDTH 1000 0
DWIDTH 12 0
BBX 12 12 0 -1
BITMAP
6000
6030
7EB0
EAB0
6AB0
6AB0
6AB0
DAB0
D6B0
3630
6630
6C70
ENDCHAR
STARTCHAR uni5211
ENCODING 21009
SWIDTH 1000 0
DWIDTH 12 0
BBX 12 11 0 -1
BITMAP
FE30
6DB0
6DB0
6DB0
FEB0
6DB0
6DB0
6DB0
6C30
CC30
CC70
ENDCHAR
STARTCHAR uni5214
ENCODING 21012
SWIDTH 1000 0
DWIDTH 12 0
BBX 12 12 0 -1
BITMAP
3000
3030
FEB0
36B0
36B0
36B0
FFB0
31B0
31B0
6830
CC30
C670
ENDCHAR
STARTCHAR uni5217
ENCODING 21015
SWIDTH 1000 0
DWIDTH 12 0
BBX 12 11 0 -1
BITMAP
FE30
31B0
31B0
3EB0
66B0
76B0
DAB0
0DB0
0C30
3830
E070
ENDCHAR
STARTCHAR uni521D
ENCODING 21021
SWIDTH 1000 0
DWIDTH 12 0
BBX 12 11 0 -1
BITMAP
6FF0
6330
FB30
1B30
1B30
3330
6630
F630
6C30
6C60
61C0
ENDCHAR
STARTCHAR uni5224
ENCODING 21028
SWIDTH 1000 0
DWIDTH 12 0
BBX 12 12 0 -1
BITMAP
3000
3030
D6B0
D5B0
31B0
FEB0
31B0
31B0
FEB0
31B0
3030
3070
ENDCHAR
STARTCHAR uni5225
ENCODING 21029
SWIDTH 1000 0
DWIDTH 12 0
BBX 12 11 0 -1
BITMAP
FC30
CDB0
CDB0
FDB0
61B0
7DB0
6DB0
CDB0
CC30
0C30
7870
ENDCHAR
STARTCHAR uni5227
ENCODING 21031
SWIDTH 1000 0
DWIDTH 12 0
BBX 12 12 0 -1
BITMAP
3000
37F0
FDB0
31B0
31B0
31B0
FDB0
6330
6330
CC30
CC60
FDC0
ENDCHAR
STARTCHAR uni5229
ENCODING 21033
SWIDTH 1000 0
DWIDTH 12 0
BBX 12 11 0 -1
BITMAP
0E30
F9B0
19B0
19B0
FEB0
19B0
39B0
6DB0
DA30
1830
1870
ENDCHAR
STARTCHAR uni522A
ENCODING 21034
SWIDTH 1000 0
DWIDTH 12 0
BBX 12 11 0 -1
BITMAP
7E30
6AB0
6AB0
6AB0
6AB0
FFB0
6AB0
6AB0
6A30
6A30
6A70
ENDCHAR
STARTCHAR uni522E
ENCODING 21038
SWIDTH 1000 0
DWIDTH 12 0
BBX 12 11 0 -1
BITMAP
1C30
F1B0
31B0
31B0
FEB0
31B0
31B0
FDB0
CC30
CC30
FC70
ENDCHAR
STARTCHAR uni5230
ENCODING 21040
SWIDTH 1000 0
DWIDTH 12 0
BBX 12 11 0 -1
BITMAP
FE30
31B0
61B0
C6B0
FEB0
31B0
31B0
FEB0
3030
3030
FE70
ENDCHAR
STARTCHAR uni5233
ENCODING 21043
SWIDTH 1000 0
DWIDTH 12 0
BBX 12 12 0 -1
BITMAP
1800
1830
FEB0
6DB0
C6B0
FEB0
01B0
FEB0
61B0
FE30
C630
1C70
ENDCHAR
STARTCHAR uni5236
ENCODING 21046
SWIDTH 1000 0
DWIDTH 12 0
BBX 12 12 0 -1
BITMAP
3000
D030
FEB0
D1B0
31B0
FEB0
31B0
FEB0
D6B0
D630
D630
3070
ENDCHAR
STARTCHAR uni5237
ENCODING 21047
SWIDTH 1000 0
DWIDTH 12 0
BBX 12 11 0 -1
BITMAP
FE30
C6B0
C6B0
FEB0
D1B0
D1B0
FEB0
D6B0
D630
D630
3070
ENDCHAR
STARTCHAR uni5238
ENCODING 21048
SWIDTH 1000 0
DWIDTH 12 0
BBX 12 12 0 -1
BITMAP
0600
3660
36C0
7FE0
0D80
FFF0
18C0
3FE0
ECD0
0CC0
18C0
7380
ENDCHAR
STARTCHAR uni5239
ENCODING 21049
SWIDTH 1000 0
DWIDTH 12 0
BBX 12 11 0 -1
BITMAP
6630
35B0
19B0
35B0
E6B0
19B0
FEB0
39B0
6C30
DA30
1870
ENDCHAR
STARTCHAR uni523A
ENCODING 21050
SWIDTH 1000 0
DWIDTH 12 0
BBX 12 12 0 -1
BITMAP
3000
3030
FEB0
31B0
31B0
FEB0
D6B0
D6B0
39B0
7430
D630
3070
ENDCHAR
STARTCHAR uni523B
ENCODING 21051
SWIDTH 1000 0
DWIDTH 12 0
BBX 12 12 0 -1
BITMAP
1800
1830
FEB0
19B0
31B0
66B0
35B0
19B0
76B0
0C30
3A30
E370
ENDCHAR
STARTCHAR uni5243
ENCODING 21059
SWIDTH 1000 0
DWIDTH 12 0
BBX 12 12 0 -1
BITMAP
6C00
6C30
19B0
FEB0
36B0
FEB0
D1B0
FEB0
36B0
7630
D630
3C70
ENDCHAR
STARTCHAR uni5244
ENCODING 21060
SWIDTH 1000 0
DWIDTH 12 0
BBX 12 11 0 -1
BITMAP
FE30
6AB0
6AB0
D5B0
6AB0
6AB0
01B0
FEB0
3030
3030
FE70
ENDCHAR
STARTCHAR uni5247
ENCODING 21063
SWIDTH 1000 0
DWIDTH 12 0
BBX 12 11 0 -1
BITMAP
FC30
CDB0
FDB0
CDB0
FDB0
CDB0
CDB0
FDB0
0030
6C30
C670
ENDCHAR
STARTCHAR uni524A
ENCODING 21066
SWIDTH 1000 0
DWIDTH 12 0
BBX 12 12 0 -1
BITMAP
3000
3030
D6B0
D5B0
31B0
FEB0
C6B0
FEB0
C6B0
FE30
C630
CE70
ENDCHAR
STARTCHAR uni524B
ENCODING 21067
SWIDTH 1000 0
DWIDTH 12 0
BBX 12 12 0 -1
BITMAP
3000
31B0
FEB0
31B0
FDB0
CDB0
CDB0
FC30
6870
6800
D830
CFF0
ENDCHAR
STARTCHAR uni524C
ENCODING 21068
SWIDTH 1000 0
DWIDTH 12 0
BBX 12 12 0 -1
BITMAP
3000
3030
FEB0
31B0
FEB0
D6B0
D6B0
FEB0
39B0
7430
D630
3070
ENDCHAR
STARTCHAR uni524D
ENCODING 21069
SWIDTH 1000 0
DWIDTH 12 0
BBX 12 12 0 -1
BITMAP
18C0
1980
FFF0
0000
7EB0
66B0
7EB0
66B0
7EB0
66B0
6630
6E70
ENDCHAR
STARTCHAR uni524F
ENCODING 21071
SWIDTH 1000 0
DWIDTH 12 0
BBX 12 12 0 -1
BITMAP
CC00
6FF0
19B0
FDB0
6BB0
69B0
69D0
FD70
6B30
6A30
DA60
D9C0
ENDCHAR
STARTCHAR uni5254
ENCODING 21076
SWIDTH 1000 0
DWIDTH 12 0
BBX 12 11 0 -1
BITMAP
FC30
CDB0
FDB0
CDB0
FDB0
61B0
FEB0
6AB0
DA30
3630
6C70
ENDCHAR
STARTCHAR uni5256
ENCODING 21078
SWIDTH 1000 0
DWIDTH 12 0
BBX 12 12 0 -1
BITMAP
3000
3030
FEB0
6DB0
6DB0
FEB0
01B0
01B0
FEB0
C630
C630
FE70
ENDCHAR
STARTCHAR uni525B
ENCODING 21083
SWIDTH 1000 0
DWIDTH 12 0
BBX 12 11 0 -1
BITMAP
FF30
C350
D550
D550
FF50
D350
D350
D550
FD30
C330
C770
ENDCHAR
STARTCHAR uni525E
ENCODING 21086
SWIDTH 1000 0
DWIDTH 12 0
BBX 12 12 0 -1
BITMAP
1800
1830
FEB0
19B0
35B0
66B0
FFB0
06B0
F6B0
D630
F630
0E70
ENDCHAR
STARTCHAR uni5263
ENCODING 21091
SWIDTH 1000 0
DWIDTH 12 0
BBX 12 11 0 -1
BITMAP
7C30
C6B0
FEB0
31B0
FEB0
D6B0
D6B0
FEB0
3030
6C30
C770
ENDCHAR
STARTCHAR uni5264
ENCODING 21092
SWIDTH 1000 0
DWIDTH 12 0
BBX 12 12 0 -1
BITMAP
1800
1830
FFB0
66B0
6DB0
3DB0
E7B0
7EB0
66B0
7EB0
C630
C670
ENDCHAR
STARTCHAR uni5265
ENCODING 21093
SWIDTH 1000 0
DWIDTH 12 0
BBX 12 11 0 -1
BITMAP
FC30
0DB0
7DB0
0DB0
FEB0
19B0
EAB0
6DB0
6A30
DB30
3870
ENDCHAR
STARTCHAR uni5269
ENCODING 21097
SWIDTH 1000 0
DWIDTH 12 0
BBX 12 11 0 -1
BITMAP
FF30
18D0
FF50
6AD0
EB50
6AD0
EB50
1CD0
3A30
EB30
1870
ENDCHAR
STARTCHAR uni526A
ENCODING 21098
SWIDTH 1000 0
DWIDTH 12 0
BBX 12 12 0 -1
BITMAP
1980
1980
FFF0
6D60
7560
6D60
6CE0
0000
FFF0
0C30
3830
E0E0
ENDCHAR
STARTCHAR uni526F
ENCODING 21103
SWIDTH 1000 0
DWIDTH 12 0
BBX 12 11 0 -1
BITMAP
FE30
01B0
7DB0
6DB0
7DB0
01B0
FEB0
D6B0
FE30
D630
FE70
ENDCHAR
STARTCHAR uni5270
ENCODING 21104
SWIDTH 1000 0
DWIDTH 12 0
BBX 12 11 0 -1
BITMAP
FE30
19B0
FEB0
6AB0
FEB0
6AB0
6AB0
FEB0
1830
3A30
EB70
ENDCHAR
STARTCHAR uni5271
ENCODING 21105
SWIDTH 1000 0
DWIDTH 12 0
BBX 12 11 0 -1
BITMAP
7BF0
CDB0
FDB0
33B0
FDB0
D5D0
D5B0
FD30
3330
6860
CEC0
ENDCHAR
STARTCHAR uni5272
ENCODING 21106
SWIDTH 1000 0
DWIDTH 12 0
BBX 12 12 0 -1
BITMAP
1800
1830
FFB0
D9B0
FEB0
19B0
7EB0
19B0
FEB0
6630
6630
7E70
ENDCHAR
STARTCHAR uni5273
ENCODING 21107
SWIDTH 1000 0
DWIDTH 12 0
BBX 12 12 0 -1
BITMAP
6C00
6C30
FEB0
6DB0
39B0
6DB0
C6B0
FDB0
01B0
FE30
C630
FE70
ENDCHAR
STARTCHAR uni5274
ENCODING 21108
SWIDTH 1000 0
DWIDTH 12 0
BBX 12 12 0 -1
BITMAP
3000
D630
FEB0
01B0
FEB0
01B0
FEB0
C6B0
FEB0
6C30
6C30
FE70
ENDCHAR
STARTCHAR uni5275
ENCODING 21109
SWIDTH 1000 0
DWIDTH 12 0
BBX 12 11 0 -1
BITMAP
3C30
66B0
FEB0
66B0
7EB0
66B0
7EB0
61B0
DE30
D630
3E70
ENDCHAR
STARTCHAR uni527D
ENCODING 21117
SWIDTH 1000 0
DWIDTH 12 0
BBX 12 11 0 -1
BITMAP
FF30
34D0
FF50
D550
FF50
00D0
FF50
00D0
FF30
6A30
DB70
ENDCHAR
STARTCHAR uni527F
ENCODING 21119
SWIDTH 1000 0
DWIDTH 12 0
BBX 12 12 0 -1
BITMAP
6A00
D430
6AB0
FEB0
D6B0
FEB0
D6B0
FEB0
31B0
7430
D630
3070
ENDCHAR
STARTCHAR uni5283
ENCODING 21123
SWIDTH 1000 0
DWIDTH 12 0
BBX 12 11 0 -1
BITMAP
FE30
36B0
FEB0
36B0
FEB0
31B0
FFB0
D6B0
FE30
D630
FF70
ENDCHAR
STARTCHAR uni5287
ENCODING 21127
SWIDTH 1000 0
DWIDTH 12 0
BBX 12 12 0 -1
BITMAP
1800
1E30
19B0
FFB0
D9B0
FEB0
D9B0
DFB0
EDB0
3D30
EE30
3B70
ENDCHAR
STARTCHAR uni5288
ENCODING 21128
SWIDTH 1000 0
DWIDTH 12 0
BBX 12 12 0 -1
BITMAP
0180
F980
DBF0
FB60
CFF0
F980
DBF0
D980
FFF0
0C30
3830
E0E0
ENDCHAR
STARTCHAR uni5289
ENCODING 21129
SWIDTH 1000 0
DWIDTH 12 0
BBX 12 11 0 -1
BITMAP
EF30
CD50
D550
EB50
3ED0
6350
FED0
18D0
FF30
6A30
FF70
ENDCHAR
STARTCHAR uni528D
ENCODING 21133
SWIDTH 1000 0
DWIDTH 12 0
BBX 12 11 0 -1
BITMAP
7E30
C350
FED0
00D0
F750
D550
D550
F750
6630
D530
D9B0
ENDCHAR
STARTCHAR uni5291
ENCODING 21137
SWIDTH 1000 0
DWIDTH 12 0
BBX 12 12 0 -1
BITMAP
0C00
0C30
FFD0
6AB0
6ED0
DB50
6350
7F50
6350
7F30
C330
C370
ENDCHAR
STARTCHAR uni5292
ENCODING 21138
SWIDTH 1000 0
DWIDTH 12 0
BBX 12 11 0 -1
BITMAP
7BF0
CDB0
FDB0
03B0
FEB0
D5B0
D5B0
FD30
6B30
D460
D6C0
ENDCHAR
STARTCHAR uni5294
ENCODING 21140
SWIDTH 1000 0
DWIDTH 12 0
BBX 12 11 0 -1
BITMAP
7BF0
CDB0
FDB0
01B0
FDB0
D5D0
D5B0
FD30
6B30
D460
D6C0
ENDCHAR
STARTCHAR uni529B
ENCODING 21147
SWIDTH 1000 0
DWIDTH 12 0
BBX 12 12 0 -1
BITMAP
0C00
0C00
0C00
FFF0
0C30
0C30
0C30
0C30
1830
1830
3060
E3C0
ENDCHAR
STARTCHAR uni529F
ENCODING 21151
SWIDTH 1000 0
DWIDTH 12 0
BBX 12 12 0 -1
BITMAP
0180
0180
F980
37F0
31B0
31B0
3330
3330
3630
3A30
E060
01C0
ENDCHAR
STARTCHAR uni52A0
ENCODING 21152
SWIDTH 1000 0
DWIDTH 12 0
BBX 12 12 0 -1
BITMAP
3000
3000
31F0
FEB0
36B0
36B0
36B0
66B0
66B0
C6B0
CDB0
39F0
ENDCHAR
STARTCHAR uni52A3
ENCODING 21155
SWIDTH 1000 0
DWIDTH 12 0
BBX 12 12 0 -1
BITMAP
0600
36C0
3660
6E30
C1C0
1F00
F600
3FF0
0630
0C30
3860
E3C0
ENDCHAR
STARTCHAR uni52A9
ENCODING 21161
SWIDTH 1000 0
DWIDTH 12 0
BBX 12 12 0 -1
BITMAP
0180
F980
D980
DFF0
F9B0
D9B0
DB30
FB30
DA30
DA30
D860
FDC0
ENDCHAR
STARTCHAR uni52AA
ENCODING 21162
SWIDTH 1000 0
DWIDTH 12 0
BBX 12 12 0 -1
BITMAP
3000
33F0
FE30
6DB0
6DA0
3CE0
E7B0
0600
7FE0
0660
1C60
71C0
ENDCHAR
STARTCHAR uni52AB
ENCODING 21163
SWIDTH 1000 0
DWIDTH 12 0
BBX 12 12 0 -1
BITMAP
3180
3180
FD80
37F0
31B0
31B0
FDB0
3330
3330
6C30
CC60
FDC0
ENDCHAR
STARTCHAR uni52AC
ENCODING 21164
SWIDTH 1000 0
DWIDTH 12 0
BBX 12 12 0 -1
BITMAP
6180
6180
7D80
CFF0
CDB0
F5B0
D5B0
D5B0
F530
0D30
1860
71C0
ENDCHAR
STARTCHAR uni52AD
ENCODING 21165
SWIDTH 1000 0
DWIDTH 12 0
BBX 12 12 0 -1
BITMAP
0180
FD80
6D80
6FF0
CDB0
D9B0
01B0
FDB0
CD30
CD30
CC60
FDC0
ENDCHAR
STARTCHAR uni52B1
ENCODING 21169
SWIDTH 1000 0
DWIDTH 12 0
BBX 12 12 0 -1
BITMAP
0180
FE80
C180
FFF0
D1B0
D1B0
DEB0
D6B0
D6B0
3730
6630
6CE0
ENDCHAR
STARTCHAR uni52B4
ENCODING 21172
SWIDTH 1000 0
DWIDTH 12 0
BBX 12 12 0 -1
BITMAP
1800
0C60
66C0
3180
FFF0
C630
0600
7FE0
0C60
0C60
1860
73C0
ENDCHAR
STARTCHAR uni52B5
ENCODING 21173
SWIDTH 1000 0
DWIDTH 12 0
BBX 12 12 0 -1
BITMAP
0600
36C0
6660
FFF0
0D80
FFF0
18C0
3FE0
ECD0
0CC0
18C0
7380
ENDCHAR
STARTCHAR uni52B9
ENCODING 21177
SWIDTH 1000 0
DWIDTH 12 0
BBX 12 12 0 -1
BITMAP
3180
3180
FD80
07F0
69B0
CDB0
01B0
6B30
3330
3830
6C60
C1C0
ENDCHAR
STARTCHAR uni52BC
ENCODING 21180
SWIDTH 1000 0
DWIDTH 12 0
BBX 12 12 0 -1
BITMAP
3180
3180
FD80
37F0
31B0
FDB0
01B0
01B0
FD30
CD30
CC60
FDC0
ENDCHAR
STARTCHAR uni52BE
ENCODING 21182
SWIDTH 1000 0
DWIDTH 12 0
BBX 12 12 0 -1
BITMAP
3180
3180
FD80
67F0
CDB0
69B0
3330
6D30
DA30
3630
6860
CDC0
ENDCHAR
STARTCHAR uni52C1
ENCODING 21185
SWIDTH 1000 0
DWIDTH 12 0
BBX 12 12 0 -1
BITMAP
0180
FE80
6980
6BF0
D5B0
6AB0
6AB0
01B0
FD30
3330
3060
FDC0
ENDCHAR
STARTCHAR uni52C3
ENCODING 21187
SWIDTH 1000 0
DWIDTH 12 0
BBX 12 12 0 -1
BITMAP
3180
3180
FD80
37F0
FDB0
CDB0
79B0
1B30
3330
FE30
3660
71C0
ENDCHAR
STARTCHAR uni52C5
ENCODING 21189
SWIDTH 1000 0
DWIDTH 12 0
BBX 12 12 0 -1
BITMAP
0180
3180
FD80
37F0
FDB0
D5B0
D5B0
FDB0
3330
7B30
D460
31C0
ENDCHAR
STARTCHAR uni52C7
ENCODING 21191
SWIDTH 1000 0
DWIDTH 12 0
BBX 12 11 0 -1
BITMAP
7FC0
0180
7FE0
6660
7FE0
6660
6660
FFF0
0C30
3830
E1E0
ENDCHAR
STARTCHAR uni52C9
ENCODING 21193
SWIDTH 1000 0
DWIDTH 12 0
BBX 12 12 0 -1
BITMAP
0180
7980
D980
37F0
FDB0
D5B0
D5B0
FD30
6B30
68E0
D800
CFF0
ENDCHAR
STARTCHAR uni52CD
ENCODING 21197
SWIDTH 1000 0
DWIDTH 12 0
BBX 12 12 0 -1
BITMAP
1980
1980
FD80
07F0
7DB0
6DB0
6DB0
7D30
1B30
6A30
DA60
39C0
ENDCHAR
STARTCHAR uni52D2
ENCODING 21202
SWIDTH 1000 0
DWIDTH 12 0
BBX 12 12 0 -1
BITMAP
0180
6980
FD80
6BF0
79B0
31B0
FDB0
D5B0
FD30
3330
FC60
31C0
ENDCHAR
STARTCHAR uni52D5
ENCODING 21205
SWIDTH 1000 0
DWIDTH 12 0
BBX 12 12 0 -1
BITMAP
0180
FD80
3180
FFF0
D5B0
FDB0
D5B0
FDB0
3330
FD30
3060
FDC0
ENDCHAR
STARTCHAR uni52D7
ENCODING 21207
SWIDTH 1000 0
DWIDTH 12 0
BBX 12 11 0 -1
BITMAP
3FC0
30C0
3FC0
30C0
3FC0
0180
FFF0
D9B0
F9B0
DB30
FEE0
ENDCHAR
STARTCHAR uni52D8
ENCODING 21208
SWIDTH 1000 0
DWIDTH 12 0
BBX 12 12 0 -1
BITMAP
0180
6D80
FD80
6FF0
7DB0
6DB0
6DB0
FEB0
D530
EF30
C060
FEC0
ENDCHAR
STARTCHAR uni52D9
ENCODING 21209
SWIDTH 1000 0
DWIDTH 12 0
BBX 12 12 0 -1
BITMAP
0180
FD80
0DF0
6B30
31A0
FDC0
3770
3580
7BF0
D1B0
3330
76E0
ENDCHAR
STARTCHAR uni52DD
ENCODING 21213
SWIDTH 1000 0
DWIDTH 12 0
BBX 12 12 0 -1
BITMAP
0180
F6B0
D6A0
D7F0
F340
D7F0
D660
F5B0
DBF0
D1B0
D330
D6E0
ENDCHAR
STARTCHAR uni52DE
ENCODING 21214
SWIDTH 1000 0
DWIDTH 12 0
BBX 12 12 0 -1
BITMAP
1980
6AB0
DAA0
3540
6660
FFF0
C630
7FE0
0C60
0C60
1860
73C0
ENDCHAR
STARTCHAR uni52DF
ENCODING 21215
SWIDTH 1000 0
DWIDTH 12 0
BBX 12 12 0 -1
BITMAP
1980
1980
FFF0
1980
3FC0
30C0
FFF0
30C0
7FE0
CCD0
18C0
7380
ENDCHAR
STARTCHAR uni52E0
ENCODING 21216
SWIDTH 1000 0
DWIDTH 12 0
BBX 12 12 0 -1
BITMAP
0180
FE80
D680
77F0
DAB0
36B0
3DB0
E6B0
1D30
7330
1C60
F1C0
ENDCHAR
STARTCHAR uni52E2
ENCODING 21218
SWIDTH 1000 0
DWIDTH 12 0
BBX 12 12 0 -1
BITMAP
3180
3180
FFE0
31A0
FEA0
6D60
FAB0
3630
FFE0
0C60
1860
71C0
ENDCHAR
STARTCHAR uni52E3
ENCODING 21219
SWIDTH 1000 0
DWIDTH 12 0
BBX 12 12 0 -1
BITMAP
3180
3180
FD80
37F0
FDB0
31B0
FDB0
CD30
FD30
CC30
FC60
CEC0
ENDCHAR
STARTCHAR uni52E4
ENCODING 21220
SWIDTH 1000 0
DWIDTH 12 0
BBX 12 12 0 -1
BITMAP
0180
6980
FD80
6BF0
FDB0
D5B0
D5B0
FDB0
3330
FD30
3060
FDC0
ENDCHAR
STARTCHAR uni52E6
ENCODING 21222
SWIDTH 1000 0
DWIDTH 12 0
BBX 12 12 0 -1
BITMAP
6A80
D580
6980
FFF0
D5B0
FDB0
D5B0
FD30
3330
7430
D660
31C0
ENDCHAR
STARTCHAR uni52E7
ENCODING 21223
SWIDTH 1000 0
DWIDTH 12 0
BBX 12 12 0 -1
BITMAP
6180
6180
7E80
D3F0
FEB0
69B0
7EB0
E9B0
7F30
6B30
6860
7EC0
ENDCHAR
STARTCHAR uni52F2
ENCODING 21234
SWIDTH 1000 0
DWIDTH 12 0
BBX 12 12 0 -1
BITMAP
0180
FD80
37F0
FDB0
D5B0
FDB0
D530
FD30
30E0
FC00
0360
D9B0
ENDCHAR
STARTCHAR uni52F3
ENCODING 21235
SWIDTH 1000 0
DWIDTH 12 0
BBX 12 12 0 -1
BITMAP
0180
FD80
3180
FFF0
D5B0
FDB0
31B0
FDB0
3330
FD30
6860
D5C0
ENDCHAR
STARTCHAR uni52F5
ENCODING 21237
SWIDTH 1000 0
DWIDTH 12 0
BBX 12 12 0 -1
BITMAP
0180
FE80
CD80
FFF0
DAB0
FEB0
DAB0
FF30
DB30
FE30
D660
DAC0
ENDCHAR
STARTCHAR uni52F8
ENCODING 21240
SWIDTH 1000 0
DWIDTH 12 0
BBX 12 12 0 -1
BITMAP
6980
6980
FD80
D7F0
D5B0
FDB0
69B0
FDB0
DB30
FD30
D860
FDC0
ENDCHAR
STARTCHAR uni52F9
ENCODING 21241
SWIDTH 1000 0
DWIDTH 12 0
BBX 12 12 0 -1
BITMAP
3000
3000
3FF0
6030
6030
C030
C030
0030
0030
0030
0060
03C0
ENDCHAR
STARTCHAR uni52FA
ENCODING 21242
SWIDTH 1000 0
DWIDTH 12 0
BBX 12 12 0 -1
BITMAP
3000
3000
3FF0
6030
6030
CC30
CC30
0630
0630
0030
0060
01C0
ENDCHAR
STARTCHAR uni52FE
ENCODING 21246
SWIDTH 1000 0
DWIDTH 12 0
BBX 12 12 0 -1
BITMAP
3000
3000
3FF0
6030
6C30
CC30
D830
1B30
3330
3F30
0060
01C0
ENDCHAR
STARTCHAR uni52FF
ENCODING 21247
SWIDTH 1000 0
DWIDTH 12 0
BBX 12 12 0 -1
BITMAP
3000
3000
3FF0
6DB0
6DB0
CDB0
D9B0
1B30
3330
6630
0C60
01C0
ENDCHAR
STARTCHAR uni5301
ENCODING 21249
SWIDTH 1000 0
DWIDTH 12 0
BBX 12 12 0 -1
BITMAP
3000
3000
3FF0
6330
6B30
CD30
C630
0630
0D30
19B0
3060
01C0
ENDCHAR
STARTCHAR uni5302
ENCODING 21250
SWIDTH 1000 0
DWIDTH 12 0
BBX 12 12 0 -1
BITMAP
3000
3000
3FF0
6030
6830
DBB0
DE30
1830
19B0
0FB0
0060
01C0
ENDCHAR
STARTCHAR uni5305
ENCODING 21253
SWIDTH 1000 0
DWIDTH 12 0
BBX 12 12 0 -1
BITMAP
3000
3000
3FF0
6030
6FB0
C1B0
C1B0
3FB0
30E0
3000
3030
3FF0
ENDCHAR
STARTCHAR uni5306
ENCODING 21254
SWIDTH 1000 0
DWIDTH 12 0
BBX 12 12 0 -1
BITMAP
3000
3000
3FF0
6DB0
6DB0
CDB0
D9B0
1F30
33D0
6630
0C60
01C0
ENDCHAR
STARTCHAR uni5308
ENCODING 21256
SWIDTH 1000 0
DWIDTH 12 0
BBX 12 12 0 -1
BITMAP
3000
3000
3FF0
6030
7330
DAB0
CDB0
6AB0
73B0
61B0
7FB0
00E0
ENDCHAR
STARTCHAR uni530D
ENCODING 21261
SWIDTH 1000 0
DWIDTH 12 0
BBX 12 12 0 -1
BITMAP
3000
3000
3FF0
6D30
7FB0
CC30
FFB0
6DB0
7FB0
6DB0
6DB0
00E0
ENDCHAR
STARTCHAR uni530F
ENCODING 21263
SWIDTH 1000 0
DWIDTH 12 0
BBX 12 12 0 -1
BITMAP
3300
3300
FDF0
6A30
CDD0
FD50
0350
FDD0
6370
FD00
CD30
39F0
ENDCHAR
STARTCHAR uni5310
ENCODING 21264
SWIDTH 1000 0
DWIDTH 12 0
BBX 12 12 0 -1
BITMAP
3000
3000
3FF0
6030
7FB0
D330
FFB0
6DB0
7FB0
6DB0
7FB0
00E0
ENDCHAR
STARTCHAR uni5315
ENCODING 21269
SWIDTH 1000 0
DWIDTH 12 0
BBX 12 12 0 -1
BITMAP
1800
1800
1800
1870
1BC0
1E00
F800
1800
1830
1830
1830
0FF0
ENDCHAR
STARTCHAR uni5316
ENCODING 21270
SWIDTH 1000 0
DWIDTH 12 0
BBX 12 12 0 -1
BITMAP
0300
1B00
1B00
3330
3360
7340
D380
3300
3300
3330
3330
33F0
ENDCHAR
STARTCHAR uni5317
ENCODING 21271
SWIDTH 1000 0
DWIDTH 12 0
BBX 12 12 0 -1
BITMAP
0300
1B00
1B00
1B70
FBC0
1B00
1B00
1B00
3B00
EB30
1B30
1BF0
ENDCHAR
STARTCHAR uni5319
ENCODING 21273
SWIDTH 1000 0
DWIDTH 12 0
BBX 12 11 0 -1
BITMAP
FD00
CD70
FDC0
CD00
FD00
0330
FD30
31F0
DC00
F000
DFF0
ENDCHAR
STARTCHAR uni531A
ENCODING 21274
SWIDTH 1000 0
DWIDTH 12 0
BBX 12 11 0 -1
BITMAP
FFF0
C000
C000
C000
C000
C000
C000
C000
C000
C000
FFF0
ENDCHAR
STARTCHAR uni531D
ENCODING 21277
SWIDTH 1000 0
DWIDTH 12 0
BBX 12 11 0 -1
BITMAP
FFF0
C300
C300
DFE0
DB60
DB60
DB60
DB60
C300
C000
FFF0
ENDCHAR
STARTCHAR uni5320
ENCODING 21280
SWIDTH 1000 0
DWIDTH 12 0
BBX 12 11 0 -1
BITMAP
FFF0
C000
DFC0
D800
D800
DFE0
D980
D180
D180
C180
FFF0
ENDCHAR
STARTCHAR uni5321
ENCODING 21281
SWIDTH 1000 0
DWIDTH 12 0
BBX 12 11 0 -1
BITMAP
FFF0
C000
DFF0
C300
C300
DFE0
C300
C300
DFF0
C000
FFF0
ENDCHAR
STARTCHAR uni5323
ENCODING 21283
SWIDTH 1000 0
DWIDTH 12 0
BBX 12 11 0 -1
BITMAP
FFF0
C000
DFE0
DB60
DFE0
DB60
DFE0
C300
C300
C300
FFF0
ENDCHAR
STARTCHAR uni532A
ENCODING 21290
SWIDTH 1000 0
DWIDTH 12 0
BBX 12 11 0 -1
BITMAP
FFF0
C680
C680
DEF0
C680
DEE0
C680
DEF0
CD80
D980
FFF0
ENDCHAR
STARTCHAR uni532F
ENCODING 21295
SWIDTH 1000 0
DWIDTH 12 0
BBX 12 11 0 -1
BITMAP
FFF0
C300
D340
DBE0
D680
DBE0
C680
DA80
D7E0
C000
FFF0
ENDCHAR
STARTCHAR uni5331
ENCODING 21297
SWIDTH 1000 0
DWIDTH 12 0
BBX 12 11 0 -1
BITMAP
FFF0
C300
DFC0
DB40
DFE0
D8C0
DFC0
D8C0
DFC0
D060
FFF0
ENDCHAR
STARTCHAR uni5333
ENCODING 21299
SWIDTH 1000 0
DWIDTH 12 0
BBX 12 11 0 -1
BITMAP
FFF0
CD80
DFC0
D060
EEF0
DAA0
DEE0
CCC0
DAA0
D330
FFF0
ENDCHAR
STARTCHAR uni5338
ENCODING 21304
SWIDTH 1000 0
DWIDTH 12 0
BBX 12 11 0 -1
BITMAP
FFF0
3000
3000
3000
3000
3000
3000
3000
3000
3000
1FF0
ENDCHAR
STARTCHAR uni5339
ENCODING 21305
SWIDTH 1000 0
DWIDTH 12 0
BBX 12 11 0 -1
BITMAP
FFF0
CD80
CD80
CD80
D980
F1F0
C000
C000
C000
FFF0
C000
ENDCHAR
STARTCHAR uni533A
ENCODING 21306
SWIDTH 1000 0
DWIDTH 12 0
BBX 12 11 0 -1
BITMAP
FFF0
C000
D860
CCC0
C680
C300
C680
CCC0
D860
C000
FFF0
ENDCHAR
STARTCHAR uni533B
ENCODING 21307
SWIDTH 1000 0
DWIDTH 12 0
BBX 12 11 0 -1
BITMAP
FFF0
D800
DFE0
DB00
D300
DFE0
C680
CCC0
D860
C000
FFF0
ENDCHAR
STARTCHAR uni533F
ENCODING 21311
SWIDTH 1000 0
DWIDTH 12 0
BBX 12 11 0 -1
BITMAP
FFF0
D980
DFE0
D980
C600
DFE0
CC00
DFC0
D8C0
D8C0
FFF0
ENDCHAR
STARTCHAR uni5340
ENCODING 21312
SWIDTH 1000 0
DWIDTH 12 0
BBX 12 11 0 -1
BITMAP
FFF0
C000
CF80
CD80
CF80
C000
DEE0
D6A0
DEE0
C000
FFF0
ENDCHAR
STARTCHAR uni5341
ENCODING 21313
SWIDTH 1000 0
DWIDTH 12 0
BBX 12 12 0 -1
BITMAP
0600
0600
0600
0600
0600
FFF0
0600
0600
0600
0600
0600
0600
ENDCHAR
STARTCHAR uni5343
ENCODING 21315
SWIDTH 1000 0
DWIDTH 12 0
BBX 12 11 0 -1
BITMAP
03E0
7E00
0600
0600
0600
FFF0
0600
0600
0600
0600
0600
ENDCHAR
STARTCHAR uni5345
ENCODING 21317
SWIDTH 1000 0
DWIDTH 12 0
BBX 12 11 0 -1
BITMAP
6660
6660
6660
6660
FFF0
6660
6660
6660
6660
C660
C660
ENDCHAR
STARTCHAR uni5346
ENCODING 21318
SWIDTH 1000 0
DWIDTH 12 0
BBX 12 12 0 -1
BITMAP
0C00
0C00
FF80
1980
1980
31B0
E6F0
0600
FFF0
0600
0600
0600
ENDCHAR
STARTCHAR uni5347
ENCODING 21319
SWIDTH 1000 0
DWIDTH 12 0
BBX 12 11 0 -1
BITMAP
0EC0
78C0
18C0
18C0
18C0
FFF0
18C0
30C0
30C0
60C0
60C0
ENDCHAR
STARTCHAR uni5348
ENCODING 21320
SWIDTH 1000 0
DWIDTH 12 0
BBX 12 12 0 -1
BITMAP
6000
6000
7FE0
C600
C600
0600
0600
FFF0
0600
0600
0600
0600
ENDCHAR
STARTCHAR uni5349
ENCODING 21321
SWIDTH 1000 0
DWIDTH 12 0
BBX 12 12 0 -1
BITMAP
0600
0600
FFF0
0600
1AC0
18C0
18C0
FFF0
18C0
18C0
30C0
E0C0
ENDCHAR
STARTCHAR uni534A
ENCODING 21322
SWIDTH 1000 0
DWIDTH 12 0
BBX 12 12 0 -1
BITMAP
0600
0600
6660
36C0
0600
7FE0
0600
0600
FFF0
0600
0600
0600
ENDCHAR
STARTCHAR uni534D
ENCODING 21325
SWIDTH 1000 0
DWIDTH 12 0
BBX 12 11 0 -1
BITMAP
FE30
0630
0630
0630
0630
FFF0
C600
C600
C600
C600
C7F0
ENDCHAR
STARTCHAR uni5351
ENCODING 21329
SWIDTH 1000 0
DWIDTH 12 0
BBX 12 12 0 -1
BITMAP
0600
0C00
7FE0
6660
7FE0
6660
6660
7FE0
0D80
1980
FFF0
0180
ENDCHAR
STARTCHAR uni5352
ENCODING 21330
SWIDTH 1000 0
DWIDTH 12 0
BBX 12 12 0 -1
BITMAP
0600
0600
FFF0
1980
1980
3540
6660
0600
FFF0
0600
0600
0600
ENDCHAR
STARTCHAR uni5353
ENCODING 21331
SWIDTH 1000 0
DWIDTH 12 0
BBX 12 12 0 -1
BITMAP
0600
0600
07E0
0600
3FC0
30C0
3FC0
30C0
3FC0
0600
FFF0
0600
ENDCHAR
STARTCHAR uni5354
ENCODING 21332
SWIDTH 1000 0
DWIDTH 12 0
BBX 12 12 0 -1
BITMAP
0300
6300
6FE0
6360
FB60
6660
6FF0
6D50
6D50
6D50
6BB0
6B70
ENDCHAR
STARTCHAR uni5357
ENCODING 21335
SWIDTH 1000 0
DWIDTH 12 0
BBX 12 12 0 -1
BITMAP
0600
0600
FFF0
0600
FFF0
D9B0
DB30
DFD0
C630
DFD0
C630
C670
ENDCHAR
STARTCHAR uni5358
ENCODING 21336
SWIDTH 1000 0
DWIDTH 12 0
BBX 12 12 0 -1
BITMAP
0C60
66C0
3180
7FE0
6660
7FE0
6660
6660
7FE0
0600
FFF0
0600
ENDCHAR
STARTCHAR uni535A
ENCODING 21338
SWIDTH 1000 0
DWIDTH 12 0
BBX 12 12 0 -1
BITMAP
0180
61B0
6FF0
6180
F7F0
6DB0
6FF0
6DB0
6FF0
6060
6660
6360
ENDCHAR
STARTCHAR uni535C
ENCODING 21340
SWIDTH 1000 0
DWIDTH 12 0
BBX 7 11 3 -1
BITMAP
C0
C0
C0
C0
E0
D8
CE
C0
C0
C0
C0
ENDCHAR
STARTCHAR uni535E
ENCODING 21342
SWIDTH 1000 0
DWIDTH 12 0
BBX 12 12 0 -1
BITMAP
0600
0600
FFF0
0600
0600
0780
06E0
0600
0600
0600
0600
0600
ENDCHAR
STARTCHAR uni5360
ENCODING 21344
SWIDTH 1000 0
DWIDTH 12 0
BBX 10 12 1 -1
BITMAP
0C00
0C00
0C00
0FC0
0C00
0C00
0C00
FFC0
C0C0
C0C0
C0C0
FFC0
ENDCHAR
STARTCHAR uni5366
ENCODING 21350
SWIDTH 1000 0
DWIDTH 12 0
BBX 12 12 0 -1
BITMAP
1800
18C0
FEC0
18C0
18C0
FF60
18D0
18D0
FEC0
18C0
18C0
FF40
ENDCHAR
STARTCHAR uni5369
ENCODING 21353
SWIDTH 1000 0
DWIDTH 12 0
BBX 8 11 2 -1
BITMAP
FF
C3
C3
C3
C3
C3
C3
C3
DF
C0
C0
ENDCHAR
STARTCHAR uni536E
ENCODING 21358
SWIDTH 1000 0
DWIDTH 12 0
BBX 12 11 0 -1
BITMAP
01E0
7F00
6000
7FF0
6000
6FC0
6CC0
6CC0
CDC0
CC30
07F0
ENDCHAR
STARTCHAR uni536F
ENCODING 21359
SWIDTH 1000 0
DWIDTH 12 0
BBX 12 11 0 -1
BITMAP
0EF0
79B0
61B0
66B0
66B0
66B0
6EB0
F6B0
06B0
0D80
3980
ENDCHAR
STARTCHAR uni5370
ENCODING 21360
SWIDTH 1000 0
DWIDTH 12 0
BBX 12 11 0 -1
BITMAP
1C00
F3F0
C330
C330
FD30
C330
C330
C330
C330
FD70
0300
ENDCHAR
STARTCHAR uni5371
ENCODING 21361
SWIDTH 1000 0
DWIDTH 12 0
BBX 12 11 0 -1
BITMAP
1F80
3180
6300
FFF0
6000
6FC0
6CC0
6CC0
6DC0
CC30
CFF0
ENDCHAR
STARTCHAR uni5373
ENCODING 21363
SWIDTH 1000 0
DWIDTH 12 0
BBX 12 11 0 -1
BITMAP
FDF0
CDB0
CDB0
FDB0
CDB0
CDB0
FDB0
C1B0
D9B0
CDB0
FA80
ENDCHAR
STARTCHAR uni5374
ENCODING 21364
SWIDTH 1000 0
DWIDTH 12 0
BBX 12 12 0 -1
BITMAP
3000
33F0
FD30
3330
3330
3330
FF30
6330
6330
CD30
FD70
0D00
ENDCHAR
STARTCHAR uni5375
ENCODING 21365
SWIDTH 1000 0
DWIDTH 12 0
BBX 12 11 0 -1
BITMAP
0EF0
79B0
61B0
76D0
6AB0
66B0
6EB0
F6B0
06B0
0D80
3980
ENDCHAR
STARTCHAR uni5377
ENCODING 21367
SWIDTH 1000 0
DWIDTH 12 0
BBX 12 12 0 -1
BITMAP
0600
36C0
36C0
6FA0
CDB0
FFF0
18C0
3FA0
F1B0
3380
3060
3FE0
ENDCHAR
STARTCHAR uni5378
ENCODING 21368
SWIDTH 1000 0
DWIDTH 12 0
BBX 12 12 0 -1
BITMAP
6000
6000
7EF0
D9B0
D9B0
FEB0
19B0
1EB0
D9B0
D9B0
DEB0
F180
ENDCHAR
STARTCHAR uni537B
ENCODING 21371
SWIDTH 1000 0
DWIDTH 12 0
BBX 12 11 0 -1
BITMAP
79F0
CDB0
06B0
01B0
79B0
CDB0
06B0
FDB0
CDB0
CD80
FD80
ENDCHAR
STARTCHAR uni537F
ENCODING 21375
SWIDTH 1000 0
DWIDTH 12 0
BBX 12 11 0 -1
BITMAP
3F70
ED50
CF50
D550
D550
D750
D4D0
F550
3570
6F40
6340
ENDCHAR
STARTCHAR uni5382
ENCODING 21378
SWIDTH 1000 0
DWIDTH 12 0
BBX 12 11 0 -1
BITMAP
7FF0
6000
6000
6000
6000
6000
6000
6000
6000
C000
C000
ENDCHAR
STARTCHAR uni5384
ENCODING 21380
SWIDTH 1000 0
DWIDTH 12 0
BBX 12 11 0 -1
BITMAP
7FF0
6000
6000
6FE0
6C60
6C60
6DE0
6C00
6C30
CC30
C7F0
ENDCHAR
STARTCHAR uni5396
ENCODING 21398
SWIDTH 1000 0
DWIDTH 12 0
BBX 12 11 0 -1
BITMAP
7FF0
6C30
6D60
7F00
6C70
6DC0
6E00
6A70
DAC0
D630
33F0
ENDCHAR
STARTCHAR uni5398
ENCODING 21400
SWIDTH 1000 0
DWIDTH 12 0
BBX 12 11 0 -1
BITMAP
7FF0
6000
6FF0
69B0
6FF0
69B0
6FF0
6180
DFF0
C180
3FF0
ENDCHAR
STARTCHAR uni539A
ENCODING 21402
SWIDTH 1000 0
DWIDTH 12 0
BBX 12 11 0 -1
BITMAP
7FF0
6000
6FF0
6C30
6FF0
6C30
6FF0
6060
DFF0
C0C0
07C0
ENDCHAR
STARTCHAR uni539F
ENCODING 21407
SWIDTH 1000 0
DWIDTH 12 0
BBX 12 11 0 -1
BITMAP
7FF0
6300
6FE0
6860
6FE0
6860
6860
6FE0
C300
DB60
3730
ENDCHAR
STARTCHAR uni53A0
ENCODING 21408
SWIDTH 1000 0
DWIDTH 12 0
BBX 12 11 0 -1
BITMAP
7FF0
6000
6F30
6B50
6F50
6B50
6B50
6F50
C030
DB30
31B0
ENDCHAR
STARTCHAR uni53A5
ENCODING 21413
SWIDTH 1000 0
DWIDTH 12 0
BBX 12 11 0 -1
BITMAP
7FF0
6680
6D80
7EF0
6B50
6B50
6AC0
7EA0
D9A0
D330
3630
ENDCHAR
STARTCHAR uni53A6
ENCODING 21414
SWIDTH 1000 0
DWIDTH 12 0
BBX 12 11 0 -1
BITMAP
7FF0
6300
6FF0
6830
6FF0
6830
6FF0
6C60
DA60
C7C0
3C70
ENDCHAR
STARTCHAR uni53A8
ENCODING 21416
SWIDTH 1000 0
DWIDTH 12 0
BBX 12 11 0 -1
BITMAP
7FF0
6000
7FB0
6030
6FF0
6B30
6F30
66B0
DAD0
DA30
3F70
ENDCHAR
STARTCHAR uni53A9
ENCODING 21417
SWIDTH 1000 0
DWIDTH 12 0
BBX 12 11 0 -1
BITMAP
FFF0
C000
DEF0
D6A0
DEA0
D6A0
DFF0
D060
D4E0
D6A0
DD70
ENDCHAR
STARTCHAR uni53AD
ENCODING 21421
SWIDTH 1000 0
DWIDTH 12 0
BBX 12 11 0 -1
BITMAP
FFF0
D6C0
DED0
C3F0
DEC0
D6C0
DEE0
D6A0
DEA0
D730
D630
ENDCHAR
STARTCHAR uni53AE
ENCODING 21422
SWIDTH 1000 0
DWIDTH 12 0
BBX 12 11 0 -1
BITMAP
FFF0
D660
FFC0
D680
DEF0
D6A0
D6A0
FFA0
C1A0
D660
6360
ENDCHAR
STARTCHAR uni53B0
ENCODING 21424
SWIDTH 1000 0
DWIDTH 12 0
BBX 12 11 0 -1
BITMAP
7FF0
6980
6DF0
6AB0
69B0
7F50
6350
7D60
D560
DD50
07B0
ENDCHAR
STARTCHAR uni53B3
ENCODING 21427
SWIDTH 1000 0
DWIDTH 12 0
BBX 12 12 0 -1
BITMAP
0300
1B60
7FF0
6D80
7FF0
6B30
6F50
6B50
6F60
DB60
DF50
3BB0
ENDCHAR
STARTCHAR uni53B6
ENCODING 21430
SWIDTH 1000 0
DWIDTH 12 0
BBX 12 11 0 -1
BITMAP
0C00
0C00
0C00
0C00
18C0
18C0
1860
3060
31D0
FF30
0030
ENDCHAR
STARTCHAR uni53BB
ENCODING 21435
SWIDTH 1000 0
DWIDTH 12 0
BBX 12 12 0 -1
BITMAP
0600
0600
7FE0
0600
0600
0600
FFF0
0C00
0CC0
18C0
33A0
3E60
ENDCHAR
STARTCHAR uni53C2
ENCODING 21442
SWIDTH 1000 0
DWIDTH 12 0
BBX 12 12 0 -1
BITMAP
0C00
0D80
18C0
7FE0
0600
FFF0
0CC0
39A0
E730
1CC0
0380
3E00
ENDCHAR
STARTCHAR uni53C3
ENCODING 21443
SWIDTH 1000 0
DWIDTH 12 0
BBX 12 12 0 -1
BITMAP
0C00
0D80
18C0
7FE0
69A0
FDF0
1B40
3660
E3B0
1EC0
0380
3E00
ENDCHAR
STARTCHAR uni53C8
ENCODING 21448
SWIDTH 1000 0
DWIDTH 12 0
BBX 12 11 0 -1
BITMAP
7FE0
0060
0060
1860
18C0
18C0
0D80
0D00
0700
1DC0
F070
ENDCHAR
STARTCHAR uni53C9
ENCODING 21449
SWIDTH 1000 0
DWIDTH 12 0
BBX 12 11 0 -1
BITMAP
7FE0
0060
0C60
0660
0340
00C0
1980
0D00
0700
1DC0
F070
ENDCHAR
STARTCHAR uni53CA
ENCODING 21450
SWIDTH 1000 0
DWIDTH 12 0
BBX 11 11 1 -1
BITMAP
FF80
3180
3300
3600
37C0
60C0
6CC0
C680
C380
0EC0
7860
ENDCHAR
STARTCHAR uni53CB
ENCODING 21451
SWIDTH 1000 0
DWIDTH 12 0
BBX 12 12 0 -1
BITMAP
0C00
0C00
FFF0
0C00
0FC0
18C0
18C0
34C0
6680
C380
0EC0
7870
ENDCHAR
STARTCHAR uni53CC
ENCODING 21452
SWIDTH 1000 0
DWIDTH 12 0
BBX 12 11 0 -1
BITMAP
FDF0
0C30
0C30
6D30
3530
19A0
1DA0
36C0
61C0
C760
1C30
ENDCHAR
STARTCHAR uni53CD
ENCODING 21453
SWIDTH 1000 0
DWIDTH 12 0
BBX 11 11 1 -1
BITMAP
7FE0
6000
6000
7FC0
60C0
6CC0
6CC0
C680
C380
0EC0
7860
ENDCHAR
STARTCHAR uni53CE
ENCODING 21454
SWIDTH 1000 0
DWIDTH 12 0
BBX 12 11 0 -1
BITMAP
1BF0
6830
6830
6B30
6B30
69A0
69A0
78C0
E9C0
1B60
1E30
ENDCHAR
STARTCHAR uni53D4
ENCODING 21460
SWIDTH 1000 0
DWIDTH 12 0
BBX 12 12 0 -1
BITMAP
3000
33F0
3C30
3030
3330
FD30
31A0
D5A0
D4C0
D5C0
3360
7630
ENDCHAR
STARTCHAR uni53D6
ENCODING 21462
SWIDTH 1000 0
DWIDTH 12 0
BBX 12 11 0 -1
BITMAP
FE00
6DF0
7C30
6D30
6D30
7DA0
6DA0
6CC0
7DC0
ED60
0E30
ENDCHAR
STARTCHAR uni53D7
ENCODING 21463
SWIDTH 1000 0
DWIDTH 12 0
BBX 12 11 0 -1
BITMAP
7FA0
0C60
66C0
3180
FFF0
C030
DFD0
00C0
1980
0F00
79E0
ENDCHAR
STARTCHAR uni53D9
ENCODING 21465
SWIDTH 1000 0
DWIDTH 12 0
BBX 12 11 0 -1
BITMAP
3BF0
6C30
C030
FD30
3330
31A0
FDA0
30C0
D4C0
D5A0
7730
ENDCHAR
STARTCHAR uni53DB
ENCODING 21467
SWIDTH 1000 0
DWIDTH 12 0
BBX 12 11 0 -1
BITMAP
37F0
D600
DA00
37E0
FA60
3660
35A0
F5A0
30C0
63A0
6E30
ENDCHAR
STARTCHAR uni53DF
ENCODING 21471
SWIDTH 1000 0
DWIDTH 12 0
BBX 12 12 0 -1
BITMAP
0C00
1800
76E0
6660
7AE0
6660
7FE0
0600
FFF0
30C0
1F80
F0F0
ENDCHAR
STARTCHAR uni53E1
ENCODING 21473
SWIDTH 1000 0
DWIDTH 12 0
BBX 12 12 0 -1
BITMAP
1800
1EF0
1830
FF30
DB50
6AD0
D550
7ED0
E760
7E60
66D0
7FB0
ENDCHAR
STARTCHAR uni53E2
ENCODING 21474
SWIDTH 1000 0
DWIDTH 12 0
BBX 12 12 0 -1
BITMAP
0D00
3540
FFF0
1980
7FE0
0600
FFF0
6C60
7D60
6D40
7DC0
EF70
ENDCHAR
STARTCHAR uni53E3
ENCODING 21475
SWIDTH 1000 0
DWIDTH 12 0
BBX 11 10 1 -1
BITMAP
FFE0
C060
C060
C060
C060
C060
C060
C060
FFE0
C060
ENDCHAR
STARTCHAR uni53E4
ENCODING 21476
SWIDTH 1000 0
DWIDTH 12 0
BBX 12 12 0 -1
BITMAP
0600
0600
0600
FFF0
0600
0600
0600
3FC0
30C0
30C0
30C0
3FC0
ENDCHAR
STARTCHAR uni53E5
ENCODING 21477
SWIDTH 1000 0
DWIDTH 12 0
BBX 12 12 0 -1
BITMAP
3000
3000
3FF0
6030
6030
DF30
DB30
1B30
1B30
1F30
0060
01C0
ENDCHAR
STARTCHAR uni53E8
ENCODING 21480
SWIDTH 1000 0
DWIDTH 12 0
BBX 12 11 0 -1
BITMAP
0FF0
F9B0
D9B0
D9B0
D9B0
DB30
DB30
DA30
DA30
F860
01C0
ENDCHAR
STARTCHAR uni53E9
ENCODING 21481
SWIDTH 1000 0
DWIDTH 12 0
BBX 12 11 0 -1
BITMAP
FBF0
DA30
DA30
DA30
DA30
DA30
DA30
DA30
FAF0
0600
0600
ENDCHAR
STARTCHAR uni53EA
ENCODING 21482
SWIDTH 1000 0
DWIDTH 12 0
BBX 12 11 0 -1
BITMAP
7FE0
6060
6060
6060
6060
6060
7FE0
0000
30C0
6060
C030
ENDCHAR
STARTCHAR uni53EB
ENCODING 21483
SWIDTH 1000 0
DWIDTH 12 0
BBX 12 11 0 -1
BITMAP
0060
FB60
DB60
DB60
DB60
DB60
DB70
DBE0
DE60
F860
0060
ENDCHAR
STARTCHAR uni53EC
ENCODING 21484
SWIDTH 1000 0
DWIDTH 12 0
BBX 11 11 1 -1
BITMAP
FFE0
0660
0C60
3860
E1C0
0000
7FC0
60C0
60C0
60C0
7FC0
ENDCHAR
STARTCHAR uni53ED
ENCODING 21485
SWIDTH 1000 0
DWIDTH 12 0
BBX 12 11 0 -1
BITMAP
03E0
F860
D860
DB60
DB60
DB60
DB60
DA30
DA30
FC30
0C30
ENDCHAR
STARTCHAR uni53EE
ENCODING 21486
SWIDTH 1000 0
DWIDTH 12 0
BBX 12 11 0 -1
BITMAP
0FF0
F860
D860
D860
D860
D860
D860
D860
D860
F860
01E0
ENDCHAR
STARTCHAR uni53EF
ENCODING 21487
SWIDTH 1000 0
DWIDTH 12 0
BBX 12 11 0 -1
BITMAP
FFF0
00C0
00C0
7CC0
6CC0
6CC0
6CC0
7CC0
00C0
00C0
03C0
ENDCHAR
STARTCHAR uni53F0
ENCODING 21488
SWIDTH 1000 0
DWIDTH 12 0
BBX 12 12 0 -1
BITMAP
1800
18C0
30C0
3060
FFE0
0030
0030
3FC0
30C0
30C0
30C0
3FC0
ENDCHAR
STARTCHAR uni53F1
ENCODING 21489
SWIDTH 1000 0
DWIDTH 12 0
BBX 12 12 0 -1
BITMAP
0300
0300
FB00
DB70
DBC0
DF00
DB00
DB00
DB00
DB30
FB30
03F0
ENDCHAR
STARTCHAR uni53F2
ENCODING 21490
SWIDTH 1000 0
DWIDTH 12 0
BBX 12 12 0 -1
BITMAP
0600
0600
7FE0
6660
6660
6660
7FE0
0600
3A00
0E00
3B80
E0F0
ENDCHAR
STARTCHAR uni53F3
ENCODING 21491
SWIDTH 1000 0
DWIDTH 12 0
BBX 12 12 0 -1
BITMAP
0600
0600
FFF0
0600
0600
0C00
1FE0
3860
E860
1860
1860
1FE0
ENDCHAR
STARTCHAR uni53F6
ENCODING 21494
SWIDTH 1000 0
DWIDTH 12 0
BBX 12 12 0 -1
BITMAP
00C0
00C0
F8C0
D8C0
DFF0
D8C0
D8C0
D8C0
D8C0
D8C0
F8C0
00C0
ENDCHAR
STARTCHAR uni53F7
ENCODING 21495
SWIDTH 1000 0
DWIDTH 12 0
BBX 12 11 0 -1
BITMAP
3FC0
30C0
30C0
3FC0
0000
FFF0
1800
3FE0
3060
00C0
0780
ENDCHAR
STARTCHAR uni53F8
ENCODING 21496
SWIDTH 1000 0
DWIDTH 12 0
BBX 11 11 0 -1
BITMAP
FFE0
0060
0060
7E60
0060
0060
7E60
6660
6660
7E60
00E0
ENDCHAR
STARTCHAR uni53FA
ENCODING 21498
SWIDTH 1000 0
DWIDTH 12 0
BBX 12 11 0 -1
BITMAP
07C0
F8C0
D8C0
D8C0
D8C0
D9A0
D9A0
DB60
DB30
FA30
0630
ENDCHAR
STARTCHAR uni5401
ENCODING 21505
SWIDTH 1000 0
DWIDTH 12 0
BBX 12 11 0 -1
BITMAP
07F0
F8C0
D8C0
D8C0
D8C0
DFF0
D8C0
D8C0
D8C0
F8C0
03C0
ENDCHAR
STARTCHAR uni5403
ENCODING 21507
SWIDTH 1000 0
DWIDTH 12 0
BBX 12 12 0 -1
BITMAP
0600
0600
FBF0
DC00
D800
DBE0
D8C0
D980
DB00
DA30
FA30
03F0
ENDCHAR
STARTCHAR uni5404
ENCODING 21508
SWIDTH 1000 0
DWIDTH 12 0
BBX 12 12 0 -1
BITMAP
1800
1800
1FC0
30C0
6D80
0700
1DC0
F070
3FC0
30C0
30C0
3FC0
ENDCHAR
STARTCHAR uni5408
ENCODING 21512
SWIDTH 1000 0
DWIDTH 12 0
BBX 12 11 0 -1
BITMAP
0F00
1980
30C0
6060
DFD0
0000
0000
3FC0
30C0
30C0
3FC0
ENDCHAR
STARTCHAR uni5409
ENCODING 21513
SWIDTH 1000 0
DWIDTH 12 0
BBX 12 12 0 -1
BITMAP
0600
0600
FFF0
0600
0600
7FE0
0000
0000
3FC0
30C0
30C0
3FC0
ENDCHAR
STARTCHAR uni540A
ENCODING 21514
SWIDTH 1000 0
DWIDTH 12 0
BBX 12 11 0 -1
BITMAP
3FC0
30C0
30C0
3FC0
0600
0600
FFF0
C630
C630
C670
0600
ENDCHAR
STARTCHAR uni540B
ENCODING 21515
SWIDTH 1000 0
DWIDTH 12 0
BBX 12 12 0 -1
BITMAP
0060
0060
F860
DFF0
D860
D860
DA60
DB60
D860
D860
F860
01E0
ENDCHAR
STARTCHAR uni540C
ENCODING 21516
SWIDTH 1000 0
DWIDTH 12 0
BBX 12 11 0 -1
BITMAP
FFF0
C030
C030
DFD0
C030
C030
DFB0
D9B0
D9B0
DFB0
C070
ENDCHAR
STARTCHAR uni540D
ENCODING 21517
SWIDTH 1000 0
DWIDTH 12 0
BBX 12 12 0 -1
BITMAP
0600
0600
0FE0
1860
74C0
0680
0300
0FF0
3C30
EC30
0C30
0FF0
ENDCHAR
STARTCHAR uni540E
ENCODING 21518
SWIDTH 1000 0
DWIDTH 12 0
BBX 12 11 0 -1
BITMAP
01E0
7F00
6000
6000
7FF0
6000
6000
6FE0
D860
D860
1FE0
ENDCHAR
STARTCHAR uni540F
ENCODING 21519
SWIDTH 1000 0
DWIDTH 12 0
BBX 12 12 0 -1
BITMAP
0600
0600
FFF0
0600
7FE0
6660
6660
7FE0
0600
0E00
1B80
F0F0
ENDCHAR
STARTCHAR uni5410
ENCODING 21520
SWIDTH 1000 0
DWIDTH 12 0
BBX 12 12 0 -1
BITMAP
0180
0180
F980
D980
DFF0
D980
D980
D980
D980
D980
F980
0FF0
ENDCHAR
STARTCHAR uni5411
ENCODING 21521
SWIDTH 1000 0
DWIDTH 12 0
BBX 12 12 0 -1
BITMAP
0300
0600
0C00
FFF0
C030
C030
DFB0
D9B0
D9B0
DFB0
C030
C0F0
ENDCHAR
STARTCHAR uni541B
ENCODING 21531
SWIDTH 1000 0
DWIDTH 12 0
BBX 12 11 0 -1
BITMAP
3FE0
0660
FFF0
0660
0660
7FE0
0C00
3FE0
E860
1860
1FE0
ENDCHAR
STARTCHAR uni541D
ENCODING 21533
SWIDTH 1000 0
DWIDTH 12 0
BBX 12 12 0 -1
BITMAP
0600
0600
FFF0
30C0
1980
0F00
39C0
E070
3FC0
30C0
30C0
3FC0
ENDCHAR
STARTCHAR uni541F
ENCODING 21535
SWIDTH 1000 0
DWIDTH 12 0
BBX 12 11 0 -1
BITMAP
03E0
FA30
DC00
DBF0
D800
D800
DBF0
D830
D830
F860
01C0
ENDCHAR
STARTCHAR uni5420
ENCODING 21536
SWIDTH 1000 0
DWIDTH 12 0
BBX 12 12 0 -1
BITMAP
0180
01A0
F1B0
D180
DFF0
D180
D180
D180
D340
D340
F660
1C30
ENDCHAR
STARTCHAR uni5426
ENCODING 21542
SWIDTH 1000 0
DWIDTH 12 0
BBX 12 11 0 -1
BITMAP
FFF0
0300
0600
1EC0
F660
0630
0600
3FC0
30C0
30C0
3FC0
ENDCHAR
STARTCHAR uni5429
ENCODING 21545
SWIDTH 1000 0
DWIDTH 12 0
BBX 12 11 0 -1
BITMAP
06E0
F660
D460
D430
D030
D7F0
D660
D660
D660
F460
0DC0
ENDCHAR
STARTCHAR uni542B
ENCODING 21547
SWIDTH 1000 0
DWIDTH 12 0
BBX 12 11 0 -1
BITMAP
1F80
30C0
6FA0
C030
3FC0
0180
0300
3FC0
30C0
30C0
3FC0
ENDCHAR
STARTCHAR uni542C
ENCODING 21548
SWIDTH 1000 0
DWIDTH 12 0
BBX 12 11 0 -1
BITMAP
0070
FBC0
DA00
DA00
DBF0
DA60
DA60
DA60
DA60
FC60
0C60
ENDCHAR
STARTCHAR uni542D
ENCODING 21549
SWIDTH 1000 0
DWIDTH 12 0
BBX 12 12 0 -1
BITMAP
0180
0180
FFF0
D800
D800
DBE0
DA60
DA60
DA60
DA60
FC60
0C70
ENDCHAR
STARTCHAR uni542E
ENCODING 21550
SWIDTH 1000 0
DWIDTH 12 0
BBX 12 12 0 -1
BITMAP
0300
0300
F660
D660
DFD0
D030
D6C0
D6C0
D6C0
F6D0
0CD0
38F0
ENDCHAR
STARTCHAR uni5436
ENCODING 21558
SWIDTH 1000 0
DWIDTH 12 0
BBX 12 12 0 -1
BITMAP
0780
0180
F7F0
D5B0
D5B0
D5B0
D550
D670
D430
D430
F430
0C70
ENDCHAR
STARTCHAR uni5438
ENCODING 21560
SWIDTH 1000 0
DWIDTH 12 0
BBX 12 11 0 -1
BITMAP
1FE0
F660
D6C0
D680
D6E0
D460
D560
D9A0
D0C0
F3A0
0E30
ENDCHAR
STARTCHAR uni5439
ENCODING 21561
SWIDTH 1000 0
DWIDTH 12 0
BBX 12 12 0 -1
BITMAP
0600
0600
FBF0
DAB0
DDB0
D9A0
D980
D980
DB40
FB40
0660
1C30
ENDCHAR
STARTCHAR uni543B
ENCODING 21563
SWIDTH 1000 0
DWIDTH 12 0
BBX 12 12 0 -1
BITMAP
0C00
0C00
F7F0
D550
DB50
D6D0
D6B0
D5B0
D530
D330
F060
01C0
ENDCHAR
STARTCHAR uni543C
ENCODING 21564
SWIDTH 1000 0
DWIDTH 12 0
BBX 12 11 0 -1
BITMAP
1FA0
F1A0
D360
D660
D660
D7A0
DE60
D660
D660
F660
0E70
ENDCHAR
STARTCHAR uni543D
ENCODING 21565
SWIDTH 1000 0
DWIDTH 12 0
BBX 12 12 0 -1
BITMAP
00C0
0CC0
F4C0
D7F0
D4C0
D4C0
D0C0
DFF0
D0C0
D0C0
F0C0
00C0
ENDCHAR
STARTCHAR uni543E
ENCODING 21566
SWIDTH 1000 0
DWIDTH 12 0
BBX 12 11 0 -1
BITMAP
FFF0
0600
3FC0
0CC0
0CC0
FFF0
0000
3FC0
30C0
30C0
3FC0
ENDCHAR
STARTCHAR uni5440
ENCODING 21568
SWIDTH 1000 0
DWIDTH 12 0
BBX 12 11 0 -1
BITMAP
07F0
F860
DA60
DA60
DA60
DBF0
D9A0
D9A0
FB60
0660
1CE0
ENDCHAR
STARTCHAR uni5442
ENCODING 21570
SWIDTH 1000 0
DWIDTH 12 0
BBX 11 11 1 -1
BITMAP
7FC0
60C0
60C0
60C0
7FC0
0C00
FFE0
C060
C060
C060
FFE0
ENDCHAR
STARTCHAR uni5446
ENCODING 21574
SWIDTH 1000 0
DWIDTH 12 0
BBX 12 11 0 -1
BITMAP
3FC0
30C0
30C0
3FC0
0600
FFF0
0600
0E00
3AC0
E670
0600
ENDCHAR
STARTCHAR uni5448
ENCODING 21576
SWIDTH 1000 0
DWIDTH 12 0
BBX 12 11 0 -1
BITMAP
3FC0
30C0
30C0
3FC0
0000
7FE0
0600
3FC0
0600
0600
FFF0
ENDCHAR
STARTCHAR uni5449
ENCODING 21577
SWIDTH 1000 0
DWIDTH 12 0
BBX 12 11 0 -1
BITMAP
1FC0
68C0
68C0
6FC0
6000
7FC0
00C0
FFF0
0000
39C0
E070
ENDCHAR
STARTCHAR uni544A
ENCODING 21578
SWIDTH 1000 0
DWIDTH 12 0
BBX 12 12 0 -1
BITMAP
0300
3300
3300
3FE0
6300
C300
FFF0
0000
3FE0
3060
3060
3FE0
ENDCHAR
STARTCHAR uni544E
ENCODING 21582
SWIDTH 1000 0
DWIDTH 12 0
BBX 12 11 0 -1
BITMAP
07F0
FA30
DA30
DA30
DBF0
DAC0
DAC0
DA60
DA60
FC30
0C30
ENDCHAR
STARTCHAR uni5451
ENCODING 21585
SWIDTH 1000 0
DWIDTH 12 0
BBX 12 11 0 -1
BITMAP
03E0
7E00
0600
FFF0
0D80
18C0
3FE0
F0D0
30C0
30C0
3FC0
ENDCHAR
STARTCHAR uni545F
ENCODING 21599
SWIDTH 1000 0
DWIDTH 12 0
BBX 12 12 0 -1
BITMAP
0180
0180
FBF0
D8C0
D980
DB30
DA60
DB40
D980
DB30
FA30
07F0
ENDCHAR
STARTCHAR uni5468
ENCODING 21608
SWIDTH 1000 0
DWIDTH 12 0
BBX 12 11 0 -1
BITMAP
7FF0
6630
6630
6FB0
6630
6FD0
6030
6FB0
69B0
DFB0
C070
ENDCHAR
STARTCHAR uni546A
ENCODING 21610
SWIDTH 1000 0
DWIDTH 12 0
BBX 12 11 0 -1
BITMAP
07F0
FA30
DA30
DA30
DBF0
DB40
DB40
DB40
DB50
FAD0
1CF0
ENDCHAR
STARTCHAR uni5470
ENCODING 21616
SWIDTH 1000 0
DWIDTH 12 0
BBX 12 12 0 -1
BITMAP
0300
3300
DD70
D3C0
D300
DF30
F1F0
0000
3FC0
30C0
30C0
3FC0
ENDCHAR
STARTCHAR uni5471
ENCODING 21617
SWIDTH 1000 0
DWIDTH 12 0
BBX 12 11 0 -1
BITMAP
0FF0
F540
D540
D540
D540
D560
D560
D560
D550
FBD0
1830
ENDCHAR
STARTCHAR uni5473
ENCODING 21619
SWIDTH 1000 0
DWIDTH 12 0
BBX 12 12 0 -1
BITMAP
0180
0180
F7F0
D180
D180
DFF0
D180
D180
D3C0
F6A0
1DB0
0180
ENDCHAR
STARTCHAR uni5475
ENCODING 21621
SWIDTH 1000 0
DWIDTH 12 0
BBX 12 11 0 -1
BITMAP
1FF0
F060
D060
D760
D560
D560
D560
D760
D060
F060
01E0
ENDCHAR
STARTCHAR uni5476
ENCODING 21622
SWIDTH 1000 0
DWIDTH 12 0
BBX 12 12 0 -1
BITMAP
0C00
0DF0
F430
DF50
D550
D550
D550
D550
DE60
D7A0
F4D0
0DB0
ENDCHAR
STARTCHAR uni5477
ENCODING 21623
SWIDTH 1000 0
DWIDTH 12 0
BBX 12 11 0 -1
BITMAP
0FF0
F5B0
D5B0
D7F0
D5B0
D5B0
D7F0
D180
D180
F180
0180
ENDCHAR
STARTCHAR uni547B
ENCODING 21627
SWIDTH 1000 0
DWIDTH 12 0
BBX 12 12 0 -1
BITMAP
0180
0180
F7F0
D5B0
D5B0
D7F0
D5B0
D5B0
D7F0
D180
F180
0180
ENDCHAR
STARTCHAR uni547C
ENCODING 21628
SWIDTH 1000 0
DWIDTH 12 0
BBX 12 11 0 -1
BITMAP
00F0
F780
D180
D5B0
D6A0
D180
DFF0
D180
D180
F180
0780
ENDCHAR
STARTCHAR uni547D
ENCODING 21629
SWIDTH 1000 0
DWIDTH 12 0
BBX 12 11 0 -1
BITMAP
0F80
18C0
3060
7FD0
C000
7DF0
6D30
6D30
6D30
7D70
0300
ENDCHAR
STARTCHAR uni5480
ENCODING 21632
SWIDTH 1000 0
DWIDTH 12 0
BBX 12 11 0 -1
BITMAP
03F0
FB30
DB30
DBF0
DB30
DB30
DBF0
DB30
DB30
FB30
07F0
ENDCHAR
STARTCHAR uni5484
ENCODING 21636
SWIDTH 1000 0
DWIDTH 12 0
BBX 12 12 0 -1
BITMAP
0180
0180
F5B0
D5B0
D5B0
D7F0
D180
D180
D5B0
D5B0
F5B0
0FF0
ENDCHAR
STARTCHAR uni5486
ENCODING 21638
SWIDTH 1000 0
DWIDTH 12 0
BBX 12 12 0 -1
BITMAP
0600
0600
FBF0
DC30
DBD0
DAD0
DAD0
DBD0
DA70
DA00
FA30
03F0
ENDCHAR
STARTCHAR uni548B
ENCODING 21643
SWIDTH 1000 0
DWIDTH 12 0
BBX 12 12 0 -1
BITMAP
0600
0600
FBF0
DA80
DD80
D9F0
D980
D980
D9F0
D980
F980
0180
ENDCHAR
STARTCHAR uni548C
ENCODING 21644
SWIDTH 1000 0
DWIDTH 12 0
BBX 12 11 0 -1
BITMAP
0E00
F9F0
19B0
19B0
FFB0
19B0
1DB0
3AB0
6BB0
D9B0
19F0
ENDCHAR
STARTCHAR uni548E
ENCODING 21646
SWIDTH 1000 0
DWIDTH 12 0
BBX 12 12 0 -1
BITMAP
0180
7D80
6D80
6D40
DA60
DC30
3780
E0F0
3FC0
30C0
30C0
3FC0
ENDCHAR
STARTCHAR uni548F
ENCODING 21647
SWIDTH 1000 0
DWIDTH 12 0
BBX 12 12 0 -1
BITMAP
0180
00C0
F800
DBC0
D8D0
DF60
DB40
DB40
DAE0
DAD0
FCD0
0DC0
ENDCHAR
STARTCHAR uni5490
ENCODING 21648
SWIDTH 1000 0
DWIDTH 12 0
BBX 12 12 0 -1
BITMAP
0060
0660
F660
D5F0
DC60
D460
D560
D5A0
D460
D460
F460
0CE0
ENDCHAR
STARTCHAR uni5492
ENCODING 21650
SWIDTH 1000 0
DWIDTH 12 0
BBX 12 11 0 -1
BITMAP
7DE0
6D60
6D60
7DE0
0000
1F80
1980
1980
19B0
31B0
E0F0
ENDCHAR
STARTCHAR uni54A2
ENCODING 21666
SWIDTH 1000 0
DWIDTH 12 0
BBX 12 11 0 -1
BITMAP
7DE0
6D60
7DE0
0000
7FE0
0000
FFF0
1800
3FE0
3060
01C0
ENDCHAR
STARTCHAR uni54A4
ENCODING 21668
SWIDTH 1000 0
DWIDTH 12 0
BBX 12 12 0 -1
BITMAP
0300
0300
FFF0
D830
D9D0
DF00
DB00
DBF0
DF00
DB00
FB30
03F0
ENDCHAR
STARTCHAR uni54A5
ENCODING 21669
SWIDTH 1000 0
DWIDTH 12 0
BBX 12 11 0 -1
BITMAP
0FF0
F980
DB00
DA30
DBF0
D8C0
D8C0
DBF0
D8C0
F8C0
0FF0
ENDCHAR
STARTCHAR uni54A8
ENCODING 21672
SWIDTH 1000 0
DWIDTH 12 0
BBX 12 12 0 -1
BITMAP
0600
0600
F7F0
0DB0
0DA0
3380
66C0
CC70
3FC0
30C0
30C0
3FC0
ENDCHAR
STARTCHAR uni54AB
ENCODING 21675
SWIDTH 1000 0
DWIDTH 12 0
BBX 12 11 0 -1
BITMAP
7EF0
66B0
66B0
66B0
7EF0
6800
69A0
6D30
6C00
C700
C1F0
ENDCHAR
STARTCHAR uni54AC
ENCODING 21676
SWIDTH 1000 0
DWIDTH 12 0
BBX 12 12 0 -1
BITMAP
0180
0180
FFF0
D800
DA60
DC30
D800
DA60
DB40
D9C0
FB60
0E30
ENDCHAR
STARTCHAR uni54AF
ENCODING 21679
SWIDTH 1000 0
DWIDTH 12 0
BBX 12 12 0 -1
BITMAP
0600
0600
F7E0
D460
DAC0
D380
D6C0
DC70
D7E0
D460
F460
0FE0
ENDCHAR
STARTCHAR uni54B2
ENCODING 21682
SWIDTH 1000 0
DWIDTH 12 0
BBX 12 12 0 -1
BITMAP
0C60
0660
F0C0
D7F0
D180
D180
DFF0
D180
D180
F340
0660
1C30
ENDCHAR
STARTCHAR uni54B3
ENCODING 21683
SWIDTH 1000 0
DWIDTH 12 0
BBX 12 12 0 -1
BITMAP
0180
0180
FFF0
D980
DB30
DA60
DB40
D9B0
DB60
D8C0
FBA0
0E30
ENDCHAR
STARTCHAR uni54B8
ENCODING 21688
SWIDTH 1000 0
DWIDTH 12 0
BBX 12 12 0 -1
BITMAP
00C0
00D0
7FF0
60C0
7F40
60C0
6ED0
6AD0
6A60
6E60
C1D0
C730
ENDCHAR
STARTCHAR uni54BC
ENCODING 21692
SWIDTH 1000 0
DWIDTH 12 0
BBX 12 11 0 -1
BITMAP
3FC0
30C0
37C0
36C0
36C0
FFF0
C030
DFB0
D9B0
DFB0
C070
ENDCHAR
STARTCHAR uni54BD
ENCODING 21693
SWIDTH 1000 0
DWIDTH 12 0
BBX 12 11 0 -1
BITMAP
0FF0
F5B0
D5B0
D7F0
D5B0
D5B0
D5B0
D550
D670
F430
0FF0
ENDCHAR
STARTCHAR uni54BE
ENCODING 21694
SWIDTH 1000 0
DWIDTH 12 0
BBX 12 12 0 -1
BITMAP
0300
0300
FFF0
DB60
DB40
DFF0
DB00
DEE0
DB80
DA00
FA30
07F0
ENDCHAR
STARTCHAR uni54C0
ENCODING 21696
SWIDTH 1000 0
DWIDTH 12 0
BBX 12 12 0 -1
BITMAP
0600
0600
FFF0
0000
3FC0
30C0
30C0
3FC0
1A30
F360
31C0
7E70
ENDCHAR
STARTCHAR uni54C1
ENCODING 21697
SWIDTH 1000 0
DWIDTH 12 0
BBX 12 11 0 -1
BITMAP
1F80
1980
1980
1980
1F80
0000
FDF0
CD30
CD30
CD30
FDF0
ENDCHAR
STARTCHAR uni54C2
ENCODING 21698
SWIDTH 1000 0
DWIDTH 12 0
BBX 12 11 0 -1
BITMAP
0FF0
F340
D340
D7F0
D550
D550
D550
D570
D630
F430
0FF0
ENDCHAR
STARTCHAR uni54C4
ENCODING 21700
SWIDTH 1000 0
DWIDTH 12 0
BBX 12 12 0 -1
BITMAP
06C0
06C0
F6C0
DFF0
D6C0
D6C0
D6C0
DFF0
D000
D6C0
F460
1830
ENDCHAR
STARTCHAR uni54C7
ENCODING 21703
SWIDTH 1000 0
DWIDTH 12 0
BBX 12 12 0 -1
BITMAP
0180
0180
FBF0
D980
D980
DFF0
D980
D980
DBF0
D980
F980
0FF0
ENDCHAR
STARTCHAR uni54C8
ENCODING 21704
SWIDTH 1000 0
DWIDTH 12 0
BBX 12 11 0 -1
BITMAP
03E0
FA30
DC00
D800
DBF0
D800
D800
DBF0
DA30
FA30
07F0
ENDCHAR
STARTCHAR uni54C9
ENCODING 21705
SWIDTH 1000 0
DWIDTH 12 0
BBX 12 12 0 -1
BITMAP
3180
31A0
FDB0
3180
3180
FFF0
0180
01A0
FCC0
CCC0
CDA0
FF30
ENDCHAR
STARTCHAR uni54D8
ENCODING 21720
SWIDTH 1000 0
DWIDTH 12 0
BBX 12 11 0 -1
BITMAP
06F0
F400
D800
D300
D6F0
D660
DA60
D660
D660
F660
06E0
ENDCHAR
STARTCHAR uni54E1
ENCODING 21729
SWIDTH 1000 0
DWIDTH 12 0
BBX 12 11 0 -1
BITMAP
7FE0
6060
7FE0
0000
7FE0
6060
7FE0
6060
7FE0
30C0
E070
ENDCHAR
STARTCHAR uni54E2
ENCODING 21730
SWIDTH 1000 0
DWIDTH 12 0
BBX 12 11 0 -1
BITMAP
0FF0
F980
DBF0
D980
DFF0
DB60
DB60
DFF0
DB60
FA60
0660
ENDCHAR
STARTCHAR uni54E5
ENCODING 21733
SWIDTH 1000 0
DWIDTH 12 0
BBX 12 11 0 -1
BITMAP
FFF0
36C0
36C0
3EC0
00C0
FFF0
00C0
3EC0
36C0
3EC0
01C0
ENDCHAR
STARTCHAR uni54E6
ENCODING 21734
SWIDTH 1000 0
DWIDTH 12 0
BBX 12 12 0 -1
BITMAP
00C0
1F50
F6D0
D6C0
D7F0
DEC0
D6D0
D750
DE60
D660
F6D0
0F30
ENDCHAR
STARTCHAR uni54E8
ENCODING 21736
SWIDTH 1000 0
DWIDTH 12 0
BBX 12 12 0 -1
BITMAP
0180
0180
F5B0
D6A0
D180
D7F0
D430
D7F0
D430
D7F0
F430
0C70
ENDCHAR
STARTCHAR uni54E9
ENCODING 21737
SWIDTH 1000 0
DWIDTH 12 0
BBX 12 11 0 -1
BITMAP
0FF0
F5B0
D7F0
D5B0
D5B0
D7F0
D180
D7F0
D180
F180
0FF0
ENDCHAR
STARTCHAR uni54ED
ENCODING 21741
SWIDTH 1000 0
DWIDTH 12 0
BBX 12 11 0 -1
BITMAP
7DE0
6D60
6D60
7DE0
06C0
0660
FFF0
0600
0D00
39C0
E070
ENDCHAR
STARTCHAR uni54EE
ENCODING 21742
SWIDTH 1000 0
DWIDTH 12 0
BBX 12 12 0 -1
BITMAP
0180
0180
FBF0
D9B0
D9A0
DFF0
DB00
DAE0
DC60
DBF0
F8C0
03C0
ENDCHAR
STARTCHAR uni54F2
ENCODING 21746
SWIDTH 1000 0
DWIDTH 12 0
BBX 12 12 0 -1
BITMAP
3000
33F0
FD00
33F0
3D60
F660
3660
0000
3FE0
3060
3060
3FE0
ENDCHAR
STARTCHAR uni54FA
ENCODING 21754
SWIDTH 1000 0
DWIDTH 12 0
BBX 12 12 0 -1
BITMAP
0180
01B0
F7F0
D180
D7F0
D5B0
D7F0
D5B0
D7F0
D5B0
F5B0
0DB0
ENDCHAR
STARTCHAR uni54FD
ENCODING 21757
SWIDTH 1000 0
DWIDTH 12 0
BBX 12 11 0 -1
BITMAP
1FF0
F180
D7F0
D5B0
D7F0
D5B0
D7F0
D680
D380
F6C0
1C70
ENDCHAR
STARTCHAR uni5504
ENCODING 21764
SWIDTH 1000 0
DWIDTH 12 0
BBX 12 11 0 -1
BITMAP
07F0
FA30
DBF0
DA30
DBF0
DA30
DA30
DBF0
F800
0660
0C30
ENDCHAR
STARTCHAR uni5506
ENCODING 21766
SWIDTH 1000 0
DWIDTH 12 0
BBX 12 12 0 -1
BITMAP
0300
0360
F660
DFF0
D340
D350
D670
D3E0
D660
D6C0
F3C0
1E70
ENDCHAR
STARTCHAR uni5507
ENCODING 21767
SWIDTH 1000 0
DWIDTH 12 0
BBX 12 11 0 -1
BITMAP
7FF0
6000
7FF0
6B60
D9C0
DE70
0000
3FE0
3060
3060
3FE0
ENDCHAR
STARTCHAR uni550F
ENCODING 21775
SWIDTH 1000 0
DWIDTH 12 0
BBX 12 11 0 -1
BITMAP
0770
F9C0
DB60
D980
DFF0
DB00
DBF0
DEB0
DAB0
FAB0
0180
ENDCHAR
STARTCHAR uni5510
ENCODING 21776
SWIDTH 1000 0
DWIDTH 12 0
BBX 12 12 0 -1
BITMAP
0300
0300
7FF0
6330
7FF0
6330
6FF0
6000
6FE0
D860
D860
1FE0
ENDCHAR
STARTCHAR uni5514
ENCODING 21780
SWIDTH 1000 0
DWIDTH 12 0
BBX 12 11 0 -1
BITMAP
0FF0
F980
DBF0
DB30
DB30
DFF0
D800
DBF0
DA30
FA30
07F0
ENDCHAR
STARTCHAR uni5516
ENCODING 21782
SWIDTH 1000 0
DWIDTH 12 0
BBX 12 11 0 -1
BITMAP
1FF0
F340
D340
D7F0
D550
D550
D550
D7F0
D340
F340
1FF0
ENDCHAR
STARTCHAR uni552E
ENCODING 21806
SWIDTH 1000 0
DWIDTH 12 0
BBX 12 12 0 -1
BITMAP
1980
1980
3FF0
7300
DFE0
3300
3FE0
3300
3FF0
3060
3060
3FE0
ENDCHAR
STARTCHAR uni552F
ENCODING 21807
SWIDTH 1000 0
DWIDTH 12 0
BBX 12 12 0 -1
BITMAP
0300
0360
FB60
DBF0
DAC0
DFF0
DAC0
DAC0
DBF0
DAC0
FAC0
07F0
ENDCHAR
STARTCHAR uni5531
ENCODING 21809
SWIDTH 1000 0
DWIDTH 12 0
BBX 12 11 0 -1
BITMAP
07E0
FA60
DBE0
DA60
DBE0
D800
DFF0
D830
DFF0
F830
1FF0
ENDCHAR
STARTCHAR uni5533
ENCODING 21811
SWIDTH 1000 0
DWIDTH 12 0
BBX 12 11 0 -1
BITMAP
0FF0
F000
D7F0
D430
D7F0
D580
D7F0
D580
D5C0
F360
0E30
ENDCHAR
STARTCHAR uni5538
ENCODING 21816
SWIDTH 1000 0
DWIDTH 12 0
BBX 12 11 0 -1
BITMAP
07C0
F460
D830
D7E0
D000
D7E0
D060
D340
D580
F460
37D0
ENDCHAR
STARTCHAR uni5539
ENCODING 21817
SWIDTH 1000 0
DWIDTH 12 0
BBX 12 12 0 -1
BITMAP
0C00
0CE0
F5B0
DF00
D400
D5C0
D770
DB00
D300
D300
F6C0
1C70
ENDCHAR
STARTCHAR uni553E
ENCODING 21822
SWIDTH 1000 0
DWIDTH 12 0
BBX 12 11 0 -1
BITMAP
0FF0
F180
DFF0
D5B0
DFF0
D5B0
D5B0
DFF0
D180
F180
0FF0
ENDCHAR
STARTCHAR uni5540
ENCODING 21824
SWIDTH 1000 0
DWIDTH 12 0
BBX 12 11 0 -1
BITMAP
0FF0
F4C0
D5F0
D4C0
D4C0
D7F0
D4C0
D5F0
D4C0
F8C0
1BF0
ENDCHAR
STARTCHAR uni5544
ENCODING 21828
SWIDTH 1000 0
DWIDTH 12 0
BBX 12 11 0 -1
BITMAP
1FF0
F180
D380
D6D0
D1E0
D740
DCC0
D1E0
D750
FCD0
0380
ENDCHAR
STARTCHAR uni5545
ENCODING 21829
SWIDTH 1000 0
DWIDTH 12 0
BBX 12 12 0 -1
BITMAP
0180
0180
F9F0
D980
DBF0
DA30
DBF0
DA30
DBF0
D980
FFF0
0180
ENDCHAR
STARTCHAR uni5546
ENCODING 21830
SWIDTH 1000 0
DWIDTH 12 0
BBX 12 12 0 -1
BITMAP
0600
0600
FFF0
1980
1980
FFF0
D9B0
D1B0
EFF0
D9B0
D9B0
DFB0
ENDCHAR
STARTCHAR uni554C
ENCODING 21836
SWIDTH 1000 0
DWIDTH 12 0
BBX 12 12 0 -1
BITMAP
0180
0180
FFF0
DB50
DB40
DB50
DEF0
D800
DBE0
D980
F980
0FF0
ENDCHAR
STARTCHAR uni554F
ENCODING 21839
SWIDTH 1000 0
DWIDTH 12 0
BBX 12 11 0 -1
BITMAP
FDF0
CD30
FDF0
CD30
FDF0
C030
C030
DFB0
D9B0
D9B0
DFB0
ENDCHAR
STARTCHAR uni5553
ENCODING 21843
SWIDTH 1000 0
DWIDTH 12 0
BBX 12 12 0 -1
BITMAP
0300
FD00
03F0
7F60
6D60
7DC0
C770
C000
3FC0
30C0
30C0
3FC0
ENDCHAR
STARTCHAR uni5556
ENCODING 21846
SWIDTH 1000 0
DWIDTH 12 0
BBX 12 11 0 -1
BITMAP
0DB0
F5A0
D180
D340
D670
D180
D5B0
D5A0
D380
F6C0
1C70
ENDCHAR
STARTCHAR uni5557
ENCODING 21847
SWIDTH 1000 0
DWIDTH 12 0
BBX 12 11 0 -1
BITMAP
03E0
FA60
DCC0
D980
DB70
DA30
DA30
DB70
DA30
FA30
07F0
ENDCHAR
STARTCHAR uni555C
ENCODING 21852
SWIDTH 1000 0
DWIDTH 12 0
BBX 12 11 0 -1
BITMAP
0F70
F330
D550
D660
D550
D000
D770
D330
D550
F660
0D50
ENDCHAR
STARTCHAR uni555D
ENCODING 21853
SWIDTH 1000 0
DWIDTH 12 0
BBX 12 11 0 -1
BITMAP
03F0
FED0
D6D0
D6D0
DFD0
D6D0
D6D0
D750
D6F0
FAC0
3670
ENDCHAR
STARTCHAR uni5563
ENCODING 21859
SWIDTH 1000 0
DWIDTH 12 0
BBX 12 12 0 -1
BITMAP
0C00
0CF0
F7D0
DAD0
D6D0
DFD0
D6D0
D750
DAD0
DAF0
FBC0
1CC0
ENDCHAR
STARTCHAR uni557B
ENCODING 21883
SWIDTH 1000 0
DWIDTH 12 0
BBX 12 12 0 -1
BITMAP
0600
0600
FFF0
1980
FFF0
C630
DFD0
36C0
0600
7FE0
6060
7FE0
ENDCHAR
STARTCHAR uni557C
ENCODING 21884
SWIDTH 1000 0
DWIDTH 12 0
BBX 12 12 0 -1
BITMAP
0180
0180
FFF0
D6C0
D6C0
DFF0
D1B0
D7F0
D5B0
D5B0
F5B0
0180
ENDCHAR
STARTCHAR uni557E
ENCODING 21886
SWIDTH 1000 0
DWIDTH 12 0
BBX 12 12 0 -1
BITMAP
00C0
03C0
FEC0
D6D0
D6D0
DFD0
D6C0
D6E0
D6A0
DAA0
F730
0630
ENDCHAR
STARTCHAR uni5580
ENCODING 21888
SWIDTH 1000 0
DWIDTH 12 0
BBX 12 12 0 -1
BITMAP
0300
0300
FFF0
D6D0
D6D0
D380
D6C0
DC70
D7E0
D460
F460
0FE0
ENDCHAR
STARTCHAR uni5583
ENCODING 21891
SWIDTH 1000 0
DWIDTH 12 0
BBX 12 12 0 -1
BITMAP
0180
0180
F7F0
D180
D7F0
D550
D550
D7F0
D5B0
D7F0
F5B0
0DB0
ENDCHAR
STARTCHAR uni5584
ENCODING 21892
SWIDTH 1000 0
DWIDTH 12 0
BBX 12 12 0 -1
BITMAP
18C0
1980
FFF0
0600
3FC0
0600
7FE0
36C0
FFF0
30C0
30C0
3FC0
ENDCHAR
STARTCHAR uni5587
ENCODING 21895
SWIDTH 1000 0
DWIDTH 12 0
BBX 12 12 0 -1
BITMAP
0C00
0C30
FFD0
D4D0
DF50
D550
D550
DF50
D4D0
DE30
F5B0
0C70
ENDCHAR
STARTCHAR uni5589
ENCODING 21897
SWIDTH 1000 0
DWIDTH 12 0
BBX 12 11 0 -1
BITMAP
0DE0
F460
D460
D7F0
DD00
D5F0
D6C0
D5F0
D4C0
F5A0
0F30
ENDCHAR
STARTCHAR uni558A
ENCODING 21898
SWIDTH 1000 0
DWIDTH 12 0
BBX 12 12 0 -1
BITMAP
00C0
00D0
F7F0
D4C0
D7C0
D4D0
D750
D550
D760
D460
F9D0
1B30
ENDCHAR
STARTCHAR uni558B
ENCODING 21899
SWIDTH 1000 0
DWIDTH 12 0
BBX 12 12 0 -1
BITMAP
0300
0D60
FFF0
D560
D5E0
D400
D7F0
D180
DFF0
D380
F6A0
1DB0
ENDCHAR
ENDFONT
